<svg width="58" height="58" viewBox="0 0 58 58" fill="none" xmlns="http://www.w3.org/2000/svg">
<circle cx="29" cy="29" r="25" stroke="url(#paint0_linear_1_5)"/>
<circle cx="29" cy="29" r="20.5" fill="url(#paint1_linear_1_5)"/>
<path d="M29 0L30.0804 2.91964L33 4L30.0804 5.08036L29 8L27.9196 5.08036L25 4L27.9196 2.91964L29 0Z" fill="url(#paint2_linear_1_5)"/>
<path d="M53.75 25L54.8979 28.1021L58 29.25L54.8979 30.3979L53.75 33.5L52.6021 30.3979L49.5 29.25L52.6021 28.1021L53.75 25Z" fill="url(#paint3_linear_1_5)"/>
<path d="M4 25L5.08036 27.9196L8 29L5.08036 30.0804L4 33L2.91964 30.0804L0 29L2.91964 27.9196L4 25Z" fill="url(#paint4_linear_1_5)"/>
<path d="M29 50L30.0804 52.9196L33 54L30.0804 55.0804L29 58L27.9196 55.0804L25 54L27.9196 52.9196L29 50Z" fill="url(#paint5_linear_1_5)"/>
<defs>
<linearGradient id="paint0_linear_1_5" x1="3.5" y1="8.57258" x2="56.4032" y2="10.8809" gradientUnits="userSpaceOnUse">
<stop offset="0.5" stop-color="#067FED"/>
<stop offset="1" stop-color="#4BF06F"/>
</linearGradient>
<linearGradient id="paint1_linear_1_5" x1="8.5" y1="12.578" x2="51.03" y2="14.4337" gradientUnits="userSpaceOnUse">
<stop offset="0.5" stop-color="#067FED"/>
<stop offset="1" stop-color="#4BF06F"/>
</linearGradient>
<linearGradient id="paint2_linear_1_5" x1="25" y1="0.795699" x2="33.2985" y2="1.15779" gradientUnits="userSpaceOnUse">
<stop offset="0.5" stop-color="#067FED"/>
<stop offset="1" stop-color="#4BF06F"/>
</linearGradient>
<linearGradient id="paint3_linear_1_5" x1="49.5" y1="25.8454" x2="58.3172" y2="26.2302" gradientUnits="userSpaceOnUse">
<stop offset="0.5" stop-color="#067FED"/>
<stop offset="1" stop-color="#4BF06F"/>
</linearGradient>
<linearGradient id="paint4_linear_1_5" x1="2.60526e-09" y1="25.7957" x2="8.29855" y2="26.1578" gradientUnits="userSpaceOnUse">
<stop offset="0.5" stop-color="#067FED"/>
<stop offset="1" stop-color="#4BF06F"/>
</linearGradient>
<linearGradient id="paint5_linear_1_5" x1="25" y1="50.7957" x2="33.2985" y2="51.1578" gradientUnits="userSpaceOnUse">
<stop offset="0.5" stop-color="#067FED"/>
<stop offset="1" stop-color="#4BF06F"/>
</linearGradient>
</defs>
</svg>
