<svg width="44" height="44" viewBox="0 0 44 44" fill="none" xmlns="http://www.w3.org/2000/svg">
<path d="M21.9998 13.75C20.3681 13.75 18.7731 14.2339 17.4164 15.1404C16.0597 16.0469 15.0023 17.3354 14.3778 18.8429C13.7534 20.3504 13.59 22.0092 13.9084 23.6095C14.2267 25.2099 15.0124 26.6799 16.1662 27.8336C17.32 28.9874 18.79 29.7732 20.3903 30.0915C21.9907 30.4098 23.6495 30.2464 25.157 29.622C26.6645 28.9976 27.9529 27.9402 28.8595 26.5835C29.766 25.2268 30.2498 23.6317 30.2498 22C30.2476 19.8127 29.3776 17.7156 27.831 16.1689C26.2843 14.6222 24.1872 13.7523 21.9998 13.75ZM21.9998 27.5C20.912 27.5 19.8487 27.1774 18.9442 26.5731C18.0397 25.9688 17.3348 25.1098 16.9185 24.1048C16.5022 23.0998 16.3933 21.9939 16.6055 20.927C16.8177 19.8601 17.3416 18.8801 18.1107 18.1109C18.8799 17.3417 19.8599 16.8179 20.9268 16.6057C21.9937 16.3935 23.0996 16.5024 24.1046 16.9187C25.1096 17.335 25.9686 18.0399 26.5729 18.9444C27.1773 19.8489 27.4998 20.9122 27.4998 22C27.4998 23.4587 26.9204 24.8577 25.8889 25.8891C24.8575 26.9206 23.4585 27.5 21.9998 27.5ZM37.1248 22.3713C37.1317 22.1238 37.1317 21.8763 37.1248 21.6288L39.6892 18.425C39.8237 18.2568 39.9167 18.0594 39.9609 17.8486C40.0051 17.6378 39.9992 17.4196 39.9436 17.2116C39.5232 15.6314 38.8943 14.1141 38.0736 12.6999C37.9661 12.5148 37.8169 12.3573 37.6379 12.2401C37.4589 12.1228 37.2549 12.049 37.0423 12.0244L32.9655 11.5706C32.7959 11.3919 32.624 11.22 32.4498 11.055L31.9686 6.96783C31.9438 6.75507 31.8697 6.55103 31.7521 6.37199C31.6346 6.19295 31.4768 6.04385 31.2914 5.93658C29.8766 5.11733 28.3595 4.48911 26.7797 4.0683C26.5715 4.01295 26.3532 4.00729 26.1424 4.05177C25.9317 4.09625 25.7343 4.18964 25.5662 4.32439L22.3711 6.87502C22.1236 6.87502 21.8761 6.87502 21.6286 6.87502L18.4248 4.3158C18.2566 4.18134 18.0592 4.08827 17.8484 4.04408C17.6376 3.9999 17.4194 4.00584 17.2114 4.06142C15.6314 4.48256 14.1143 5.11138 12.6997 5.93142C12.5146 6.03889 12.3572 6.18808 12.2399 6.36711C12.1226 6.54614 12.0488 6.75007 12.0242 6.96267L11.5705 11.0464C11.3917 11.2172 11.2198 11.389 11.0548 11.562L6.96765 12.0313C6.75489 12.056 6.55085 12.1301 6.37181 12.2477C6.19276 12.3653 6.04367 12.5231 5.9364 12.7085C5.11715 14.1233 4.48892 15.6404 4.06812 17.2202C4.01277 17.4284 4.00711 17.6466 4.05159 17.8574C4.09607 18.0682 4.18945 18.2655 4.32421 18.4336L6.87483 21.6288C6.87483 21.8763 6.87483 22.1238 6.87483 22.3713L4.31562 25.575C4.18115 25.7432 4.08808 25.9407 4.0439 26.1514C3.99972 26.3622 4.00566 26.5804 4.06124 26.7885C4.48163 28.3687 5.11048 29.8859 5.93124 31.3002C6.03871 31.4853 6.18789 31.6427 6.36692 31.76C6.54596 31.8772 6.74989 31.9511 6.96249 31.9756L11.0394 32.4294C11.2101 32.6081 11.382 32.78 11.555 32.945L12.0311 37.0322C12.0558 37.245 12.13 37.449 12.2475 37.628C12.3651 37.8071 12.5229 37.9562 12.7083 38.0635C14.1231 38.8827 15.6402 39.5109 17.22 39.9317C17.4282 39.9871 17.6464 39.9927 17.8572 39.9483C18.068 39.9038 18.2654 39.8104 18.4334 39.6756L21.6286 37.125C21.8761 37.1319 22.1236 37.1319 22.3711 37.125L25.5748 39.6894C25.743 39.8238 25.9405 39.9169 26.1513 39.9611C26.362 40.0053 26.5802 39.9993 26.7883 39.9438C28.3685 39.5234 29.8857 38.8945 31.3 38.0738C31.4851 37.9663 31.6425 37.8171 31.7598 37.6381C31.877 37.459 31.9509 37.2551 31.9755 37.0425L32.4292 32.9656C32.608 32.7961 32.7798 32.6242 32.9448 32.45L37.032 31.9688C37.2448 31.944 37.4488 31.8699 37.6279 31.7523C37.8069 31.6348 37.956 31.477 38.0633 31.2916C38.8825 29.8768 39.5107 28.3597 39.9315 26.7799C39.9869 26.5717 39.9926 26.3534 39.9481 26.1426C39.9036 25.9319 39.8102 25.7345 39.6755 25.5664L37.1248 22.3713ZM34.3576 21.2541C34.3869 21.7509 34.3869 22.2491 34.3576 22.746C34.3372 23.0861 34.4437 23.4218 34.6567 23.6878L37.0956 26.7352C36.8158 27.6246 36.4574 28.4873 36.0248 29.3133L32.1405 29.7533C31.8022 29.7908 31.4899 29.9525 31.2639 30.207C30.9331 30.5791 30.5807 30.9315 30.2086 31.2624C29.9541 31.4883 29.7924 31.8006 29.7548 32.1389L29.3234 36.0199C28.4976 36.4527 27.6348 36.811 26.7453 37.0906L23.6962 34.6517C23.4523 34.4568 23.1492 34.3507 22.8369 34.351H22.7544C22.2575 34.3802 21.7594 34.3802 21.2625 34.351C20.9223 34.3305 20.5867 34.4371 20.3206 34.65L17.2647 37.0906C16.3753 36.8108 15.5125 36.4524 14.6866 36.0199L14.2466 32.1406C14.209 31.8024 14.0473 31.49 13.7928 31.2641C13.4207 30.9332 13.0683 30.5809 12.7375 30.2088C12.5115 29.9542 12.1992 29.7926 11.8609 29.755L7.97999 29.3219C7.54719 28.496 7.18885 27.6332 6.90921 26.7438L9.34811 23.6947C9.56108 23.4287 9.66765 23.093 9.64718 22.7528C9.61796 22.256 9.61796 21.7578 9.64718 21.261C9.66765 20.9208 9.56108 20.5851 9.34811 20.3191L6.90921 17.2649C7.18906 16.3755 7.5474 15.5127 7.97999 14.6867L11.8592 14.2467C12.1975 14.2092 12.5098 14.0475 12.7358 13.793C13.0666 13.4209 13.419 13.0685 13.7911 12.7377C14.0466 12.5116 14.209 12.1985 14.2466 11.8594L14.678 7.98017C15.5038 7.54738 16.3666 7.18903 17.2561 6.90939L20.3051 9.3483C20.5712 9.56126 20.9069 9.66784 21.247 9.64736C21.7439 9.61814 22.242 9.61814 22.7389 9.64736C23.0791 9.66784 23.4147 9.56126 23.6808 9.3483L26.735 6.90939C27.6244 7.18925 28.4872 7.54758 29.3131 7.98017L29.7531 11.8594C29.7907 12.1977 29.9523 12.51 30.2069 12.736C30.579 13.0668 30.9313 13.4192 31.2622 13.7913C31.4881 14.0458 31.8005 14.2075 32.1387 14.245L36.0197 14.6764C36.4525 15.5023 36.8108 16.3651 37.0905 17.2545L34.6516 20.3036C34.4365 20.5719 34.3298 20.911 34.3525 21.2541H34.3576Z" fill="#067FED"/>
</svg>
