<svg width="44" height="44" viewBox="0 0 44 44" fill="none" xmlns="http://www.w3.org/2000/svg">
<path d="M4.125 16.5V28.875C4.125 29.2397 4.26987 29.5894 4.52773 29.8473C4.78559 30.1051 5.13533 30.25 5.5 30.25H19.25C19.6147 30.25 19.9644 30.3949 20.2223 30.6527C20.4801 30.9106 20.625 31.2603 20.625 31.625C20.625 31.9897 20.4801 32.3394 20.2223 32.5973C19.9644 32.8551 19.6147 33 19.25 33H16.5V35.75H19.25C19.6147 35.75 19.9644 35.8949 20.2223 36.1527C20.4801 36.4106 20.625 36.7603 20.625 37.125C20.625 37.4897 20.4801 37.8394 20.2223 38.0973C19.9644 38.3551 19.6147 38.5 19.25 38.5H11C10.6353 38.5 10.2856 38.3551 10.0277 38.0973C9.76987 37.8394 9.625 37.4897 9.625 37.125C9.625 36.7603 9.76987 36.4106 10.0277 36.1527C10.2856 35.8949 10.6353 35.75 11 35.75H13.75V33H5.5C4.40598 33 3.35677 32.5654 2.58318 31.7918C1.8096 31.0182 1.375 29.969 1.375 28.875V16.5C1.375 15.406 1.8096 14.3568 2.58318 13.5832C3.35677 12.8096 4.40598 12.375 5.5 12.375H19.25C19.6147 12.375 19.9644 12.5199 20.2223 12.7777C20.4801 13.0356 20.625 13.3853 20.625 13.75C20.625 14.1147 20.4801 14.4644 20.2223 14.7223C19.9644 14.9801 19.6147 15.125 19.25 15.125H5.5C5.13533 15.125 4.78559 15.2699 4.52773 15.5277C4.26987 15.7856 4.125 16.1353 4.125 16.5ZM35.75 11H30.25C29.8853 11 29.5356 11.1449 29.2777 11.4027C29.0199 11.6606 28.875 12.0103 28.875 12.375C28.875 12.7397 29.0199 13.0894 29.2777 13.3473C29.5356 13.6051 29.8853 13.75 30.25 13.75H35.75C36.1147 13.75 36.4644 13.6051 36.7223 13.3473C36.9801 13.0894 37.125 12.7397 37.125 12.375C37.125 12.0103 36.9801 11.6606 36.7223 11.4027C36.4644 11.1449 36.1147 11 35.75 11ZM35.75 16.5H30.25C29.8853 16.5 29.5356 16.6449 29.2777 16.9027C29.0199 17.1606 28.875 17.5103 28.875 17.875C28.875 18.2397 29.0199 18.5894 29.2777 18.8473C29.5356 19.1051 29.8853 19.25 30.25 19.25H35.75C36.1147 19.25 36.4644 19.1051 36.7223 18.8473C36.9801 18.5894 37.125 18.2397 37.125 17.875C37.125 17.5103 36.9801 17.1606 36.7223 16.9027C36.4644 16.6449 36.1147 16.5 35.75 16.5ZM42.625 8.25V35.75C42.625 36.4793 42.3353 37.1788 41.8195 37.6945C41.3038 38.2103 40.6043 38.5 39.875 38.5H26.125C25.3957 38.5 24.6962 38.2103 24.1805 37.6945C23.6647 37.1788 23.375 36.4793 23.375 35.75V8.25C23.375 7.52065 23.6647 6.82118 24.1805 6.30546C24.6962 5.78973 25.3957 5.5 26.125 5.5H39.875C40.6043 5.5 41.3038 5.78973 41.8195 6.30546C42.3353 6.82118 42.625 7.52065 42.625 8.25ZM39.875 35.75V8.25H26.125V35.75H39.875ZM33 28.875C32.5921 28.875 32.1933 28.996 31.8541 29.2226C31.515 29.4492 31.2506 29.7713 31.0945 30.1482C30.9384 30.5251 30.8975 30.9398 30.9771 31.3399C31.0567 31.74 31.2531 32.1075 31.5416 32.3959C31.83 32.6844 32.1975 32.8808 32.5976 32.9604C32.9977 33.04 33.4124 32.9991 33.7893 32.843C34.1662 32.6869 34.4883 32.4225 34.7149 32.0834C34.9415 31.7442 35.0625 31.3454 35.0625 30.9375C35.0625 30.3905 34.8452 29.8659 34.4584 29.4791C34.0716 29.0923 33.547 28.875 33 28.875Z" fill="white"/>
</svg>
