<svg width="56" height="44" viewBox="0 0 56 44" fill="none" xmlns="http://www.w3.org/2000/svg">
<path d="M16.3041 43.7894C12.971 43.7894 10.1102 42.946 7.72172 41.2592C5.34672 39.5589 3.51824 37.1097 2.23628 33.9116C0.967818 30.6999 0.333585 26.8338 0.333585 22.3132C0.347079 17.7926 0.988059 13.9467 2.25653 10.7756C3.53849 7.59091 5.36697 5.16193 7.74197 3.48864C10.1305 1.81534 12.9845 0.978692 16.3041 0.978692C19.6237 0.978692 22.4778 1.81534 24.8663 3.48864C27.2547 5.16193 29.0832 7.59091 30.3517 10.7756C31.6337 13.9602 32.2746 17.8061 32.2746 22.3132C32.2746 26.8473 31.6337 30.7202 30.3517 33.9318C29.0832 37.13 27.2547 39.5724 24.8663 41.2592C22.4913 42.946 19.6372 43.7894 16.3041 43.7894ZM16.3041 37.4538C18.895 37.4538 20.9394 36.1786 22.4373 33.6282C23.9486 31.0643 24.7043 27.2926 24.7043 22.3132C24.7043 19.0206 24.3602 16.2543 23.672 14.0142C22.9838 11.7741 22.0122 10.0874 20.7572 8.95384C19.5023 7.80682 18.0179 7.23331 16.3041 7.23331C13.7267 7.23331 11.6891 8.51527 10.1912 11.0792C8.69332 13.6296 7.93763 17.3743 7.92414 22.3132C7.91064 25.6193 8.24126 28.3991 8.91597 30.6527C9.60418 32.9062 10.5758 34.6065 11.8307 35.7536C13.0857 36.8871 14.5768 37.4538 16.3041 37.4538ZM55.861 1.54545V43H48.3514V8.85263H48.1085L38.4129 15.0465V8.16442L48.7158 1.54545H55.861Z" fill="#CDD0D6"/>
</svg>
