<svg width="68" height="44" viewBox="0 0 68 44" fill="none" xmlns="http://www.w3.org/2000/svg">
<path d="M16.2963 43.7894C12.9632 43.7894 10.1024 42.946 7.71391 41.2592C5.33891 39.5589 3.51043 37.1097 2.22847 33.9116C0.960005 30.6999 0.325772 26.8338 0.325772 22.3132C0.339267 17.7926 0.980247 13.9467 2.24871 10.7756C3.53067 7.59091 5.35915 5.16193 7.73415 3.48864C10.1226 1.81534 12.9767 0.978692 16.2963 0.978692C19.6159 0.978692 22.4699 1.81534 24.8584 3.48864C27.2469 5.16193 29.0754 7.59091 30.3439 10.7756C31.6258 13.9602 32.2668 17.8061 32.2668 22.3132C32.2668 26.8473 31.6258 30.7202 30.3439 33.9318C29.0754 37.13 27.2469 39.5724 24.8584 41.2592C22.4834 42.946 19.6294 43.7894 16.2963 43.7894ZM16.2963 37.4538C18.8872 37.4538 20.9316 36.1786 22.4295 33.6282C23.9408 31.0643 24.6965 27.2926 24.6965 22.3132C24.6965 19.0206 24.3524 16.2543 23.6642 14.0142C22.976 11.7741 22.0044 10.0874 20.7494 8.95384C19.4945 7.80682 18.0101 7.23331 16.2963 7.23331C13.7189 7.23331 11.6812 8.51527 10.1834 11.0792C8.6855 13.6296 7.92982 17.3743 7.91633 22.3132C7.90283 25.6193 8.23344 28.3991 8.90816 30.6527C9.59637 32.9062 10.568 34.6065 11.8229 35.7536C13.0779 36.8871 14.569 37.4538 16.2963 37.4538ZM38.9921 43V37.5753L53.3837 23.467C54.7602 22.0771 55.9072 20.8423 56.8248 19.7628C57.7424 18.6832 58.4306 17.6374 58.8894 16.6254C59.3482 15.6133 59.5776 14.5337 59.5776 13.3867C59.5776 12.0778 59.2808 10.9577 58.687 10.0266C58.0933 9.08203 57.2769 8.35334 56.2378 7.84055C55.1987 7.32777 54.018 7.07138 52.6955 7.07138C51.3326 7.07138 50.1384 7.35476 49.1128 7.92152C48.0872 8.47479 47.2911 9.2642 46.7243 10.2898C46.171 11.3153 45.8944 12.5366 45.8944 13.9535H38.7492C38.7492 11.3221 39.3497 9.0348 40.5506 7.09162C41.7516 5.14844 43.4047 3.64382 45.5098 2.57777C47.6284 1.51172 50.0574 0.978692 52.7967 0.978692C55.5766 0.978692 58.019 1.49822 60.1242 2.53729C62.2293 3.57635 63.8621 5 65.0226 6.80824C66.1966 8.61648 66.7836 10.6811 66.7836 13.0021C66.7836 14.554 66.4867 16.0788 65.893 17.5767C65.2992 19.0746 64.2534 20.7344 62.7555 22.5561C61.2712 24.3778 59.1863 26.5842 56.5009 29.1751L49.3557 36.4418V36.7251H67.4111V43H38.9921Z" fill="#CDD0D6"/>
</svg>
