<svg width="70" height="44" viewBox="0 0 70 44" fill="none" xmlns="http://www.w3.org/2000/svg">
<path d="M16.4335 43.7894C13.1004 43.7894 10.2396 42.946 7.85112 41.2592C5.47612 39.5589 3.64764 37.1097 2.36568 33.9116C1.09721 30.6999 0.462979 26.8338 0.462979 22.3132C0.476474 17.7926 1.11745 13.9467 2.38592 10.7756C3.66788 7.59091 5.49636 5.16193 7.87136 3.48864C10.2599 1.81534 13.1139 0.978692 16.4335 0.978692C19.7531 0.978692 22.6072 1.81534 24.9957 3.48864C27.3841 5.16193 29.2126 7.59091 30.4811 10.7756C31.7631 13.9602 32.404 17.8061 32.404 22.3132C32.404 26.8473 31.7631 30.7202 30.4811 33.9318C29.2126 37.13 27.3841 39.5724 24.9957 41.2592C22.6207 42.946 19.7666 43.7894 16.4335 43.7894ZM16.4335 37.4538C19.0244 37.4538 21.0688 36.1786 22.5667 33.6282C24.078 31.0643 24.8337 27.2926 24.8337 22.3132C24.8337 19.0206 24.4896 16.2543 23.8014 14.0142C23.1132 11.7741 22.1416 10.0874 20.8866 8.95384C19.6317 7.80682 18.1473 7.23331 16.4335 7.23331C13.8561 7.23331 11.8184 8.51527 10.3206 11.0792C8.82271 13.6296 8.06703 17.3743 8.05353 22.3132C8.04004 25.6193 8.37065 28.3991 9.04537 30.6527C9.73358 32.9062 10.7052 34.6065 11.9601 35.7536C13.2151 36.8871 14.7062 37.4538 16.4335 37.4538ZM54.0067 43.5668C51.092 43.5668 48.5011 43.0675 46.234 42.0689C43.9805 41.0703 42.1992 39.6804 40.8903 37.8991C39.5813 36.1179 38.8864 34.06 38.8054 31.7255H46.4162C46.4837 32.8455 46.8548 33.8239 47.5295 34.6605C48.2042 35.4837 49.1016 36.1246 50.2216 36.5835C51.3416 37.0423 52.5966 37.2717 53.9865 37.2717C55.4709 37.2717 56.7866 37.0153 57.9336 36.5025C59.0806 35.9762 59.978 35.2475 60.6257 34.3164C61.2734 33.3853 61.5906 32.3125 61.5771 31.098C61.5906 29.843 61.2667 28.7365 60.6055 27.7784C59.9442 26.8203 58.9862 26.0714 57.7312 25.5316C56.4897 24.9918 54.9918 24.7219 53.2376 24.7219H49.5739V18.9329H53.2376C54.6815 18.9329 55.9432 18.6832 57.0227 18.1839C58.1158 17.6847 58.9727 16.983 59.5934 16.0788C60.2141 15.1612 60.5178 14.1019 60.5043 12.9009C60.5178 11.7269 60.2546 10.7081 59.7148 9.84446C59.1886 8.96733 58.4396 8.28586 57.468 7.80007C56.5099 7.31427 55.3832 7.07138 54.0877 7.07138C52.8192 7.07138 51.6452 7.30078 50.5657 7.75959C49.4862 8.21839 48.6158 8.87287 47.9545 9.72301C47.2933 10.5597 46.9425 11.5582 46.902 12.7188H39.6758C39.7298 10.3977 40.3977 8.36008 41.6797 6.60582C42.9751 4.83807 44.7024 3.46165 46.8615 2.47656C49.0206 1.47798 51.4428 0.978692 54.1282 0.978692C56.8945 0.978692 59.2965 1.49822 61.3342 2.53729C63.3853 3.56285 64.9709 4.94602 66.0909 6.68679C67.2109 8.42755 67.771 10.3505 67.771 12.4556C67.7844 14.7901 67.0962 16.7468 65.7063 18.3256C64.3299 19.9045 62.5217 20.9368 60.2816 21.4226V21.7464C63.1964 22.1513 65.4297 23.2308 66.9815 24.9851C68.5469 26.7259 69.3228 28.8917 69.3093 31.4826C69.3093 33.8036 68.6481 35.8817 67.3256 37.717C66.0167 39.5387 64.2085 40.9691 61.9009 42.0082C59.6069 43.0472 56.9755 43.5668 54.0067 43.5668Z" fill="#CDD0D6"/>
</svg>
