<svg width="71" height="44" viewBox="0 0 71 44" fill="none" xmlns="http://www.w3.org/2000/svg">
<path d="M16.016 43.7894C12.6829 43.7894 9.82213 42.946 7.43364 41.2592C5.05864 39.5589 3.23016 37.1097 1.9482 33.9116C0.679732 30.6999 0.045499 26.8338 0.045499 22.3132C0.0589933 17.7926 0.699973 13.9467 1.96844 10.7756C3.2504 7.59091 5.07888 5.16193 7.45388 3.48864C9.84237 1.81534 12.6964 0.978692 16.016 0.978692C19.3356 0.978692 22.1897 1.81534 24.5782 3.48864C26.9667 5.16193 28.7951 7.59091 30.0636 10.7756C31.3456 13.9602 31.9866 17.8061 31.9866 22.3132C31.9866 26.8473 31.3456 30.7202 30.0636 33.9318C28.7951 37.13 26.9667 39.5724 24.5782 41.2592C22.2032 42.946 19.3491 43.7894 16.016 43.7894ZM16.016 37.4538C18.6069 37.4538 20.6513 36.1786 22.1492 33.6282C23.6606 31.0643 24.4162 27.2926 24.4162 22.3132C24.4162 19.0206 24.0721 16.2543 23.3839 14.0142C22.6957 11.7741 21.7241 10.0874 20.4692 8.95384C19.2142 7.80682 17.7298 7.23331 16.016 7.23331C13.4386 7.23331 11.401 8.51527 9.9031 11.0792C8.40523 13.6296 7.64955 17.3743 7.63605 22.3132C7.62256 25.6193 7.95317 28.3991 8.62789 30.6527C9.3161 32.9062 10.2877 34.6065 11.5427 35.7536C12.7976 36.8871 14.2888 37.4538 16.016 37.4538ZM37.9628 35.3082V29.337L55.5527 1.54545H60.5321V10.0469H57.4959L45.6546 28.8107V29.1346H70.2075V35.3082H37.9628ZM57.7388 43V33.4865L57.8197 30.8146V1.54545H64.9043V43H57.7388Z" fill="#CDD0D6"/>
</svg>
