<svg width="140" height="60" viewBox="0 0 140 60" fill="none" xmlns="http://www.w3.org/2000/svg">
<path d="M137.284 58.9127C137.156 59.1573 136.854 59.2516 136.609 59.1235L132.624 57.0346C132.379 56.9064 132.285 56.6042 132.413 56.3596C132.541 56.115 132.843 56.0206 133.088 56.1488L136.631 58.0056L138.487 54.4627C138.616 54.2181 138.918 54.1237 139.162 54.2519C139.407 54.3801 139.501 54.6823 139.373 54.9269L137.284 58.9127ZM0.648561 24.4559C1.13281 23.9774 1.62034 23.5062 2.11106 23.0423L2.798 23.769C2.31267 24.2278 1.83044 24.6939 1.35144 25.1672L0.648561 24.4559ZM5.09615 20.3437C6.12462 19.4549 7.16552 18.5965 8.21797 17.7681L8.83644 18.554C7.79603 19.3728 6.76692 20.2215 5.74999 21.1003L5.09615 20.3437ZM11.4499 15.344C12.551 14.5577 13.6633 13.8027 14.7859 13.0788L15.3278 13.9191C14.2186 14.6345 13.1193 15.3807 12.031 16.1578L11.4499 15.344ZM18.2291 10.9734C19.4025 10.2941 20.5858 9.64741 21.7777 9.03296L22.2359 9.92181C21.0584 10.5288 19.8894 11.1677 18.73 11.8388L18.2291 10.9734ZM25.4119 7.27103C26.6422 6.71153 27.8804 6.18519 29.1254 5.69171L29.4939 6.62135C28.2641 7.10876 27.0411 7.62865 25.8259 8.18132L25.4119 7.27103ZM32.9152 4.29762C34.196 3.86234 35.4828 3.46084 36.7744 3.09279L37.0484 4.05451C35.7728 4.418 34.5019 4.81453 33.2369 5.24444L32.9152 4.29762ZM40.686 2.08327C42.0012 1.77875 43.3201 1.50814 44.6415 1.27114L44.818 2.25543C43.513 2.4895 42.2104 2.75675 40.9116 3.05749L40.686 2.08327ZM48.6319 0.65807C49.9711 0.486492 51.3116 0.348888 52.6522 0.244918L52.7296 1.24192C51.4055 1.34461 50.0816 1.48051 48.759 1.64996L48.6319 0.65807ZM56.687 0.033196C58.0349 -0.00384304 59.3817 -0.00717174 60.7261 0.0228638L60.7038 1.02261C59.3759 0.992947 58.0457 0.996238 56.7144 1.03282L56.687 0.033196ZM64.7604 0.213396C66.1045 0.310382 67.4449 0.440667 68.7804 0.60391L68.6591 1.59652C67.3399 1.43528 66.016 1.3066 64.6884 1.2108L64.7604 0.213396ZM72.7772 1.19323C74.1045 1.42265 75.4257 1.68481 76.7393 1.97938L76.5205 2.95515C75.2229 2.66418 73.918 2.40523 72.6069 2.17862L72.7772 1.19323ZM80.6575 2.96023C81.9551 3.31933 83.244 3.71049 84.5228 4.13338L84.2089 5.08281C82.9457 4.6651 81.6726 4.27872 80.3908 3.92401L80.6575 2.96023ZM88.3258 5.49602C89.5809 5.98101 90.8247 6.49724 92.056 7.04439L91.65 7.95823C90.4337 7.41778 89.2051 6.90786 87.9654 6.4288L88.3258 5.49602ZM95.7052 8.77517C96.9058 9.38142 98.0927 10.018 99.2647 10.6846L98.7703 11.5538C97.6127 10.8954 96.4403 10.2666 95.2544 9.66782L95.7052 8.77517ZM102.726 12.7686C103.86 13.4904 104.979 14.2415 106.08 15.0216L105.502 15.8376C104.414 15.0671 103.31 14.3252 102.189 13.6123L102.726 12.7686ZM109.315 17.4369C110.371 18.2667 111.409 19.1247 112.427 20.0104L111.771 20.765C110.765 19.8901 109.74 19.0427 108.697 18.2231L109.315 17.4369ZM115.409 22.7367C116.378 23.6676 117.326 24.6255 118.254 25.6099L117.526 26.2956C116.61 25.3232 115.673 24.3772 114.716 23.4577L115.409 22.7367ZM120.947 28.6153C121.817 29.635 122.665 30.6801 123.49 31.7503L122.698 32.3608C121.883 31.3037 121.045 30.2714 120.186 29.2642L120.947 28.6153ZM125.877 35.009C126.643 36.1104 127.386 37.2358 128.105 38.3849L127.257 38.9152C126.547 37.7799 125.813 36.6681 125.056 35.58L125.877 35.009ZM130.161 41.8555C130.815 43.0215 131.444 44.2098 132.049 45.4201L131.155 45.867C130.557 44.6709 129.935 43.4966 129.289 42.3444L130.161 41.8555ZM133.77 49.076C134.311 50.301 134.828 51.5466 135.32 52.8127L134.387 53.1745C133.902 51.9227 133.391 50.6913 132.855 49.4805L133.77 49.076ZM136.691 56.5978C136.907 57.2376 137.116 57.8821 137.319 58.5316L136.364 58.8296C136.164 58.1873 135.957 57.5499 135.743 56.9172L136.691 56.5978Z" fill="#6A7383"/>
</svg>
