<svg width="655" height="418" viewBox="0 0 655 418" fill="none" xmlns="http://www.w3.org/2000/svg">
<rect x="37.374" y="101.723" width="429.031" height="258.188" stroke="#C6C6C6" stroke-width="2" stroke-linejoin="round" stroke-dasharray="3 3"/>
<rect x="161" y="28" width="445.581" height="298.974" fill="#F1F1F1"/>
<rect x="171.912" y="71.6338" width="423.756" height="248.875" fill="white"/>
<rect x="206.467" y="103.956" width="351.009" height="181" rx="8" fill="#F1F1F1"/>
<rect x="566.569" y="47.3926" width="27.2805" height="6.46429" rx="3.23215" fill="#C4C4C4"/>
<rect x="366.512" y="220.312" width="78.204" height="6.46429" rx="3.23215" fill="white"/>
<rect x="226.473" y="134.661" width="78.204" height="6.46429" rx="3.23215" fill="white"/>
<rect x="461.084" y="220.312" width="78.204" height="6.46429" rx="3.23215" fill="white"/>
<rect x="366.512" y="231.625" width="78.204" height="6.46429" rx="3.23215" fill="white"/>
<rect x="226.473" y="145.973" width="78.204" height="6.46429" rx="3.23215" fill="white"/>
<rect x="461.084" y="231.625" width="78.204" height="6.46429" rx="3.23215" fill="white"/>
<rect x="366.512" y="242.938" width="43.6487" height="6.46429" rx="3.23215" fill="white"/>
<rect x="226.473" y="157.286" width="43.6487" height="6.46429" rx="3.23215" fill="white"/>
<rect x="461.084" y="242.938" width="43.6487" height="6.46429" rx="3.23215" fill="white"/>
<ellipse cx="176.459" cy="49.8166" rx="4.54674" ry="4.04018" fill="#C4C4C4"/>
<ellipse cx="189.189" cy="49.8166" rx="4.54674" ry="4.04018" fill="#C4C4C4"/>
<ellipse cx="201.921" cy="49.8166" rx="4.54674" ry="4.04018" fill="#C4C4C4"/>
<g filter="url(#filter0_d_157_4956)">
<rect x="37" y="177" width="278.261" height="198.777" rx="15" fill="white"/>
</g>
<rect x="66.0996" y="222.25" width="216.425" height="29.0893" rx="4" fill="#EEEEEE"/>
<rect x="66.0996" y="283.661" width="216.425" height="29.0893" rx="4" fill="#EEEEEE"/>
<rect x="66.0996" y="328.911" width="69.1105" height="29.0893" rx="4" fill="#067FED"/>
<path d="M66.9956 206.058C66.9023 206.058 66.8299 206.032 66.7786 205.981C66.7319 205.925 66.7086 205.85 66.7086 205.757V201.368C66.7086 201.27 66.7343 201.197 66.7856 201.151C66.8369 201.099 66.9093 201.074 67.0026 201.074H68.6616C69.1889 201.074 69.5949 201.204 69.8796 201.466C70.1643 201.722 70.3066 202.086 70.3066 202.558C70.3066 203.024 70.1643 203.388 69.8796 203.65C69.5949 203.911 69.1889 204.042 68.6616 204.042H67.2826V205.757C67.2826 205.85 67.2593 205.925 67.2126 205.981C67.1659 206.032 67.0936 206.058 66.9956 206.058ZM67.2826 203.559H68.5916C68.9696 203.559 69.2543 203.475 69.4456 203.307C69.6416 203.134 69.7396 202.884 69.7396 202.558C69.7396 202.226 69.6416 201.977 69.4456 201.809C69.2543 201.636 68.9696 201.55 68.5916 201.55H67.2826V203.559ZM71.9614 206.072C71.7281 206.072 71.5181 206.027 71.3314 205.939C71.1494 205.845 71.0047 205.719 70.8974 205.561C70.7901 205.402 70.7364 205.225 70.7364 205.029C70.7364 204.777 70.7994 204.578 70.9254 204.434C71.0561 204.289 71.2684 204.186 71.5624 204.126C71.8611 204.065 72.2671 204.035 72.7804 204.035H73.0954V204.406H72.7874C72.4094 204.406 72.1107 204.424 71.8914 204.462C71.6767 204.494 71.5251 204.553 71.4364 204.637C71.3524 204.721 71.3104 204.84 71.3104 204.994C71.3104 205.185 71.3757 205.341 71.5064 205.463C71.6417 205.584 71.8237 205.645 72.0524 205.645C72.2391 205.645 72.4024 205.6 72.5424 205.512C72.6871 205.423 72.7991 205.302 72.8784 205.148C72.9624 204.994 73.0044 204.816 73.0044 204.616V203.818C73.0044 203.528 72.9461 203.321 72.8294 203.195C72.7127 203.064 72.5214 202.999 72.2554 202.999C72.0921 202.999 71.9287 203.02 71.7654 203.062C71.6021 203.104 71.4294 203.171 71.2474 203.265C71.1821 203.297 71.1261 203.309 71.0794 203.3C71.0327 203.286 70.9954 203.26 70.9674 203.223C70.9394 203.185 70.9231 203.143 70.9184 203.097C70.9137 203.045 70.9231 202.996 70.9464 202.95C70.9744 202.903 71.0164 202.866 71.0724 202.838C71.2777 202.735 71.4807 202.66 71.6814 202.614C71.8821 202.567 72.0734 202.544 72.2554 202.544C72.5494 202.544 72.7921 202.593 72.9834 202.691C73.1747 202.784 73.3171 202.929 73.4104 203.125C73.5037 203.316 73.5504 203.563 73.5504 203.867V205.764C73.5504 205.857 73.5271 205.929 73.4804 205.981C73.4384 206.032 73.3754 206.058 73.2914 206.058C73.2027 206.058 73.1351 206.032 73.0884 205.981C73.0417 205.929 73.0184 205.857 73.0184 205.764V205.218H73.0814C73.0441 205.395 72.9717 205.547 72.8644 205.673C72.7617 205.799 72.6334 205.897 72.4794 205.967C72.3254 206.037 72.1527 206.072 71.9614 206.072ZM75.7503 206.072C75.5403 206.072 75.328 206.046 75.1133 205.995C74.9033 205.943 74.7073 205.855 74.5253 205.729C74.4786 205.696 74.446 205.659 74.4273 205.617C74.4086 205.57 74.4016 205.526 74.4063 205.484C74.4156 205.437 74.4343 205.397 74.4623 205.365C74.495 205.332 74.5323 205.313 74.5743 205.309C74.621 205.299 74.6723 205.309 74.7283 205.337C74.9103 205.449 75.0853 205.528 75.2533 205.575C75.426 205.617 75.5963 205.638 75.7643 205.638C76.0303 205.638 76.231 205.589 76.3663 205.491C76.5016 205.393 76.5693 205.26 76.5693 205.092C76.5693 204.961 76.525 204.858 76.4363 204.784C76.3476 204.704 76.2076 204.644 76.0163 204.602L75.3793 204.462C75.0853 204.401 74.866 204.296 74.7213 204.147C74.5813 203.997 74.5113 203.804 74.5113 203.566C74.5113 203.356 74.565 203.176 74.6723 203.027C74.7843 202.873 74.9406 202.754 75.1413 202.67C75.342 202.586 75.5753 202.544 75.8413 202.544C76.0466 202.544 76.2403 202.572 76.4223 202.628C76.609 202.679 76.777 202.763 76.9263 202.88C76.973 202.912 77.0033 202.952 77.0173 202.999C77.036 203.041 77.0383 203.085 77.0243 203.132C77.015 203.174 76.994 203.211 76.9613 203.244C76.9286 203.272 76.889 203.288 76.8423 203.293C76.7956 203.297 76.7466 203.283 76.6953 203.251C76.5553 203.157 76.413 203.09 76.2683 203.048C76.1236 203.001 75.9813 202.978 75.8413 202.978C75.58 202.978 75.3816 203.029 75.2463 203.132C75.111 203.234 75.0433 203.37 75.0433 203.538C75.0433 203.668 75.0853 203.776 75.1693 203.86C75.2533 203.944 75.384 204.004 75.5613 204.042L76.1983 204.175C76.5016 204.24 76.728 204.345 76.8773 204.49C77.0313 204.63 77.1083 204.821 77.1083 205.064C77.1083 205.372 76.9846 205.617 76.7373 205.799C76.49 205.981 76.161 206.072 75.7503 206.072ZM79.1204 206.072C78.9104 206.072 78.6981 206.046 78.4834 205.995C78.2734 205.943 78.0774 205.855 77.8954 205.729C77.8488 205.696 77.8161 205.659 77.7974 205.617C77.7788 205.57 77.7718 205.526 77.7764 205.484C77.7858 205.437 77.8044 205.397 77.8324 205.365C77.8651 205.332 77.9024 205.313 77.9444 205.309C77.9911 205.299 78.0424 205.309 78.0984 205.337C78.2804 205.449 78.4554 205.528 78.6234 205.575C78.7961 205.617 78.9664 205.638 79.1344 205.638C79.4004 205.638 79.6011 205.589 79.7364 205.491C79.8718 205.393 79.9394 205.26 79.9394 205.092C79.9394 204.961 79.8951 204.858 79.8064 204.784C79.7178 204.704 79.5778 204.644 79.3864 204.602L78.7494 204.462C78.4554 204.401 78.2361 204.296 78.0914 204.147C77.9514 203.997 77.8814 203.804 77.8814 203.566C77.8814 203.356 77.9351 203.176 78.0424 203.027C78.1544 202.873 78.3108 202.754 78.5114 202.67C78.7121 202.586 78.9454 202.544 79.2114 202.544C79.4168 202.544 79.6104 202.572 79.7924 202.628C79.9791 202.679 80.1471 202.763 80.2964 202.88C80.3431 202.912 80.3734 202.952 80.3874 202.999C80.4061 203.041 80.4084 203.085 80.3944 203.132C80.3851 203.174 80.3641 203.211 80.3314 203.244C80.2988 203.272 80.2591 203.288 80.2124 203.293C80.1658 203.297 80.1168 203.283 80.0654 203.251C79.9254 203.157 79.7831 203.09 79.6384 203.048C79.4938 203.001 79.3514 202.978 79.2114 202.978C78.9501 202.978 78.7518 203.029 78.6164 203.132C78.4811 203.234 78.4134 203.37 78.4134 203.538C78.4134 203.668 78.4554 203.776 78.5394 203.86C78.6234 203.944 78.7541 204.004 78.9314 204.042L79.5684 204.175C79.8718 204.24 80.0981 204.345 80.2474 204.49C80.4014 204.63 80.4784 204.821 80.4784 205.064C80.4784 205.372 80.3548 205.617 80.1074 205.799C79.8601 205.981 79.5311 206.072 79.1204 206.072ZM82.4502 206.058C82.3709 206.058 82.3009 206.037 82.2402 205.995C82.1795 205.953 82.1305 205.885 82.0932 205.792L81.0502 202.957C81.0222 202.877 81.0129 202.807 81.0222 202.747C81.0362 202.686 81.0665 202.639 81.1132 202.607C81.1599 202.574 81.2182 202.558 81.2882 202.558C81.3582 202.558 81.4142 202.574 81.4562 202.607C81.5029 202.639 81.5402 202.7 81.5682 202.789L82.5482 205.589H82.3802L83.3882 202.789C83.4209 202.705 83.4605 202.646 83.5072 202.614C83.5585 202.576 83.6239 202.558 83.7032 202.558C83.7779 202.558 83.8409 202.576 83.8922 202.614C83.9435 202.651 83.9832 202.709 84.0112 202.789L84.9982 205.589H84.8372L85.8312 202.775C85.8639 202.691 85.9035 202.635 85.9502 202.607C85.9969 202.574 86.0529 202.558 86.1182 202.558C86.1929 202.558 86.2489 202.576 86.2862 202.614C86.3282 202.651 86.3515 202.7 86.3562 202.761C86.3609 202.821 86.3492 202.887 86.3212 202.957L85.2782 205.792C85.2455 205.88 85.1965 205.948 85.1312 205.995C85.0705 206.037 85.0005 206.058 84.9212 206.058C84.8419 206.058 84.7719 206.037 84.7112 205.995C84.6505 205.948 84.6039 205.88 84.5712 205.792L83.5352 202.95H83.8362L82.8072 205.792C82.7745 205.88 82.7279 205.948 82.6672 205.995C82.6065 206.037 82.5342 206.058 82.4502 206.058ZM88.5261 206.072C88.1947 206.072 87.9077 205.999 87.6651 205.855C87.4224 205.71 87.2334 205.507 87.0981 205.246C86.9674 204.98 86.9021 204.667 86.9021 204.308C86.9021 204.037 86.9394 203.794 87.0141 203.58C87.0887 203.36 87.1984 203.174 87.3431 203.02C87.4877 202.866 87.6581 202.749 87.8541 202.67C88.0547 202.586 88.2787 202.544 88.5261 202.544C88.8574 202.544 89.1444 202.616 89.3871 202.761C89.6297 202.905 89.8164 203.111 89.9471 203.377C90.0824 203.638 90.1501 203.948 90.1501 204.308C90.1501 204.578 90.1127 204.821 90.0381 205.036C89.9634 205.25 89.8537 205.437 89.7091 205.596C89.5644 205.75 89.3917 205.869 89.1911 205.953C88.9951 206.032 88.7734 206.072 88.5261 206.072ZM88.5261 205.617C88.7361 205.617 88.9204 205.565 89.0791 205.463C89.2377 205.36 89.3591 205.211 89.4431 205.015C89.5317 204.819 89.5761 204.583 89.5761 204.308C89.5761 203.883 89.4804 203.559 89.2891 203.335C89.1024 203.111 88.8481 202.999 88.5261 202.999C88.3114 202.999 88.1247 203.05 87.9661 203.153C87.8121 203.251 87.6907 203.398 87.6021 203.594C87.5181 203.785 87.4761 204.023 87.4761 204.308C87.4761 204.728 87.5717 205.052 87.7631 205.281C87.9544 205.505 88.2087 205.617 88.5261 205.617ZM91.2887 206.058C91.1954 206.058 91.1231 206.032 91.0717 205.981C91.0251 205.929 91.0017 205.857 91.0017 205.764V202.845C91.0017 202.751 91.0251 202.681 91.0717 202.635C91.1184 202.583 91.1861 202.558 91.2747 202.558C91.3634 202.558 91.4311 202.583 91.4777 202.635C91.5291 202.681 91.5547 202.751 91.5547 202.845V203.412H91.4847C91.5594 203.136 91.7017 202.924 91.9117 202.775C92.1217 202.625 92.3807 202.546 92.6887 202.537C92.7587 202.532 92.8147 202.548 92.8567 202.586C92.8987 202.618 92.9221 202.677 92.9267 202.761C92.9314 202.84 92.9127 202.903 92.8707 202.95C92.8287 202.996 92.7634 203.024 92.6747 203.034L92.5627 203.048C92.2454 203.076 92.0004 203.178 91.8277 203.356C91.6597 203.528 91.5757 203.766 91.5757 204.07V205.764C91.5757 205.857 91.5501 205.929 91.4987 205.981C91.4521 206.032 91.3821 206.058 91.2887 206.058ZM94.7645 206.072C94.4612 206.072 94.1952 205.999 93.9665 205.855C93.7425 205.71 93.5675 205.507 93.4415 205.246C93.3202 204.98 93.2595 204.667 93.2595 204.308C93.2595 203.944 93.3202 203.631 93.4415 203.37C93.5675 203.104 93.7425 202.901 93.9665 202.761C94.1952 202.616 94.4612 202.544 94.7645 202.544C95.0725 202.544 95.3362 202.621 95.5555 202.775C95.7748 202.929 95.9218 203.136 95.9965 203.398H95.9195V201.312C95.9195 201.218 95.9428 201.148 95.9895 201.102C96.0408 201.05 96.1132 201.025 96.2065 201.025C96.2952 201.025 96.3628 201.05 96.4095 201.102C96.4608 201.148 96.4865 201.218 96.4865 201.312V205.764C96.4865 205.857 96.4632 205.929 96.4165 205.981C96.3698 206.032 96.2998 206.058 96.2065 206.058C96.1178 206.058 96.0478 206.032 95.9965 205.981C95.9498 205.929 95.9265 205.857 95.9265 205.764V205.099L96.0035 205.197C95.9288 205.463 95.7795 205.675 95.5555 205.834C95.3362 205.992 95.0725 206.072 94.7645 206.072ZM94.8835 205.617C95.0935 205.617 95.2778 205.565 95.4365 205.463C95.5952 205.36 95.7165 205.211 95.8005 205.015C95.8892 204.819 95.9335 204.583 95.9335 204.308C95.9335 203.883 95.8378 203.559 95.6465 203.335C95.4598 203.111 95.2055 202.999 94.8835 202.999C94.6688 202.999 94.4822 203.05 94.3235 203.153C94.1695 203.251 94.0482 203.398 93.9595 203.594C93.8755 203.785 93.8335 204.023 93.8335 204.308C93.8335 204.728 93.9292 205.052 94.1205 205.281C94.3118 205.505 94.5662 205.617 94.8835 205.617Z" fill="black"/>
<path d="M68.8436 267.482C68.3583 267.482 67.9429 267.38 67.5976 267.174C67.2523 266.969 66.9863 266.677 66.7996 266.299C66.6176 265.921 66.5266 265.471 66.5266 264.948C66.5266 264.556 66.5779 264.206 66.6806 263.898C66.7879 263.586 66.9396 263.322 67.1356 263.107C67.3363 262.888 67.5813 262.72 67.8706 262.603C68.1599 262.482 68.4843 262.421 68.8436 262.421C69.1329 262.421 69.4083 262.463 69.6696 262.547C69.9309 262.627 70.1573 262.746 70.3486 262.904C70.4093 262.951 70.4489 263.005 70.4676 263.065C70.4909 263.121 70.4933 263.177 70.4746 263.233C70.4606 263.285 70.4326 263.329 70.3906 263.366C70.3533 263.399 70.3066 263.415 70.2506 263.415C70.1946 263.415 70.1316 263.392 70.0616 263.345C69.8936 263.21 69.7093 263.11 69.5086 263.044C69.3079 262.979 69.0909 262.946 68.8576 262.946C68.4889 262.946 68.1763 263.026 67.9196 263.184C67.6629 263.338 67.4693 263.565 67.3386 263.863C67.2079 264.162 67.1426 264.524 67.1426 264.948C67.1426 265.373 67.2079 265.737 67.3386 266.04C67.4693 266.339 67.6629 266.568 67.9196 266.726C68.1763 266.88 68.4889 266.957 68.8576 266.957C69.0863 266.957 69.3033 266.925 69.5086 266.859C69.7139 266.789 69.9029 266.687 70.0756 266.551C70.1456 266.505 70.2086 266.484 70.2646 266.488C70.3206 266.488 70.3673 266.505 70.4046 266.537C70.4419 266.57 70.4676 266.612 70.4816 266.663C70.5003 266.715 70.5003 266.768 70.4816 266.824C70.4676 266.88 70.4326 266.929 70.3766 266.971C70.1806 267.139 69.9496 267.268 69.6836 267.356C69.4223 267.44 69.1423 267.482 68.8436 267.482ZM72.5095 267.482C72.1781 267.482 71.8911 267.41 71.6485 267.265C71.4058 267.121 71.2168 266.918 71.0815 266.656C70.9508 266.39 70.8855 266.078 70.8855 265.718C70.8855 265.448 70.9228 265.205 70.9975 264.99C71.0721 264.771 71.1818 264.584 71.3265 264.43C71.4711 264.276 71.6415 264.16 71.8375 264.08C72.0381 263.996 72.2621 263.954 72.5095 263.954C72.8408 263.954 73.1278 264.027 73.3705 264.171C73.6131 264.316 73.7998 264.521 73.9305 264.787C74.0658 265.049 74.1335 265.359 74.1335 265.718C74.1335 265.989 74.0961 266.232 74.0215 266.446C73.9468 266.661 73.8371 266.848 73.6925 267.006C73.5478 267.16 73.3751 267.279 73.1745 267.363C72.9785 267.443 72.7568 267.482 72.5095 267.482ZM72.5095 267.027C72.7195 267.027 72.9038 266.976 73.0625 266.873C73.2211 266.771 73.3425 266.621 73.4265 266.425C73.5151 266.229 73.5595 265.994 73.5595 265.718C73.5595 265.294 73.4638 264.969 73.2725 264.745C73.0858 264.521 72.8315 264.409 72.5095 264.409C72.2948 264.409 72.1081 264.461 71.9495 264.563C71.7955 264.661 71.6741 264.808 71.5855 265.004C71.5015 265.196 71.4595 265.434 71.4595 265.718C71.4595 266.138 71.5551 266.463 71.7465 266.691C71.9378 266.915 72.1921 267.027 72.5095 267.027ZM75.2651 267.468C75.1718 267.468 75.1018 267.443 75.0551 267.391C75.0085 267.34 74.9851 267.268 74.9851 267.174V264.255C74.9851 264.162 75.0085 264.092 75.0551 264.045C75.1018 263.994 75.1695 263.968 75.2581 263.968C75.3468 263.968 75.4145 263.994 75.4611 264.045C75.5125 264.092 75.5381 264.162 75.5381 264.255V264.857L75.4611 264.773C75.5591 264.503 75.7178 264.3 75.9371 264.164C76.1611 264.024 76.4178 263.954 76.7071 263.954C76.9778 263.954 77.2018 264.003 77.3791 264.101C77.5611 264.199 77.6965 264.349 77.7851 264.549C77.8738 264.745 77.9181 264.995 77.9181 265.298V267.174C77.9181 267.268 77.8925 267.34 77.8411 267.391C77.7945 267.443 77.7268 267.468 77.6381 267.468C77.5448 267.468 77.4725 267.443 77.4211 267.391C77.3745 267.34 77.3511 267.268 77.3511 267.174V265.333C77.3511 265.016 77.2881 264.785 77.1621 264.64C77.0408 264.491 76.8448 264.416 76.5741 264.416C76.2615 264.416 76.0118 264.514 75.8251 264.71C75.6431 264.902 75.5521 265.158 75.5521 265.48V267.174C75.5521 267.37 75.4565 267.468 75.2651 267.468ZM79.4256 267.468C79.337 267.468 79.267 267.443 79.2156 267.391C79.169 267.34 79.1456 267.268 79.1456 267.174V264.458H78.6976C78.623 264.458 78.5623 264.44 78.5156 264.402C78.4736 264.36 78.4526 264.304 78.4526 264.234C78.4526 264.164 78.4736 264.111 78.5156 264.073C78.5623 264.036 78.623 264.017 78.6976 264.017H79.2996L79.1456 264.164V263.898C79.1456 263.46 79.2506 263.124 79.4606 262.89C79.6753 262.657 79.9903 262.524 80.4056 262.491L80.6156 262.47C80.6856 262.466 80.7416 262.477 80.7836 262.505C80.8256 262.529 80.8513 262.561 80.8606 262.603C80.8746 262.645 80.877 262.69 80.8676 262.736C80.8583 262.783 80.8373 262.823 80.8046 262.855C80.7766 262.888 80.7416 262.907 80.6996 262.911L80.4896 262.925C80.2143 262.944 80.016 263.03 79.8946 263.184C79.7733 263.334 79.7126 263.548 79.7126 263.828V264.122L79.6286 264.017H81.5326C81.6213 264.017 81.689 264.043 81.7356 264.094C81.787 264.146 81.8126 264.22 81.8126 264.318V267.146C81.8126 267.244 81.7893 267.321 81.7426 267.377C81.696 267.429 81.626 267.454 81.5326 267.454C81.4393 267.454 81.367 267.429 81.3156 267.377C81.269 267.321 81.2456 267.244 81.2456 267.146V264.458H79.7126V267.174C79.7126 267.37 79.617 267.468 79.4256 267.468ZM81.5396 263.198C81.423 263.198 81.332 263.168 81.2666 263.107C81.206 263.042 81.1756 262.956 81.1756 262.848C81.1756 262.736 81.206 262.652 81.2666 262.596C81.332 262.536 81.423 262.505 81.5396 262.505C81.6563 262.505 81.745 262.536 81.8056 262.596C81.871 262.652 81.9036 262.736 81.9036 262.848C81.9036 262.956 81.871 263.042 81.8056 263.107C81.745 263.168 81.6563 263.198 81.5396 263.198ZM83.1608 267.468C83.0675 267.468 82.9951 267.443 82.9438 267.391C82.8971 267.34 82.8738 267.268 82.8738 267.174V264.255C82.8738 264.162 82.8971 264.092 82.9438 264.045C82.9905 263.994 83.0581 263.968 83.1468 263.968C83.2355 263.968 83.3031 263.994 83.3498 264.045C83.4011 264.092 83.4268 264.162 83.4268 264.255V264.822H83.3568C83.4315 264.547 83.5738 264.335 83.7838 264.185C83.9938 264.036 84.2528 263.957 84.5608 263.947C84.6308 263.943 84.6868 263.959 84.7288 263.996C84.7708 264.029 84.7941 264.087 84.7988 264.171C84.8035 264.251 84.7848 264.314 84.7428 264.36C84.7008 264.407 84.6355 264.435 84.5468 264.444L84.4348 264.458C84.1175 264.486 83.8725 264.589 83.6998 264.766C83.5318 264.939 83.4478 265.177 83.4478 265.48V267.174C83.4478 267.268 83.4221 267.34 83.3708 267.391C83.3241 267.443 83.2541 267.468 83.1608 267.468ZM85.6766 267.468C85.5833 267.468 85.5133 267.443 85.4666 267.391C85.4199 267.34 85.3966 267.268 85.3966 267.174V264.255C85.3966 264.162 85.4199 264.092 85.4666 264.045C85.5133 263.994 85.5809 263.968 85.6696 263.968C85.7583 263.968 85.8259 263.994 85.8726 264.045C85.9239 264.092 85.9496 264.162 85.9496 264.255V264.871L85.8726 264.773C85.9613 264.512 86.1036 264.311 86.2996 264.171C86.5003 264.027 86.7383 263.954 87.0136 263.954C87.3029 263.954 87.5363 264.024 87.7136 264.164C87.8956 264.3 88.0169 264.512 88.0776 264.801H87.9726C88.0566 264.54 88.2059 264.335 88.4206 264.185C88.6399 264.031 88.8943 263.954 89.1836 263.954C89.4403 263.954 89.6503 264.003 89.8136 264.101C89.9816 264.199 90.1076 264.349 90.1916 264.549C90.2756 264.745 90.3176 264.995 90.3176 265.298V267.174C90.3176 267.268 90.2919 267.34 90.2406 267.391C90.1939 267.443 90.1239 267.468 90.0306 267.468C89.9419 267.468 89.8719 267.443 89.8206 267.391C89.7739 267.34 89.7506 267.268 89.7506 267.174V265.326C89.7506 265.014 89.6969 264.785 89.5896 264.64C89.4823 264.491 89.3003 264.416 89.0436 264.416C88.7636 264.416 88.5419 264.514 88.3786 264.71C88.2199 264.902 88.1406 265.163 88.1406 265.494V267.174C88.1406 267.268 88.1149 267.34 88.0636 267.391C88.0169 267.443 87.9469 267.468 87.8536 267.468C87.7649 267.468 87.6949 267.443 87.6436 267.391C87.5969 267.34 87.5736 267.268 87.5736 267.174V265.326C87.5736 265.014 87.5176 264.785 87.4056 264.64C87.2983 264.491 87.1186 264.416 86.8666 264.416C86.5866 264.416 86.3649 264.514 86.2016 264.71C86.0429 264.902 85.9636 265.163 85.9636 265.494V267.174C85.9636 267.37 85.8679 267.468 85.6766 267.468ZM93.5464 267.468C93.4531 267.468 93.3807 267.443 93.3294 267.391C93.2827 267.335 93.2594 267.261 93.2594 267.167V262.778C93.2594 262.68 93.2851 262.608 93.3364 262.561C93.3877 262.51 93.4601 262.484 93.5534 262.484H95.2124C95.7397 262.484 96.1457 262.615 96.4304 262.876C96.7151 263.133 96.8574 263.497 96.8574 263.968C96.8574 264.435 96.7151 264.799 96.4304 265.06C96.1457 265.322 95.7397 265.452 95.2124 265.452H93.8334V267.167C93.8334 267.261 93.8101 267.335 93.7634 267.391C93.7167 267.443 93.6444 267.468 93.5464 267.468ZM93.8334 264.969H95.1424C95.5204 264.969 95.8051 264.885 95.9964 264.717C96.1924 264.545 96.2904 264.295 96.2904 263.968C96.2904 263.637 96.1924 263.387 95.9964 263.219C95.8051 263.047 95.5204 262.96 95.1424 262.96H93.8334V264.969ZM98.5122 267.482C98.2788 267.482 98.0688 267.438 97.8822 267.349C97.7002 267.256 97.5555 267.13 97.4482 266.971C97.3408 266.813 97.2872 266.635 97.2872 266.439C97.2872 266.187 97.3502 265.989 97.4762 265.844C97.6068 265.7 97.8192 265.597 98.1132 265.536C98.4118 265.476 98.8178 265.445 99.3312 265.445H99.6462V265.816H99.3382C98.9602 265.816 98.6615 265.835 98.4422 265.872C98.2275 265.905 98.0758 265.963 97.9872 266.047C97.9032 266.131 97.8612 266.25 97.8612 266.404C97.8612 266.596 97.9265 266.752 98.0572 266.873C98.1925 266.995 98.3745 267.055 98.6032 267.055C98.7898 267.055 98.9532 267.011 99.0932 266.922C99.2378 266.834 99.3498 266.712 99.4292 266.558C99.5132 266.404 99.5552 266.227 99.5552 266.026V265.228C99.5552 264.939 99.4968 264.731 99.3802 264.605C99.2635 264.475 99.0722 264.409 98.8062 264.409C98.6428 264.409 98.4795 264.43 98.3162 264.472C98.1528 264.514 97.9802 264.582 97.7982 264.675C97.7328 264.708 97.6768 264.72 97.6302 264.71C97.5835 264.696 97.5462 264.671 97.5182 264.633C97.4902 264.596 97.4738 264.554 97.4692 264.507C97.4645 264.456 97.4738 264.407 97.4972 264.36C97.5252 264.314 97.5672 264.276 97.6232 264.248C97.8285 264.146 98.0315 264.071 98.2322 264.024C98.4328 263.978 98.6242 263.954 98.8062 263.954C99.1002 263.954 99.3428 264.003 99.5342 264.101C99.7255 264.195 99.8678 264.339 99.9612 264.535C100.055 264.727 100.101 264.974 100.101 265.277V267.174C100.101 267.268 100.078 267.34 100.031 267.391C99.9892 267.443 99.9262 267.468 99.8422 267.468C99.7535 267.468 99.6858 267.443 99.6392 267.391C99.5925 267.34 99.5692 267.268 99.5692 267.174V266.628H99.6322C99.5948 266.806 99.5225 266.957 99.4152 267.083C99.3125 267.209 99.1842 267.307 99.0302 267.377C98.8762 267.447 98.7035 267.482 98.5122 267.482ZM102.301 267.482C102.091 267.482 101.879 267.457 101.664 267.405C101.454 267.354 101.258 267.265 101.076 267.139C101.029 267.107 100.997 267.069 100.978 267.027C100.959 266.981 100.952 266.936 100.957 266.894C100.966 266.848 100.985 266.808 101.013 266.775C101.046 266.743 101.083 266.724 101.125 266.719C101.172 266.71 101.223 266.719 101.279 266.747C101.461 266.859 101.636 266.939 101.804 266.985C101.977 267.027 102.147 267.048 102.315 267.048C102.581 267.048 102.782 266.999 102.917 266.901C103.052 266.803 103.12 266.67 103.12 266.502C103.12 266.372 103.076 266.269 102.987 266.194C102.898 266.115 102.758 266.054 102.567 266.012L101.93 265.872C101.636 265.812 101.417 265.707 101.272 265.557C101.132 265.408 101.062 265.214 101.062 264.976C101.062 264.766 101.116 264.587 101.223 264.437C101.335 264.283 101.491 264.164 101.692 264.08C101.893 263.996 102.126 263.954 102.392 263.954C102.597 263.954 102.791 263.982 102.973 264.038C103.16 264.09 103.328 264.174 103.477 264.29C103.524 264.323 103.554 264.363 103.568 264.409C103.587 264.451 103.589 264.496 103.575 264.542C103.566 264.584 103.545 264.622 103.512 264.654C103.479 264.682 103.44 264.699 103.393 264.703C103.346 264.708 103.297 264.694 103.246 264.661C103.106 264.568 102.964 264.5 102.819 264.458C102.674 264.412 102.532 264.388 102.392 264.388C102.131 264.388 101.932 264.44 101.797 264.542C101.662 264.645 101.594 264.78 101.594 264.948C101.594 265.079 101.636 265.186 101.72 265.27C101.804 265.354 101.935 265.415 102.112 265.452L102.749 265.585C103.052 265.651 103.279 265.756 103.428 265.9C103.582 266.04 103.659 266.232 103.659 266.474C103.659 266.782 103.535 267.027 103.288 267.209C103.041 267.391 102.712 267.482 102.301 267.482ZM105.671 267.482C105.461 267.482 105.249 267.457 105.034 267.405C104.824 267.354 104.628 267.265 104.446 267.139C104.4 267.107 104.367 267.069 104.348 267.027C104.33 266.981 104.323 266.936 104.327 266.894C104.337 266.848 104.355 266.808 104.383 266.775C104.416 266.743 104.453 266.724 104.495 266.719C104.542 266.71 104.593 266.719 104.649 266.747C104.831 266.859 105.006 266.939 105.174 266.985C105.347 267.027 105.517 267.048 105.685 267.048C105.951 267.048 106.152 266.999 106.287 266.901C106.423 266.803 106.49 266.67 106.49 266.502C106.49 266.372 106.446 266.269 106.357 266.194C106.269 266.115 106.129 266.054 105.937 266.012L105.3 265.872C105.006 265.812 104.787 265.707 104.642 265.557C104.502 265.408 104.432 265.214 104.432 264.976C104.432 264.766 104.486 264.587 104.593 264.437C104.705 264.283 104.862 264.164 105.062 264.08C105.263 263.996 105.496 263.954 105.762 263.954C105.968 263.954 106.161 263.982 106.343 264.038C106.53 264.09 106.698 264.174 106.847 264.29C106.894 264.323 106.924 264.363 106.938 264.409C106.957 264.451 106.959 264.496 106.945 264.542C106.936 264.584 106.915 264.622 106.882 264.654C106.85 264.682 106.81 264.699 106.763 264.703C106.717 264.708 106.668 264.694 106.616 264.661C106.476 264.568 106.334 264.5 106.189 264.458C106.045 264.412 105.902 264.388 105.762 264.388C105.501 264.388 105.303 264.44 105.167 264.542C105.032 264.645 104.964 264.78 104.964 264.948C104.964 265.079 105.006 265.186 105.09 265.27C105.174 265.354 105.305 265.415 105.482 265.452L106.119 265.585C106.423 265.651 106.649 265.756 106.798 265.9C106.952 266.04 107.029 266.232 107.029 266.474C107.029 266.782 106.906 267.027 106.658 267.209C106.411 267.391 106.082 267.482 105.671 267.482ZM109.001 267.468C108.922 267.468 108.852 267.447 108.791 267.405C108.73 267.363 108.681 267.296 108.644 267.202L107.601 264.367C107.573 264.288 107.564 264.218 107.573 264.157C107.587 264.097 107.617 264.05 107.664 264.017C107.711 263.985 107.769 263.968 107.839 263.968C107.909 263.968 107.965 263.985 108.007 264.017C108.054 264.05 108.091 264.111 108.119 264.199L109.099 266.999H108.931L109.939 264.199C109.972 264.115 110.011 264.057 110.058 264.024C110.109 263.987 110.175 263.968 110.254 263.968C110.329 263.968 110.392 263.987 110.443 264.024C110.494 264.062 110.534 264.12 110.562 264.199L111.549 266.999H111.388L112.382 264.185C112.415 264.101 112.454 264.045 112.501 264.017C112.548 263.985 112.604 263.968 112.669 263.968C112.744 263.968 112.8 263.987 112.837 264.024C112.879 264.062 112.902 264.111 112.907 264.171C112.912 264.232 112.9 264.297 112.872 264.367L111.829 267.202C111.796 267.291 111.747 267.359 111.682 267.405C111.621 267.447 111.551 267.468 111.472 267.468C111.393 267.468 111.323 267.447 111.262 267.405C111.201 267.359 111.155 267.291 111.122 267.202L110.086 264.36H110.387L109.358 267.202C109.325 267.291 109.279 267.359 109.218 267.405C109.157 267.447 109.085 267.468 109.001 267.468ZM115.077 267.482C114.746 267.482 114.459 267.41 114.216 267.265C113.973 267.121 113.784 266.918 113.649 266.656C113.518 266.39 113.453 266.078 113.453 265.718C113.453 265.448 113.49 265.205 113.565 264.99C113.64 264.771 113.749 264.584 113.894 264.43C114.039 264.276 114.209 264.16 114.405 264.08C114.606 263.996 114.83 263.954 115.077 263.954C115.408 263.954 115.695 264.027 115.938 264.171C116.181 264.316 116.367 264.521 116.498 264.787C116.633 265.049 116.701 265.359 116.701 265.718C116.701 265.989 116.664 266.232 116.589 266.446C116.514 266.661 116.405 266.848 116.26 267.006C116.115 267.16 115.943 267.279 115.742 267.363C115.546 267.443 115.324 267.482 115.077 267.482ZM115.077 267.027C115.287 267.027 115.471 266.976 115.63 266.873C115.789 266.771 115.91 266.621 115.994 266.425C116.083 266.229 116.127 265.994 116.127 265.718C116.127 265.294 116.031 264.969 115.84 264.745C115.653 264.521 115.399 264.409 115.077 264.409C114.862 264.409 114.676 264.461 114.517 264.563C114.363 264.661 114.242 264.808 114.153 265.004C114.069 265.196 114.027 265.434 114.027 265.718C114.027 266.138 114.123 266.463 114.314 266.691C114.505 266.915 114.76 267.027 115.077 267.027ZM117.84 267.468C117.746 267.468 117.674 267.443 117.623 267.391C117.576 267.34 117.553 267.268 117.553 267.174V264.255C117.553 264.162 117.576 264.092 117.623 264.045C117.669 263.994 117.737 263.968 117.826 263.968C117.914 263.968 117.982 263.994 118.029 264.045C118.08 264.092 118.106 264.162 118.106 264.255V264.822H118.036C118.11 264.547 118.253 264.335 118.463 264.185C118.673 264.036 118.932 263.957 119.24 263.947C119.31 263.943 119.366 263.959 119.408 263.996C119.45 264.029 119.473 264.087 119.478 264.171C119.482 264.251 119.464 264.314 119.422 264.36C119.38 264.407 119.314 264.435 119.226 264.444L119.114 264.458C118.796 264.486 118.551 264.589 118.379 264.766C118.211 264.939 118.127 265.177 118.127 265.48V267.174C118.127 267.268 118.101 267.34 118.05 267.391C118.003 267.443 117.933 267.468 117.84 267.468ZM121.315 267.482C121.012 267.482 120.746 267.41 120.517 267.265C120.293 267.121 120.118 266.918 119.992 266.656C119.871 266.39 119.81 266.078 119.81 265.718C119.81 265.354 119.871 265.042 119.992 264.78C120.118 264.514 120.293 264.311 120.517 264.171C120.746 264.027 121.012 263.954 121.315 263.954C121.623 263.954 121.887 264.031 122.106 264.185C122.326 264.339 122.473 264.547 122.547 264.808H122.47V262.722C122.47 262.629 122.494 262.559 122.54 262.512C122.592 262.461 122.664 262.435 122.757 262.435C122.846 262.435 122.914 262.461 122.96 262.512C123.012 262.559 123.037 262.629 123.037 262.722V267.174C123.037 267.268 123.014 267.34 122.967 267.391C122.921 267.443 122.851 267.468 122.757 267.468C122.669 267.468 122.599 267.443 122.547 267.391C122.501 267.34 122.477 267.268 122.477 267.174V266.509L122.554 266.607C122.48 266.873 122.33 267.086 122.106 267.244C121.887 267.403 121.623 267.482 121.315 267.482ZM121.434 267.027C121.644 267.027 121.829 266.976 121.987 266.873C122.146 266.771 122.267 266.621 122.351 266.425C122.44 266.229 122.484 265.994 122.484 265.718C122.484 265.294 122.389 264.969 122.197 264.745C122.011 264.521 121.756 264.409 121.434 264.409C121.22 264.409 121.033 264.461 120.874 264.563C120.72 264.661 120.599 264.808 120.51 265.004C120.426 265.196 120.384 265.434 120.384 265.718C120.384 266.138 120.48 266.463 120.671 266.691C120.863 266.915 121.117 267.027 121.434 267.027Z" fill="black"/>
<path d="M93.6965 342.991C93.5725 342.991 93.4765 342.957 93.4085 342.889C93.3405 342.817 93.3065 342.719 93.3065 342.595V339.133C93.3065 339.005 93.3385 338.909 93.4025 338.845C93.4705 338.777 93.5665 338.743 93.6905 338.743C93.8145 338.743 93.9085 338.777 93.9725 338.845C94.0405 338.909 94.0745 339.005 94.0745 339.133V342.337H95.8145C95.9225 342.337 96.0045 342.365 96.0605 342.421C96.1205 342.477 96.1505 342.557 96.1505 342.661C96.1505 342.765 96.1205 342.847 96.0605 342.907C96.0045 342.963 95.9225 342.991 95.8145 342.991H93.6965ZM97.9123 343.051C97.6083 343.051 97.3443 342.989 97.1203 342.865C96.8963 342.741 96.7223 342.565 96.5983 342.337C96.4743 342.105 96.4123 341.833 96.4123 341.521C96.4123 341.285 96.4463 341.075 96.5143 340.891C96.5863 340.703 96.6883 340.543 96.8203 340.411C96.9523 340.275 97.1103 340.173 97.2943 340.105C97.4783 340.033 97.6843 339.997 97.9123 339.997C98.2163 339.997 98.4803 340.059 98.7043 340.183C98.9283 340.307 99.1023 340.483 99.2263 340.711C99.3503 340.939 99.4123 341.209 99.4123 341.521C99.4123 341.757 99.3763 341.969 99.3043 342.157C99.2363 342.345 99.1363 342.507 99.0043 342.643C98.8723 342.775 98.7143 342.877 98.5303 342.949C98.3463 343.017 98.1403 343.051 97.9123 343.051ZM97.9123 342.481C98.0603 342.481 98.1903 342.445 98.3023 342.373C98.4143 342.301 98.5003 342.195 98.5603 342.055C98.6243 341.911 98.6563 341.733 98.6563 341.521C98.6563 341.201 98.5883 340.963 98.4523 340.807C98.3163 340.647 98.1363 340.567 97.9123 340.567C97.7643 340.567 97.6343 340.603 97.5223 340.675C97.4103 340.743 97.3223 340.849 97.2583 340.993C97.1983 341.133 97.1683 341.309 97.1683 341.521C97.1683 341.837 97.2363 342.077 97.3723 342.241C97.5083 342.401 97.6883 342.481 97.9123 342.481ZM101.399 344.131C101.183 344.131 100.973 344.111 100.769 344.071C100.569 344.031 100.387 343.969 100.223 343.885C100.147 343.845 100.095 343.797 100.067 343.741C100.043 343.685 100.035 343.627 100.043 343.567C100.055 343.511 100.079 343.461 100.115 343.417C100.155 343.373 100.203 343.343 100.259 343.327C100.315 343.311 100.373 343.319 100.433 343.351C100.609 343.439 100.775 343.495 100.931 343.519C101.091 343.547 101.227 343.561 101.339 343.561C101.607 343.561 101.807 343.495 101.939 343.363C102.075 343.235 102.143 343.043 102.143 342.787V342.247H102.197C102.137 342.451 102.011 342.615 101.819 342.739C101.631 342.859 101.417 342.919 101.177 342.919C100.913 342.919 100.683 342.859 100.487 342.739C100.291 342.615 100.139 342.443 100.031 342.223C99.9234 342.003 99.8694 341.747 99.8694 341.455C99.8694 341.235 99.8994 341.037 99.9594 340.861C100.023 340.681 100.111 340.527 100.223 340.399C100.339 340.271 100.477 340.173 100.637 340.105C100.801 340.033 100.981 339.997 101.177 339.997C101.425 339.997 101.641 340.059 101.825 340.183C102.013 340.303 102.135 340.463 102.191 340.663L102.131 340.813V340.387C102.131 340.263 102.163 340.169 102.227 340.105C102.295 340.041 102.387 340.009 102.503 340.009C102.623 340.009 102.715 340.041 102.779 340.105C102.843 340.169 102.875 340.263 102.875 340.387V342.697C102.875 343.173 102.749 343.531 102.497 343.771C102.245 344.011 101.879 344.131 101.399 344.131ZM101.381 342.349C101.537 342.349 101.671 342.313 101.783 342.241C101.895 342.169 101.981 342.067 102.041 341.935C102.105 341.799 102.137 341.639 102.137 341.455C102.137 341.179 102.069 340.963 101.933 340.807C101.797 340.647 101.613 340.567 101.381 340.567C101.225 340.567 101.091 340.603 100.979 340.675C100.867 340.747 100.779 340.849 100.715 340.981C100.655 341.113 100.625 341.271 100.625 341.455C100.625 341.731 100.693 341.949 100.829 342.109C100.965 342.269 101.149 342.349 101.381 342.349ZM104.108 343.039C103.984 343.039 103.888 343.005 103.82 342.937C103.756 342.865 103.724 342.767 103.724 342.643V339.109C103.724 338.981 103.756 338.883 103.82 338.815C103.888 338.747 103.984 338.713 104.108 338.713C104.232 338.713 104.326 338.747 104.39 338.815C104.458 338.883 104.492 338.981 104.492 339.109V342.643C104.492 342.767 104.46 342.865 104.396 342.937C104.332 343.005 104.236 343.039 104.108 343.039ZM105.718 343.039C105.598 343.039 105.506 343.007 105.442 342.943C105.378 342.875 105.346 342.779 105.346 342.655V340.387C105.346 340.263 105.378 340.169 105.442 340.105C105.506 340.041 105.596 340.009 105.712 340.009C105.828 340.009 105.918 340.041 105.982 340.105C106.046 340.169 106.078 340.263 106.078 340.387V340.795L106.012 340.645C106.1 340.433 106.236 340.273 106.42 340.165C106.608 340.053 106.82 339.997 107.056 339.997C107.292 339.997 107.486 340.041 107.638 340.129C107.79 340.217 107.904 340.351 107.98 340.531C108.056 340.707 108.094 340.931 108.094 341.203V342.655C108.094 342.779 108.062 342.875 107.998 342.943C107.934 343.007 107.842 343.039 107.722 343.039C107.602 343.039 107.508 343.007 107.44 342.943C107.376 342.875 107.344 342.779 107.344 342.655V341.239C107.344 341.011 107.3 340.845 107.212 340.741C107.128 340.637 106.996 340.585 106.816 340.585C106.596 340.585 106.42 340.655 106.288 340.795C106.16 340.931 106.096 341.113 106.096 341.341V342.655C106.096 342.911 105.97 343.039 105.718 343.039Z" fill="white"/>
<path d="M83.7468 236.034C83.6601 235.988 83.6101 235.921 83.5968 235.834C83.5901 235.748 83.6168 235.654 83.6768 235.554L84.3768 234.454L84.4868 234.614L83.1768 234.664C83.0568 234.664 82.9601 234.641 82.8868 234.594C82.8201 234.541 82.7868 234.464 82.7868 234.364C82.7868 234.271 82.8201 234.201 82.8868 234.154C82.9601 234.101 83.0568 234.078 83.1768 234.084L84.4868 234.134L84.3768 234.284L83.6868 233.174C83.6201 233.074 83.5935 232.981 83.6068 232.894C83.6201 232.808 83.6668 232.741 83.7468 232.694C83.8268 232.648 83.9068 232.644 83.9868 232.684C84.0735 232.724 84.1435 232.798 84.1968 232.904L84.7668 234.004H84.6668L85.2368 232.904C85.2968 232.798 85.3668 232.724 85.4468 232.684C85.5335 232.644 85.6168 232.648 85.6968 232.694C85.7768 232.748 85.8201 232.818 85.8268 232.904C85.8401 232.991 85.8135 233.084 85.7468 233.184L85.0568 234.284L84.9468 234.134L86.2568 234.084C86.3768 234.078 86.4701 234.101 86.5368 234.154C86.6101 234.201 86.6468 234.271 86.6468 234.364C86.6468 234.464 86.6101 234.541 86.5368 234.594C86.4701 234.641 86.3768 234.664 86.2568 234.664L84.9468 234.614L85.0568 234.454L85.7468 235.554C85.8135 235.654 85.8401 235.748 85.8268 235.834C85.8201 235.914 85.7768 235.978 85.6968 236.024C85.6101 236.078 85.5235 236.084 85.4368 236.044C85.3568 236.004 85.2901 235.934 85.2368 235.834L84.6668 234.734H84.7668L84.1868 235.834C84.1335 235.941 84.0668 236.014 83.9868 236.054C83.9068 236.094 83.8268 236.088 83.7468 236.034ZM91.5488 236.034C91.4621 235.988 91.4121 235.921 91.3988 235.834C91.3921 235.748 91.4188 235.654 91.4788 235.554L92.1788 234.454L92.2888 234.614L90.9788 234.664C90.8588 234.664 90.7621 234.641 90.6888 234.594C90.6221 234.541 90.5888 234.464 90.5888 234.364C90.5888 234.271 90.6221 234.201 90.6888 234.154C90.7621 234.101 90.8588 234.078 90.9788 234.084L92.2888 234.134L92.1788 234.284L91.4888 233.174C91.4221 233.074 91.3954 232.981 91.4088 232.894C91.4221 232.808 91.4688 232.741 91.5488 232.694C91.6288 232.648 91.7088 232.644 91.7888 232.684C91.8754 232.724 91.9454 232.798 91.9988 232.904L92.5688 234.004H92.4688L93.0388 232.904C93.0988 232.798 93.1688 232.724 93.2488 232.684C93.3354 232.644 93.4188 232.648 93.4988 232.694C93.5788 232.748 93.6221 232.818 93.6288 232.904C93.6421 232.991 93.6154 233.084 93.5488 233.184L92.8588 234.284L92.7488 234.134L94.0588 234.084C94.1788 234.078 94.2721 234.101 94.3388 234.154C94.4121 234.201 94.4488 234.271 94.4488 234.364C94.4488 234.464 94.4121 234.541 94.3388 234.594C94.2721 234.641 94.1788 234.664 94.0588 234.664L92.7488 234.614L92.8588 234.454L93.5488 235.554C93.6154 235.654 93.6421 235.748 93.6288 235.834C93.6221 235.914 93.5788 235.978 93.4988 236.024C93.4121 236.078 93.3254 236.084 93.2388 236.044C93.1588 236.004 93.0921 235.934 93.0388 235.834L92.4688 234.734H92.5688L91.9888 235.834C91.9354 235.941 91.8688 236.014 91.7888 236.054C91.7088 236.094 91.6288 236.088 91.5488 236.034ZM99.3507 236.034C99.264 235.988 99.214 235.921 99.2007 235.834C99.194 235.748 99.2207 235.654 99.2807 235.554L99.9807 234.454L100.091 234.614L98.7807 234.664C98.6607 234.664 98.564 234.641 98.4907 234.594C98.424 234.541 98.3907 234.464 98.3907 234.364C98.3907 234.271 98.424 234.201 98.4907 234.154C98.564 234.101 98.6607 234.078 98.7807 234.084L100.091 234.134L99.9807 234.284L99.2907 233.174C99.224 233.074 99.1974 232.981 99.2107 232.894C99.224 232.808 99.2707 232.741 99.3507 232.694C99.4307 232.648 99.5107 232.644 99.5907 232.684C99.6774 232.724 99.7474 232.798 99.8007 232.904L100.371 234.004H100.271L100.841 232.904C100.901 232.798 100.971 232.724 101.051 232.684C101.137 232.644 101.221 232.648 101.301 232.694C101.381 232.748 101.424 232.818 101.431 232.904C101.444 232.991 101.417 233.084 101.351 233.184L100.661 234.284L100.551 234.134L101.861 234.084C101.981 234.078 102.074 234.101 102.141 234.154C102.214 234.201 102.251 234.271 102.251 234.364C102.251 234.464 102.214 234.541 102.141 234.594C102.074 234.641 101.981 234.664 101.861 234.664L100.551 234.614L100.661 234.454L101.351 235.554C101.417 235.654 101.444 235.748 101.431 235.834C101.424 235.914 101.381 235.978 101.301 236.024C101.214 236.078 101.127 236.084 101.041 236.044C100.961 236.004 100.894 235.934 100.841 235.834L100.271 234.734H100.371L99.7907 235.834C99.7374 235.941 99.6707 236.014 99.5907 236.054C99.5107 236.094 99.4307 236.088 99.3507 236.034ZM107.153 236.034C107.066 235.988 107.016 235.921 107.003 235.834C106.996 235.748 107.023 235.654 107.083 235.554L107.783 234.454L107.893 234.614L106.583 234.664C106.463 234.664 106.366 234.641 106.293 234.594C106.226 234.541 106.193 234.464 106.193 234.364C106.193 234.271 106.226 234.201 106.293 234.154C106.366 234.101 106.463 234.078 106.583 234.084L107.893 234.134L107.783 234.284L107.093 233.174C107.026 233.074 106.999 232.981 107.013 232.894C107.026 232.808 107.073 232.741 107.153 232.694C107.233 232.648 107.313 232.644 107.393 232.684C107.479 232.724 107.549 232.798 107.603 232.904L108.173 234.004H108.073L108.643 232.904C108.703 232.798 108.773 232.724 108.853 232.684C108.939 232.644 109.023 232.648 109.103 232.694C109.183 232.748 109.226 232.818 109.233 232.904C109.246 232.991 109.219 233.084 109.153 233.184L108.463 234.284L108.353 234.134L109.663 234.084C109.783 234.078 109.876 234.101 109.943 234.154C110.016 234.201 110.053 234.271 110.053 234.364C110.053 234.464 110.016 234.541 109.943 234.594C109.876 234.641 109.783 234.664 109.663 234.664L108.353 234.614L108.463 234.454L109.153 235.554C109.219 235.654 109.246 235.748 109.233 235.834C109.226 235.914 109.183 235.978 109.103 236.024C109.016 236.078 108.929 236.084 108.843 236.044C108.763 236.004 108.696 235.934 108.643 235.834L108.073 234.734H108.173L107.593 235.834C107.539 235.941 107.473 236.014 107.393 236.054C107.313 236.094 107.233 236.088 107.153 236.034ZM114.955 236.034C114.868 235.988 114.818 235.921 114.805 235.834C114.798 235.748 114.825 235.654 114.885 235.554L115.585 234.454L115.695 234.614L114.385 234.664C114.265 234.664 114.168 234.641 114.095 234.594C114.028 234.541 113.995 234.464 113.995 234.364C113.995 234.271 114.028 234.201 114.095 234.154C114.168 234.101 114.265 234.078 114.385 234.084L115.695 234.134L115.585 234.284L114.895 233.174C114.828 233.074 114.801 232.981 114.815 232.894C114.828 232.808 114.875 232.741 114.955 232.694C115.035 232.648 115.115 232.644 115.195 232.684C115.281 232.724 115.351 232.798 115.405 232.904L115.975 234.004H115.875L116.445 232.904C116.505 232.798 116.575 232.724 116.655 232.684C116.741 232.644 116.825 232.648 116.905 232.694C116.985 232.748 117.028 232.818 117.035 232.904C117.048 232.991 117.021 233.084 116.955 233.184L116.265 234.284L116.155 234.134L117.465 234.084C117.585 234.078 117.678 234.101 117.745 234.154C117.818 234.201 117.855 234.271 117.855 234.364C117.855 234.464 117.818 234.541 117.745 234.594C117.678 234.641 117.585 234.664 117.465 234.664L116.155 234.614L116.265 234.454L116.955 235.554C117.021 235.654 117.048 235.748 117.035 235.834C117.028 235.914 116.985 235.978 116.905 236.024C116.818 236.078 116.731 236.084 116.645 236.044C116.565 236.004 116.498 235.934 116.445 235.834L115.875 234.734H115.975L115.395 235.834C115.341 235.941 115.275 236.014 115.195 236.054C115.115 236.094 115.035 236.088 114.955 236.034ZM122.757 236.034C122.67 235.988 122.62 235.921 122.607 235.834C122.6 235.748 122.627 235.654 122.687 235.554L123.387 234.454L123.497 234.614L122.187 234.664C122.067 234.664 121.97 234.641 121.897 234.594C121.83 234.541 121.797 234.464 121.797 234.364C121.797 234.271 121.83 234.201 121.897 234.154C121.97 234.101 122.067 234.078 122.187 234.084L123.497 234.134L123.387 234.284L122.697 233.174C122.63 233.074 122.603 232.981 122.617 232.894C122.63 232.808 122.677 232.741 122.757 232.694C122.837 232.648 122.917 232.644 122.997 232.684C123.083 232.724 123.153 232.798 123.207 232.904L123.777 234.004H123.677L124.247 232.904C124.307 232.798 124.377 232.724 124.457 232.684C124.543 232.644 124.627 232.648 124.707 232.694C124.787 232.748 124.83 232.818 124.837 232.904C124.85 232.991 124.823 233.084 124.757 233.184L124.067 234.284L123.957 234.134L125.267 234.084C125.387 234.078 125.48 234.101 125.547 234.154C125.62 234.201 125.657 234.271 125.657 234.364C125.657 234.464 125.62 234.541 125.547 234.594C125.48 234.641 125.387 234.664 125.267 234.664L123.957 234.614L124.067 234.454L124.757 235.554C124.823 235.654 124.85 235.748 124.837 235.834C124.83 235.914 124.787 235.978 124.707 236.024C124.62 236.078 124.533 236.084 124.447 236.044C124.367 236.004 124.3 235.934 124.247 235.834L123.677 234.734H123.777L123.197 235.834C123.143 235.941 123.077 236.014 122.997 236.054C122.917 236.094 122.837 236.088 122.757 236.034ZM130.559 236.034C130.472 235.988 130.422 235.921 130.409 235.834C130.402 235.748 130.429 235.654 130.489 235.554L131.189 234.454L131.299 234.614L129.989 234.664C129.869 234.664 129.772 234.641 129.699 234.594C129.632 234.541 129.599 234.464 129.599 234.364C129.599 234.271 129.632 234.201 129.699 234.154C129.772 234.101 129.869 234.078 129.989 234.084L131.299 234.134L131.189 234.284L130.499 233.174C130.432 233.074 130.405 232.981 130.419 232.894C130.432 232.808 130.479 232.741 130.559 232.694C130.639 232.648 130.719 232.644 130.799 232.684C130.885 232.724 130.955 232.798 131.009 232.904L131.579 234.004H131.479L132.049 232.904C132.109 232.798 132.179 232.724 132.259 232.684C132.345 232.644 132.429 232.648 132.509 232.694C132.589 232.748 132.632 232.818 132.639 232.904C132.652 232.991 132.625 233.084 132.559 233.184L131.869 234.284L131.759 234.134L133.069 234.084C133.189 234.078 133.282 234.101 133.349 234.154C133.422 234.201 133.459 234.271 133.459 234.364C133.459 234.464 133.422 234.541 133.349 234.594C133.282 234.641 133.189 234.664 133.069 234.664L131.759 234.614L131.869 234.454L132.559 235.554C132.625 235.654 132.652 235.748 132.639 235.834C132.632 235.914 132.589 235.978 132.509 236.024C132.422 236.078 132.335 236.084 132.249 236.044C132.169 236.004 132.102 235.934 132.049 235.834L131.479 234.734H131.579L130.999 235.834C130.945 235.941 130.879 236.014 130.799 236.054C130.719 236.094 130.639 236.088 130.559 236.034ZM138.36 236.034C138.274 235.988 138.224 235.921 138.21 235.834C138.204 235.748 138.23 235.654 138.29 235.554L138.99 234.454L139.1 234.614L137.79 234.664C137.67 234.664 137.574 234.641 137.5 234.594C137.434 234.541 137.4 234.464 137.4 234.364C137.4 234.271 137.434 234.201 137.5 234.154C137.574 234.101 137.67 234.078 137.79 234.084L139.1 234.134L138.99 234.284L138.3 233.174C138.234 233.074 138.207 232.981 138.22 232.894C138.234 232.808 138.28 232.741 138.36 232.694C138.44 232.648 138.52 232.644 138.6 232.684C138.687 232.724 138.757 232.798 138.81 232.904L139.38 234.004H139.28L139.85 232.904C139.91 232.798 139.98 232.724 140.06 232.684C140.147 232.644 140.23 232.648 140.31 232.694C140.39 232.748 140.434 232.818 140.44 232.904C140.454 232.991 140.427 233.084 140.36 233.184L139.67 234.284L139.56 234.134L140.87 234.084C140.99 234.078 141.084 234.101 141.15 234.154C141.224 234.201 141.26 234.271 141.26 234.364C141.26 234.464 141.224 234.541 141.15 234.594C141.084 234.641 140.99 234.664 140.87 234.664L139.56 234.614L139.67 234.454L140.36 235.554C140.427 235.654 140.454 235.748 140.44 235.834C140.434 235.914 140.39 235.978 140.31 236.024C140.224 236.078 140.137 236.084 140.05 236.044C139.97 236.004 139.904 235.934 139.85 235.834L139.28 234.734H139.38L138.8 235.834C138.747 235.941 138.68 236.014 138.6 236.054C138.52 236.094 138.44 236.088 138.36 236.034ZM146.162 236.034C146.076 235.988 146.026 235.921 146.012 235.834C146.006 235.748 146.032 235.654 146.092 235.554L146.792 234.454L146.902 234.614L145.592 234.664C145.472 234.664 145.376 234.641 145.302 234.594C145.236 234.541 145.202 234.464 145.202 234.364C145.202 234.271 145.236 234.201 145.302 234.154C145.376 234.101 145.472 234.078 145.592 234.084L146.902 234.134L146.792 234.284L146.102 233.174C146.036 233.074 146.009 232.981 146.022 232.894C146.036 232.808 146.082 232.741 146.162 232.694C146.242 232.648 146.322 232.644 146.402 232.684C146.489 232.724 146.559 232.798 146.612 232.904L147.182 234.004H147.082L147.652 232.904C147.712 232.798 147.782 232.724 147.862 232.684C147.949 232.644 148.032 232.648 148.112 232.694C148.192 232.748 148.236 232.818 148.242 232.904C148.256 232.991 148.229 233.084 148.162 233.184L147.472 234.284L147.362 234.134L148.672 234.084C148.792 234.078 148.886 234.101 148.952 234.154C149.026 234.201 149.062 234.271 149.062 234.364C149.062 234.464 149.026 234.541 148.952 234.594C148.886 234.641 148.792 234.664 148.672 234.664L147.362 234.614L147.472 234.454L148.162 235.554C148.229 235.654 148.256 235.748 148.242 235.834C148.236 235.914 148.192 235.978 148.112 236.024C148.026 236.078 147.939 236.084 147.852 236.044C147.772 236.004 147.706 235.934 147.652 235.834L147.082 234.734H147.182L146.602 235.834C146.549 235.941 146.482 236.014 146.402 236.054C146.322 236.094 146.242 236.088 146.162 236.034ZM153.964 236.034C153.878 235.988 153.828 235.921 153.814 235.834C153.808 235.748 153.834 235.654 153.894 235.554L154.594 234.454L154.704 234.614L153.394 234.664C153.274 234.664 153.178 234.641 153.104 234.594C153.038 234.541 153.004 234.464 153.004 234.364C153.004 234.271 153.038 234.201 153.104 234.154C153.178 234.101 153.274 234.078 153.394 234.084L154.704 234.134L154.594 234.284L153.904 233.174C153.838 233.074 153.811 232.981 153.824 232.894C153.838 232.808 153.884 232.741 153.964 232.694C154.044 232.648 154.124 232.644 154.204 232.684C154.291 232.724 154.361 232.798 154.414 232.904L154.984 234.004H154.884L155.454 232.904C155.514 232.798 155.584 232.724 155.664 232.684C155.751 232.644 155.834 232.648 155.914 232.694C155.994 232.748 156.038 232.818 156.044 232.904C156.058 232.991 156.031 233.084 155.964 233.184L155.274 234.284L155.164 234.134L156.474 234.084C156.594 234.078 156.688 234.101 156.754 234.154C156.828 234.201 156.864 234.271 156.864 234.364C156.864 234.464 156.828 234.541 156.754 234.594C156.688 234.641 156.594 234.664 156.474 234.664L155.164 234.614L155.274 234.454L155.964 235.554C156.031 235.654 156.058 235.748 156.044 235.834C156.038 235.914 155.994 235.978 155.914 236.024C155.828 236.078 155.741 236.084 155.654 236.044C155.574 236.004 155.508 235.934 155.454 235.834L154.884 234.734H154.984L154.404 235.834C154.351 235.941 154.284 236.014 154.204 236.054C154.124 236.094 154.044 236.088 153.964 236.034Z" fill="#067FED"/>
<path d="M83.7468 297.445C83.6601 297.398 83.6101 297.332 83.5968 297.245C83.5901 297.158 83.6168 297.065 83.6768 296.965L84.3768 295.865L84.4868 296.025L83.1768 296.075C83.0568 296.075 82.9601 296.052 82.8868 296.005C82.8201 295.952 82.7868 295.875 82.7868 295.775C82.7868 295.682 82.8201 295.612 82.8868 295.565C82.9601 295.512 83.0568 295.488 83.1768 295.495L84.4868 295.545L84.3768 295.695L83.6868 294.585C83.6201 294.485 83.5935 294.392 83.6068 294.305C83.6201 294.218 83.6668 294.152 83.7468 294.105C83.8268 294.058 83.9068 294.055 83.9868 294.095C84.0735 294.135 84.1435 294.208 84.1968 294.315L84.7668 295.415H84.6668L85.2368 294.315C85.2968 294.208 85.3668 294.135 85.4468 294.095C85.5335 294.055 85.6168 294.058 85.6968 294.105C85.7768 294.158 85.8201 294.228 85.8268 294.315C85.8401 294.402 85.8135 294.495 85.7468 294.595L85.0568 295.695L84.9468 295.545L86.2568 295.495C86.3768 295.488 86.4701 295.512 86.5368 295.565C86.6101 295.612 86.6468 295.682 86.6468 295.775C86.6468 295.875 86.6101 295.952 86.5368 296.005C86.4701 296.052 86.3768 296.075 86.2568 296.075L84.9468 296.025L85.0568 295.865L85.7468 296.965C85.8135 297.065 85.8401 297.158 85.8268 297.245C85.8201 297.325 85.7768 297.388 85.6968 297.435C85.6101 297.488 85.5235 297.495 85.4368 297.455C85.3568 297.415 85.2901 297.345 85.2368 297.245L84.6668 296.145H84.7668L84.1868 297.245C84.1335 297.352 84.0668 297.425 83.9868 297.465C83.9068 297.505 83.8268 297.498 83.7468 297.445ZM91.5488 297.445C91.4621 297.398 91.4121 297.332 91.3988 297.245C91.3921 297.158 91.4188 297.065 91.4788 296.965L92.1788 295.865L92.2888 296.025L90.9788 296.075C90.8588 296.075 90.7621 296.052 90.6888 296.005C90.6221 295.952 90.5888 295.875 90.5888 295.775C90.5888 295.682 90.6221 295.612 90.6888 295.565C90.7621 295.512 90.8588 295.488 90.9788 295.495L92.2888 295.545L92.1788 295.695L91.4888 294.585C91.4221 294.485 91.3954 294.392 91.4088 294.305C91.4221 294.218 91.4688 294.152 91.5488 294.105C91.6288 294.058 91.7088 294.055 91.7888 294.095C91.8754 294.135 91.9454 294.208 91.9988 294.315L92.5688 295.415H92.4688L93.0388 294.315C93.0988 294.208 93.1688 294.135 93.2488 294.095C93.3354 294.055 93.4188 294.058 93.4988 294.105C93.5788 294.158 93.6221 294.228 93.6288 294.315C93.6421 294.402 93.6154 294.495 93.5488 294.595L92.8588 295.695L92.7488 295.545L94.0588 295.495C94.1788 295.488 94.2721 295.512 94.3388 295.565C94.4121 295.612 94.4488 295.682 94.4488 295.775C94.4488 295.875 94.4121 295.952 94.3388 296.005C94.2721 296.052 94.1788 296.075 94.0588 296.075L92.7488 296.025L92.8588 295.865L93.5488 296.965C93.6154 297.065 93.6421 297.158 93.6288 297.245C93.6221 297.325 93.5788 297.388 93.4988 297.435C93.4121 297.488 93.3254 297.495 93.2388 297.455C93.1588 297.415 93.0921 297.345 93.0388 297.245L92.4688 296.145H92.5688L91.9888 297.245C91.9354 297.352 91.8688 297.425 91.7888 297.465C91.7088 297.505 91.6288 297.498 91.5488 297.445ZM99.3507 297.445C99.264 297.398 99.214 297.332 99.2007 297.245C99.194 297.158 99.2207 297.065 99.2807 296.965L99.9807 295.865L100.091 296.025L98.7807 296.075C98.6607 296.075 98.564 296.052 98.4907 296.005C98.424 295.952 98.3907 295.875 98.3907 295.775C98.3907 295.682 98.424 295.612 98.4907 295.565C98.564 295.512 98.6607 295.488 98.7807 295.495L100.091 295.545L99.9807 295.695L99.2907 294.585C99.224 294.485 99.1974 294.392 99.2107 294.305C99.224 294.218 99.2707 294.152 99.3507 294.105C99.4307 294.058 99.5107 294.055 99.5907 294.095C99.6774 294.135 99.7474 294.208 99.8007 294.315L100.371 295.415H100.271L100.841 294.315C100.901 294.208 100.971 294.135 101.051 294.095C101.137 294.055 101.221 294.058 101.301 294.105C101.381 294.158 101.424 294.228 101.431 294.315C101.444 294.402 101.417 294.495 101.351 294.595L100.661 295.695L100.551 295.545L101.861 295.495C101.981 295.488 102.074 295.512 102.141 295.565C102.214 295.612 102.251 295.682 102.251 295.775C102.251 295.875 102.214 295.952 102.141 296.005C102.074 296.052 101.981 296.075 101.861 296.075L100.551 296.025L100.661 295.865L101.351 296.965C101.417 297.065 101.444 297.158 101.431 297.245C101.424 297.325 101.381 297.388 101.301 297.435C101.214 297.488 101.127 297.495 101.041 297.455C100.961 297.415 100.894 297.345 100.841 297.245L100.271 296.145H100.371L99.7907 297.245C99.7374 297.352 99.6707 297.425 99.5907 297.465C99.5107 297.505 99.4307 297.498 99.3507 297.445ZM107.153 297.445C107.066 297.398 107.016 297.332 107.003 297.245C106.996 297.158 107.023 297.065 107.083 296.965L107.783 295.865L107.893 296.025L106.583 296.075C106.463 296.075 106.366 296.052 106.293 296.005C106.226 295.952 106.193 295.875 106.193 295.775C106.193 295.682 106.226 295.612 106.293 295.565C106.366 295.512 106.463 295.488 106.583 295.495L107.893 295.545L107.783 295.695L107.093 294.585C107.026 294.485 106.999 294.392 107.013 294.305C107.026 294.218 107.073 294.152 107.153 294.105C107.233 294.058 107.313 294.055 107.393 294.095C107.479 294.135 107.549 294.208 107.603 294.315L108.173 295.415H108.073L108.643 294.315C108.703 294.208 108.773 294.135 108.853 294.095C108.939 294.055 109.023 294.058 109.103 294.105C109.183 294.158 109.226 294.228 109.233 294.315C109.246 294.402 109.219 294.495 109.153 294.595L108.463 295.695L108.353 295.545L109.663 295.495C109.783 295.488 109.876 295.512 109.943 295.565C110.016 295.612 110.053 295.682 110.053 295.775C110.053 295.875 110.016 295.952 109.943 296.005C109.876 296.052 109.783 296.075 109.663 296.075L108.353 296.025L108.463 295.865L109.153 296.965C109.219 297.065 109.246 297.158 109.233 297.245C109.226 297.325 109.183 297.388 109.103 297.435C109.016 297.488 108.929 297.495 108.843 297.455C108.763 297.415 108.696 297.345 108.643 297.245L108.073 296.145H108.173L107.593 297.245C107.539 297.352 107.473 297.425 107.393 297.465C107.313 297.505 107.233 297.498 107.153 297.445ZM114.955 297.445C114.868 297.398 114.818 297.332 114.805 297.245C114.798 297.158 114.825 297.065 114.885 296.965L115.585 295.865L115.695 296.025L114.385 296.075C114.265 296.075 114.168 296.052 114.095 296.005C114.028 295.952 113.995 295.875 113.995 295.775C113.995 295.682 114.028 295.612 114.095 295.565C114.168 295.512 114.265 295.488 114.385 295.495L115.695 295.545L115.585 295.695L114.895 294.585C114.828 294.485 114.801 294.392 114.815 294.305C114.828 294.218 114.875 294.152 114.955 294.105C115.035 294.058 115.115 294.055 115.195 294.095C115.281 294.135 115.351 294.208 115.405 294.315L115.975 295.415H115.875L116.445 294.315C116.505 294.208 116.575 294.135 116.655 294.095C116.741 294.055 116.825 294.058 116.905 294.105C116.985 294.158 117.028 294.228 117.035 294.315C117.048 294.402 117.021 294.495 116.955 294.595L116.265 295.695L116.155 295.545L117.465 295.495C117.585 295.488 117.678 295.512 117.745 295.565C117.818 295.612 117.855 295.682 117.855 295.775C117.855 295.875 117.818 295.952 117.745 296.005C117.678 296.052 117.585 296.075 117.465 296.075L116.155 296.025L116.265 295.865L116.955 296.965C117.021 297.065 117.048 297.158 117.035 297.245C117.028 297.325 116.985 297.388 116.905 297.435C116.818 297.488 116.731 297.495 116.645 297.455C116.565 297.415 116.498 297.345 116.445 297.245L115.875 296.145H115.975L115.395 297.245C115.341 297.352 115.275 297.425 115.195 297.465C115.115 297.505 115.035 297.498 114.955 297.445ZM122.757 297.445C122.67 297.398 122.62 297.332 122.607 297.245C122.6 297.158 122.627 297.065 122.687 296.965L123.387 295.865L123.497 296.025L122.187 296.075C122.067 296.075 121.97 296.052 121.897 296.005C121.83 295.952 121.797 295.875 121.797 295.775C121.797 295.682 121.83 295.612 121.897 295.565C121.97 295.512 122.067 295.488 122.187 295.495L123.497 295.545L123.387 295.695L122.697 294.585C122.63 294.485 122.603 294.392 122.617 294.305C122.63 294.218 122.677 294.152 122.757 294.105C122.837 294.058 122.917 294.055 122.997 294.095C123.083 294.135 123.153 294.208 123.207 294.315L123.777 295.415H123.677L124.247 294.315C124.307 294.208 124.377 294.135 124.457 294.095C124.543 294.055 124.627 294.058 124.707 294.105C124.787 294.158 124.83 294.228 124.837 294.315C124.85 294.402 124.823 294.495 124.757 294.595L124.067 295.695L123.957 295.545L125.267 295.495C125.387 295.488 125.48 295.512 125.547 295.565C125.62 295.612 125.657 295.682 125.657 295.775C125.657 295.875 125.62 295.952 125.547 296.005C125.48 296.052 125.387 296.075 125.267 296.075L123.957 296.025L124.067 295.865L124.757 296.965C124.823 297.065 124.85 297.158 124.837 297.245C124.83 297.325 124.787 297.388 124.707 297.435C124.62 297.488 124.533 297.495 124.447 297.455C124.367 297.415 124.3 297.345 124.247 297.245L123.677 296.145H123.777L123.197 297.245C123.143 297.352 123.077 297.425 122.997 297.465C122.917 297.505 122.837 297.498 122.757 297.445ZM130.559 297.445C130.472 297.398 130.422 297.332 130.409 297.245C130.402 297.158 130.429 297.065 130.489 296.965L131.189 295.865L131.299 296.025L129.989 296.075C129.869 296.075 129.772 296.052 129.699 296.005C129.632 295.952 129.599 295.875 129.599 295.775C129.599 295.682 129.632 295.612 129.699 295.565C129.772 295.512 129.869 295.488 129.989 295.495L131.299 295.545L131.189 295.695L130.499 294.585C130.432 294.485 130.405 294.392 130.419 294.305C130.432 294.218 130.479 294.152 130.559 294.105C130.639 294.058 130.719 294.055 130.799 294.095C130.885 294.135 130.955 294.208 131.009 294.315L131.579 295.415H131.479L132.049 294.315C132.109 294.208 132.179 294.135 132.259 294.095C132.345 294.055 132.429 294.058 132.509 294.105C132.589 294.158 132.632 294.228 132.639 294.315C132.652 294.402 132.625 294.495 132.559 294.595L131.869 295.695L131.759 295.545L133.069 295.495C133.189 295.488 133.282 295.512 133.349 295.565C133.422 295.612 133.459 295.682 133.459 295.775C133.459 295.875 133.422 295.952 133.349 296.005C133.282 296.052 133.189 296.075 133.069 296.075L131.759 296.025L131.869 295.865L132.559 296.965C132.625 297.065 132.652 297.158 132.639 297.245C132.632 297.325 132.589 297.388 132.509 297.435C132.422 297.488 132.335 297.495 132.249 297.455C132.169 297.415 132.102 297.345 132.049 297.245L131.479 296.145H131.579L130.999 297.245C130.945 297.352 130.879 297.425 130.799 297.465C130.719 297.505 130.639 297.498 130.559 297.445ZM138.36 297.445C138.274 297.398 138.224 297.332 138.21 297.245C138.204 297.158 138.23 297.065 138.29 296.965L138.99 295.865L139.1 296.025L137.79 296.075C137.67 296.075 137.574 296.052 137.5 296.005C137.434 295.952 137.4 295.875 137.4 295.775C137.4 295.682 137.434 295.612 137.5 295.565C137.574 295.512 137.67 295.488 137.79 295.495L139.1 295.545L138.99 295.695L138.3 294.585C138.234 294.485 138.207 294.392 138.22 294.305C138.234 294.218 138.28 294.152 138.36 294.105C138.44 294.058 138.52 294.055 138.6 294.095C138.687 294.135 138.757 294.208 138.81 294.315L139.38 295.415H139.28L139.85 294.315C139.91 294.208 139.98 294.135 140.06 294.095C140.147 294.055 140.23 294.058 140.31 294.105C140.39 294.158 140.434 294.228 140.44 294.315C140.454 294.402 140.427 294.495 140.36 294.595L139.67 295.695L139.56 295.545L140.87 295.495C140.99 295.488 141.084 295.512 141.15 295.565C141.224 295.612 141.26 295.682 141.26 295.775C141.26 295.875 141.224 295.952 141.15 296.005C141.084 296.052 140.99 296.075 140.87 296.075L139.56 296.025L139.67 295.865L140.36 296.965C140.427 297.065 140.454 297.158 140.44 297.245C140.434 297.325 140.39 297.388 140.31 297.435C140.224 297.488 140.137 297.495 140.05 297.455C139.97 297.415 139.904 297.345 139.85 297.245L139.28 296.145H139.38L138.8 297.245C138.747 297.352 138.68 297.425 138.6 297.465C138.52 297.505 138.44 297.498 138.36 297.445ZM146.162 297.445C146.076 297.398 146.026 297.332 146.012 297.245C146.006 297.158 146.032 297.065 146.092 296.965L146.792 295.865L146.902 296.025L145.592 296.075C145.472 296.075 145.376 296.052 145.302 296.005C145.236 295.952 145.202 295.875 145.202 295.775C145.202 295.682 145.236 295.612 145.302 295.565C145.376 295.512 145.472 295.488 145.592 295.495L146.902 295.545L146.792 295.695L146.102 294.585C146.036 294.485 146.009 294.392 146.022 294.305C146.036 294.218 146.082 294.152 146.162 294.105C146.242 294.058 146.322 294.055 146.402 294.095C146.489 294.135 146.559 294.208 146.612 294.315L147.182 295.415H147.082L147.652 294.315C147.712 294.208 147.782 294.135 147.862 294.095C147.949 294.055 148.032 294.058 148.112 294.105C148.192 294.158 148.236 294.228 148.242 294.315C148.256 294.402 148.229 294.495 148.162 294.595L147.472 295.695L147.362 295.545L148.672 295.495C148.792 295.488 148.886 295.512 148.952 295.565C149.026 295.612 149.062 295.682 149.062 295.775C149.062 295.875 149.026 295.952 148.952 296.005C148.886 296.052 148.792 296.075 148.672 296.075L147.362 296.025L147.472 295.865L148.162 296.965C148.229 297.065 148.256 297.158 148.242 297.245C148.236 297.325 148.192 297.388 148.112 297.435C148.026 297.488 147.939 297.495 147.852 297.455C147.772 297.415 147.706 297.345 147.652 297.245L147.082 296.145H147.182L146.602 297.245C146.549 297.352 146.482 297.425 146.402 297.465C146.322 297.505 146.242 297.498 146.162 297.445ZM153.964 297.445C153.878 297.398 153.828 297.332 153.814 297.245C153.808 297.158 153.834 297.065 153.894 296.965L154.594 295.865L154.704 296.025L153.394 296.075C153.274 296.075 153.178 296.052 153.104 296.005C153.038 295.952 153.004 295.875 153.004 295.775C153.004 295.682 153.038 295.612 153.104 295.565C153.178 295.512 153.274 295.488 153.394 295.495L154.704 295.545L154.594 295.695L153.904 294.585C153.838 294.485 153.811 294.392 153.824 294.305C153.838 294.218 153.884 294.152 153.964 294.105C154.044 294.058 154.124 294.055 154.204 294.095C154.291 294.135 154.361 294.208 154.414 294.315L154.984 295.415H154.884L155.454 294.315C155.514 294.208 155.584 294.135 155.664 294.095C155.751 294.055 155.834 294.058 155.914 294.105C155.994 294.158 156.038 294.228 156.044 294.315C156.058 294.402 156.031 294.495 155.964 294.595L155.274 295.695L155.164 295.545L156.474 295.495C156.594 295.488 156.688 295.512 156.754 295.565C156.828 295.612 156.864 295.682 156.864 295.775C156.864 295.875 156.828 295.952 156.754 296.005C156.688 296.052 156.594 296.075 156.474 296.075L155.164 296.025L155.274 295.865L155.964 296.965C156.031 297.065 156.058 297.158 156.044 297.245C156.038 297.325 155.994 297.388 155.914 297.435C155.828 297.488 155.741 297.495 155.654 297.455C155.574 297.415 155.508 297.345 155.454 297.245L154.884 296.145H154.984L154.404 297.245C154.351 297.352 154.284 297.425 154.204 297.465C154.124 297.505 154.044 297.498 153.964 297.445Z" fill="#067FED"/>
<g filter="url(#filter1_d_157_4956)">
<rect x="263.711" y="128.196" width="378.289" height="50.0983" rx="5" fill="#E14C67"/>
</g>
<rect x="420.119" y="149.205" width="27.2805" height="6.46429" rx="3.23215" fill="white"/>
<rect x="454.674" y="149.205" width="25.4618" height="6.46429" rx="3.23215" fill="white"/>
<rect x="285.535" y="142.741" width="21.8244" height="19.3929" rx="5" fill="#E14C67"/>
<rect x="487.41" y="149.205" width="27.2805" height="6.46429" rx="3.23215" fill="white"/>
<rect x="521.966" y="149.205" width="27.2805" height="6.46429" rx="3.23215" fill="white"/>
<rect x="556.521" y="149.205" width="27.2805" height="6.46429" rx="3.23215" fill="white"/>
<rect x="614.719" y="150.821" width="7.27479" height="3.23215" rx="1.61607" fill="white"/>
<defs>
<filter id="filter0_d_157_4956" x="21" y="166" width="320.261" height="240.777" filterUnits="userSpaceOnUse" color-interpolation-filters="sRGB">
<feFlood flood-opacity="0" result="BackgroundImageFix"/>
<feColorMatrix in="SourceAlpha" type="matrix" values="0 0 0 0 0 0 0 0 0 0 0 0 0 0 0 0 0 0 127 0" result="hardAlpha"/>
<feOffset dx="5" dy="10"/>
<feGaussianBlur stdDeviation="10.5"/>
<feComposite in2="hardAlpha" operator="out"/>
<feColorMatrix type="matrix" values="0 0 0 0 0.700272 0 0 0 0 0.700272 0 0 0 0 0.700272 0 0 0 0.25 0"/>
<feBlend mode="normal" in2="BackgroundImageFix" result="effect1_dropShadow_157_4956"/>
<feBlend mode="normal" in="SourceGraphic" in2="effect1_dropShadow_157_4956" result="shape"/>
</filter>
<filter id="filter1_d_157_4956" x="262.711" y="128.196" width="392.289" height="64.0981" filterUnits="userSpaceOnUse" color-interpolation-filters="sRGB">
<feFlood flood-opacity="0" result="BackgroundImageFix"/>
<feColorMatrix in="SourceAlpha" type="matrix" values="0 0 0 0 0 0 0 0 0 0 0 0 0 0 0 0 0 0 127 0" result="hardAlpha"/>
<feOffset dx="6" dy="7"/>
<feGaussianBlur stdDeviation="3.5"/>
<feComposite in2="hardAlpha" operator="out"/>
<feColorMatrix type="matrix" values="0 0 0 0 0.500272 0 0 0 0 0.500272 0 0 0 0 0.500272 0 0 0 0.25 0"/>
<feBlend mode="normal" in2="BackgroundImageFix" result="effect1_dropShadow_157_4956"/>
<feBlend mode="normal" in="SourceGraphic" in2="effect1_dropShadow_157_4956" result="shape"/>
</filter>
</defs>
</svg>
