<svg width="24" height="24" viewBox="0 0 24 24" fill="none" xmlns="http://www.w3.org/2000/svg">
<g clip-path="url(#clip0_79_3466)">
<path fill-rule="evenodd" clip-rule="evenodd" d="M2.81649 0.788693C3.07895 0.526626 3.39411 0.32333 3.74108 0.192278C4.08806 0.0612255 4.45892 0.005409 4.8291 0.0285273C5.19927 0.0516456 5.56031 0.153171 5.88828 0.326375C6.21625 0.499579 6.50367 0.740507 6.73149 1.03319L9.42399 4.49219C9.91749 5.12669 10.0915 5.95319 9.89649 6.73319L9.07599 10.0182C9.03357 10.1883 9.03586 10.3666 9.08264 10.5356C9.12942 10.7046 9.21911 10.8586 9.34299 10.9827L13.0285 14.6682C13.1527 14.7923 13.307 14.8822 13.4763 14.9289C13.6456 14.9757 13.8241 14.9779 13.9945 14.9352L17.278 14.1147C17.6629 14.0185 18.0647 14.011 18.4529 14.0928C18.8411 14.1747 19.2057 14.3437 19.519 14.5872L22.978 17.2782C24.2215 18.2457 24.3355 20.0832 23.2225 21.1947L21.6715 22.7457C20.5615 23.8557 18.9025 24.3432 17.356 23.7987C13.3978 22.406 9.8039 20.1399 6.84099 17.1687C3.86992 14.2062 1.6039 10.6129 0.210988 6.65519C-0.332012 5.11019 0.155488 3.44969 1.26549 2.33969L2.81649 0.788693Z" fill="#9CA2AD"/>
</g>
<defs>
<clipPath id="clip0_79_3466">
<rect width="24" height="24" fill="white"/>
</clipPath>
</defs>
</svg>
