<svg width="176" height="110" viewBox="0 0 176 110" fill="none" xmlns="http://www.w3.org/2000/svg">
<g clip-path="url(#clip0_139_3186)">
<path fill-rule="evenodd" clip-rule="evenodd" d="M69.25 27.5003V22.5003C69.25 21.2153 70.2251 20.1391 71.5001 20.0128C77.4876 19.4178 82.725 18.1428 86.5625 15.4528C87.425 14.8491 88.575 14.8491 89.4375 15.4528C93.275 18.1428 98.5124 19.4178 104.5 20.0128C105.775 20.1391 106.75 21.2153 106.75 22.5003V27.5003H120.5C122.488 27.5003 124.4 28.2903 125.8 29.6965C127.212 31.104 128 33.0116 128 35.0003V75.0003C128 76.9891 127.212 78.8966 125.8 80.3041C124.4 81.7103 122.488 82.5003 120.5 82.5003H103.55L105.05 90.0003H108.038L108.175 90.0066L108.663 90.0903L109.113 90.2628L109.537 90.5241C109.662 90.6291 109.788 90.7466 109.9 90.8765L110.088 91.1253L110.312 91.5553L110.45 92.0153L110.5 92.5003C110.5 93.8753 109.388 94.9916 108.013 95.0003H68C66.625 95.0003 65.5 93.8803 65.5 92.5003C65.5 91.1203 66.625 90.0003 68 90.0003H70.95L72.4501 82.5003H55.5C53.5125 82.5003 51.6 81.7103 50.2 80.3041C48.7875 78.8966 48 76.9891 48 75.0003C48 65.4203 48 44.5803 48 35.0003C48 33.0116 48.7875 31.104 50.2 29.6965C51.6 28.2903 53.5125 27.5003 55.5 27.5003H69.25ZM55.5 72.5003H120.5C121.875 72.5003 123 71.3803 123 70.0003C123 68.6203 121.875 67.5003 120.5 67.5003H55.5C54.125 67.5003 53 68.6203 53 70.0003C53 71.3803 54.125 72.5003 55.5 72.5003ZM88 59.5653L80.2 54.7641C76.5 52.4891 74.25 48.4591 74.25 44.1178V24.7266C79.55 24.0166 84.25 22.6878 88 20.4703C91.7625 22.6878 96.45 24.0166 101.75 24.7266V44.1178C101.75 48.4591 99.5 52.4891 95.8 54.7641L88 59.5653Z" fill="url(#paint0_linear_139_3186)"/>
</g>
<defs>
<linearGradient id="paint0_linear_139_3186" x1="48" y1="22.957" x2="130.985" y2="26.5779" gradientUnits="userSpaceOnUse">
<stop offset="0.5" stop-color="#067FED"/>
<stop offset="1" stop-color="#4BF06F"/>
</linearGradient>
<clipPath id="clip0_139_3186">
<rect width="80" height="80" fill="white" transform="translate(48 15)"/>
</clipPath>
</defs>
</svg>
