<svg width="176" height="110" viewBox="0 0 176 110" fill="none" xmlns="http://www.w3.org/2000/svg">
<path d="M81.5342 82.7416L77.2686 96.3175C77.1414 96.7237 76.7674 97 76.3429 97H58.8571C58.5482 97 58.2568 96.8516 58.0732 96.6006C57.8896 96.3497 57.8371 96.0265 57.9314 95.7296L64.8227 73.7942C65.0568 74.343 65.2705 74.9581 65.4813 75.5665C66.1953 77.6307 67.0045 79.9694 69.0523 81.1607C71.0719 82.3354 73.4742 81.8774 75.591 81.4761C76.9286 81.2212 78.311 80.9595 79.1979 81.1978C79.875 81.3784 80.7017 82.0297 81.5342 82.7416ZM111.177 73.7932C110.943 74.342 110.729 74.9581 110.518 75.5674C109.804 77.6307 108.995 79.9704 106.948 81.1607C104.928 82.3354 102.526 81.8793 100.409 81.4761C99.0694 81.2212 97.6871 80.9615 96.8021 81.1968C96.125 81.3794 95.2983 82.0297 94.4658 82.7416L98.7304 96.3175C98.8586 96.7237 99.2326 97 99.6571 97H117.143C117.452 97 117.743 96.8516 117.927 96.6006C118.11 96.3497 118.163 96.0265 118.069 95.7296L111.177 73.7932ZM108.4 48.1765C108.4 59.483 99.2482 68.6824 88 68.6824C76.7518 68.6824 67.6 59.483 67.6 48.1765C67.6 36.8699 76.7518 27.6706 88 27.6706C99.2482 27.6706 108.4 36.8699 108.4 48.1765ZM100.578 44.1241C100.462 43.7775 100.163 43.5246 99.8038 43.4689L92.2607 42.3098L88.8791 35.0674C88.7189 34.7256 88.3769 34.5059 88 34.5059C87.6231 34.5059 87.2811 34.7256 87.1209 35.0674L83.7393 42.3098L76.1962 43.4689C75.8367 43.5246 75.5375 43.7765 75.4219 44.1241C75.3063 44.4717 75.3938 44.8535 75.6473 45.1162L81.1058 50.7397L79.2814 58.6989C79.1969 59.069 79.3339 59.4547 79.6311 59.6891C79.9284 59.9224 80.3354 59.9615 80.6706 59.7877L88 56.0117L95.3285 59.7857C95.4674 59.859 95.6209 59.8941 95.7714 59.8941C95.9842 59.8941 96.195 59.8248 96.3679 59.6881C96.6661 59.4547 96.8021 59.068 96.7176 58.6979L94.8933 50.7387L100.352 45.1152C100.607 44.8535 100.694 44.4708 100.578 44.1241ZM117.095 56.0185C116.63 57.7664 116.975 59.6012 117.309 61.3764C117.584 62.8362 117.896 64.4923 117.45 65.2667C116.988 66.0674 115.387 66.6288 113.972 67.122C112.292 67.7098 110.552 68.3172 109.297 69.5788C108.038 70.8452 107.433 72.5931 106.849 74.2834C106.356 75.7051 105.799 77.3144 105.004 77.7782C104.907 77.8338 104.616 78.0028 103.861 78.0028C103.06 78.0028 102.081 77.8172 101.134 77.6366C100.048 77.4296 98.8188 77.1962 97.6375 77.1962C96.9692 77.1962 96.3698 77.2694 95.8083 77.4188C94.121 77.8739 92.7474 79.0671 91.4185 80.2223C90.2129 81.271 88.9685 82.3529 88 82.3529C87.0295 82.3529 85.7851 81.271 84.5806 80.2223C83.2517 79.0671 81.8771 77.8729 80.1975 77.4227C79.6341 77.2714 79.0308 77.1982 78.3566 77.1982C77.1793 77.1982 75.9504 77.4315 74.8663 77.6385C73.9143 77.8192 72.9351 78.0047 72.1346 78.0047C71.3827 78.0047 71.0913 77.8348 70.9961 77.7801C70.1986 77.3153 69.64 75.7051 69.1494 74.2834C68.5646 72.5941 67.9604 70.8452 66.7053 69.5836C65.4454 68.3181 63.7065 67.7108 62.025 67.1229C60.6106 66.6279 59.0097 66.0683 58.5482 65.2686C58.1033 64.4943 58.4142 62.8401 58.6891 61.3793C59.0242 59.5943 59.3671 57.7644 58.9038 56.0195C58.454 54.3312 57.2659 52.9495 56.1177 51.6146C55.0763 50.4009 54 49.15 54 48.1765C54 47.201 55.0763 45.9501 56.1197 44.7393C57.2689 43.4035 58.4569 42.0218 58.9047 40.3335C59.3701 38.5856 59.0252 36.7508 58.691 34.9756C58.4161 33.5157 58.1043 31.8596 58.5502 31.0853C59.0116 30.2846 60.6135 29.7231 62.0279 29.23C63.7085 28.6422 65.4483 28.0348 66.7034 26.7732C67.9623 25.5067 68.5666 23.7588 69.1514 22.0686C69.6439 20.6468 70.2005 19.0376 70.9961 18.5738C71.0933 18.5181 71.3847 18.3482 72.1395 18.3482C72.9429 18.3482 73.9201 18.5347 74.8653 18.7154C75.9494 18.9214 77.1754 19.1548 78.3625 19.1548C79.0289 19.1548 79.6234 19.0835 80.1829 18.9351C81.879 18.4781 83.2526 17.2848 84.5806 16.1297C85.7871 15.0819 87.0315 14 88 14C88.9705 14 90.2149 15.0819 91.4194 16.1307C92.7483 17.2858 94.1229 18.48 95.8025 18.9302C96.365 19.0806 96.9663 19.1548 97.6405 19.1548C98.813 19.1548 100.045 18.9214 101.131 18.7154C102.082 18.5338 103.063 18.3482 103.863 18.3482C104.615 18.3482 104.908 18.5181 105.003 18.5728C105.8 19.0376 106.359 20.6478 106.85 22.0696C107.434 23.7588 108.039 25.5077 109.294 26.7693C110.554 28.0348 112.293 28.6422 113.974 29.23C115.388 29.7251 116.989 30.2846 117.451 31.0843C117.896 31.8587 117.585 33.5128 117.31 34.9736C116.975 36.7586 116.632 38.5885 117.095 40.3335C117.545 42.0218 118.733 43.4035 119.881 44.7383C120.924 45.9521 122 47.2029 122 48.1765C122 49.152 120.924 50.4028 119.88 51.6136C118.732 52.9495 117.543 54.3312 117.095 56.0185ZM112.286 48.1765C112.286 34.7158 101.391 23.7647 88 23.7647C74.6089 23.7647 63.7143 34.7158 63.7143 48.1765C63.7143 61.6371 74.6089 72.5882 88 72.5882C101.391 72.5882 112.286 61.6371 112.286 48.1765Z" fill="url(#paint0_linear_139_3149)"/>
<defs>
<linearGradient id="paint0_linear_139_3149" x1="54" y1="22.2554" x2="124.582" y2="24.7785" gradientUnits="userSpaceOnUse">
<stop offset="0.5" stop-color="#067FED"/>
<stop offset="1" stop-color="#4BF06F"/>
</linearGradient>
</defs>
</svg>
