<?xml version="1.0" encoding="UTF-8" standalone="no"?>
<!-- Generator: Adobe Illustrator 16.0.0, SVG Export Plug-In . SVG Version: 6.00 Build 0)  -->

<svg
   version="1.0"
   id="Layer_1"
   x="0px"
   y="0px"
   width="694px"
   height="270px"
   viewBox="0 0 694 270"
   enable-background="new 0 0 694 270"
   xml:space="preserve"
   xmlns="http://www.w3.org/2000/svg"
   xmlns:svg="http://www.w3.org/2000/svg"><defs
   id="defs146" />
<g
   id="g141">
	<g
   id="g46">
		<g
   id="g40">
			<path
   fill="#FFD24F"
   d="M131.537,31.323h26.129v29.686h-28.512c0-9.715-5.004-15.046-17.077-15.046     c-9.849,0-15.249,3.441-15.249,8.906c0,3.239,2.859,6.14,9.451,7.691l23.352,5.601c21.523,5.127,29.942,12.279,29.942,29.213     c0,19.499-16.68,29.754-38.838,29.754c-20.094,0-26.131-6.814-29.388-12.279h-0.396v9.58H63.549V92.652h29.784     c0,5.464,1.191,9.916,3.813,12.683c2.78,2.9,7.228,4.454,14.059,4.454c9.452,0,14.454-4.251,14.454-9.175     c0-4.454-2.223-5.803-13.263-8.907l-19.22-5.6c-18.904-5.262-30.182-11.604-30.182-29.011c0-18.824,19.936-28.539,39.236-28.539     c12.47,0,20.333,2.564,29.387,10.255v-7.489H131.537z"
   id="path2" />
			<path
   fill="#FFD24F"
   d="M301.188,64.449c0-7.691-2.065-15.045-13.105-15.045c-9.849,0-15.726,6.476-15.726,18.487v37.781h9.292     v18.756h-56.551v-18.756h9.849V64.517c0-7.691-2.065-15.045-13.105-15.045c-9.848,0-15.726,6.477-15.726,18.486v37.783h9.849     v18.756h-58.537V105.74h11.28V50.078h-11.28V31.323h46.464V46.84h0.397c5.242-13.696,18.902-18.284,34.628-18.284     c14.693,0,28.355,5.465,30.341,16.26h0.397c5.799-13.494,19.697-16.26,35.185-16.26c15.091,0,33.597,4.79,33.597,25.435v51.613     h10.404v18.756h-57.741v-18.756h9.849V64.449H301.188z"
   id="path4" />
			<path
   fill="#FFD24F"
   d="M418.815,111.609h-0.397c-9.053,12.819-16.917,15.519-34.152,15.519     c-31.611,0-36.217-20.173-36.217-27.189c0-26.651,26.13-33.127,50.037-33.127c7.625,0,12.707,0.134,18.506,0.54     c0-9.581,0-22.4-14.456-22.4c-11.039,0-12.866,6.814-14.296,16.395h-35.025c1.826-25.098,21.682-32.789,48.846-32.789     c43.842,0,49.879,20.308,49.879,37.579v39.469h9.848v18.756h-42.571V111.609z M407.299,82.125     c-12.311,0-24.543,3.104-24.543,15.045c0,6.343,4.051,11.132,12.313,11.132c15.885,0,21.921-14.37,21.921-26.177H407.299z"
   id="path6" />
			<path
   fill="#FFD24F"
   d="M605.305,91.234v7.219c0,4.588,0,9.917-5.639,9.917c-5.243,0-6.036-3.777-6.036-9.579V50.078h24.7V28.421     h-24.7V6.697L556.221,17.83v10.66c0,0-16.998,0.134-21.524,0.134c-15.091,0-24.701,9.716-27.72,21.522h-0.396V28.624h-46.226     v21.454h11.278v55.527h-11.278v18.756h62.747v-18.756h-14.06V84.959c0-17.271,11.437-27.661,25.733-27.661     c4.687,0,7.228,0.876,9.691,1.888v-9.109h11.754v45.474c0,19.162,6.433,31.576,36.217,31.576c20.094,0,33.358-7.49,33.358-25.638     V91.234H605.305z"
   id="path8" />
			<g
   id="g14">
				<path
   fill="#4D4D4F"
   d="M442.089,188.813h6.042v-33.501h-6.042v-1.246h7.588v6.713h0.141c1.826-4.983,5.69-7.545,10.819-7.545      c7.027,0,9.134,3.739,10.047,7.545h0.141c1.756-4.913,5.34-7.545,10.54-7.545c9.555,0,11.03,7.13,11.03,12.875v22.773h5.762      v1.246h-13.07v-1.246h5.763v-23.604c0-5.813-2.951-10.451-9.134-10.451c-8.783,0-10.68,6.714-10.68,12.667v21.389h5.762v1.246      h-13.068v-1.246h5.762v-23.188c0-5.261-1.336-10.867-8.923-10.867c-8.22,0-10.891,7.338-10.891,12.25v21.736h5.831v1.247h-13.49      v-1.247H442.089z"
   id="path10" />
				<path
   fill="#4D4D4F"
   d="M498.928,190.751h-14.473v-2.632h5.762v-22.91c0-6.092-3.162-9.76-8.432-9.76      c-6.604,0-9.978,4.015-9.978,11.974v20.696h5.763v2.632h-14.475v-2.632h5.762v-22.495c0-6.991-2.6-10.175-8.221-10.175      c-8.079,0-10.188,7.269-10.188,11.559v21.042h5.832v2.632h-14.895v-2.632h6.041v-32.116h-6.041v-2.63h8.992v4.707      c2.179-3.6,5.762-5.538,10.258-5.538c6.605,0,9.134,3.253,10.258,6.367c2.037-4.151,5.691-6.367,10.47-6.367      c7.797,0,11.731,4.568,11.731,13.566v22.08h5.762v2.632H498.928z M491.551,189.366h0.141v-23.327      c0-8.168-3.373-12.182-10.327-12.182c-2.601,0-4.778,0.692-6.464,2.076c1.756-1.245,4.074-1.868,6.885-1.868      c6.043,0,9.836,4.291,9.836,11.144v24.157H491.551z M470.192,189.366h0.14v-21.943c0-2.283,0.281-4.289,0.773-5.952h-0.984      l-0.14-0.554c-0.843-3.46-2.6-6.99-9.345-6.99c-3.021,0-5.48,0.899-7.377,2.7c1.827-1.593,4.215-2.562,7.308-2.562      c9.625,0,9.625,8.722,9.625,11.559V189.366L470.192,189.366z M448.834,189.366h0.14v-22.358c0-1.868,0.352-3.806,0.983-5.537      h-0.983v-6.713h-0.14V189.366z"
   id="path12" />
			</g>
			<g
   id="g20">
				<path
   fill="#4D4D4F"
   d="M504.408,171.992c0,9.414,4.004,17.374,13.419,17.374c7.589,0,10.819-4.636,12.155-9.829h1.545      c-1.826,8.166-7.096,11.353-13.77,11.353c-8.572,0-14.965-6.299-14.965-18.897c0-12.875,6.393-18.828,14.965-18.828      c5.269,0,14.121,2.77,14.262,18.758h-27.611V171.992z M530.475,170.747c0-7.752-3.654-15.921-12.858-15.921      c-8.782,0-12.646,6.99-13.208,15.921H530.475z"
   id="path16" />
				<path
   fill="#4D4D4F"
   d="M517.827,191.652c-9.695,0-15.668-7.476-15.668-19.593c0-12.181,5.832-19.518,15.668-19.518      c4.427,0,14.825,1.869,14.965,19.38v0.692H505.11c0.212,10.037,4.919,15.989,12.717,15.989c6.042,0,9.906-3.115,11.522-9.274      l0.141-0.554h3.021l-0.211,0.83C530.475,187.495,525.486,191.652,517.827,191.652z M517.827,153.927      c-9.063,0-14.263,6.575-14.263,18.133c0,11.354,5.341,18.207,14.263,18.207c6.745,0,11.101-3.325,12.858-9.968h-0.142      c-1.897,6.505-6.112,9.829-12.717,9.829c-8.711,0-14.121-6.923-14.121-18.068v-0.553h-0.071l0.071-0.76      c0.562-10.522,5.62-16.612,13.91-16.612c10.048,0,13.562,8.93,13.562,16.612v0.552h0.14      C530.967,155.657,521.762,153.927,517.827,153.927z M505.182,170.056h24.59c-0.211-6.854-3.443-14.537-12.155-14.537      C507.922,155.449,505.603,164.239,505.182,170.056z"
   id="path18" />
			</g>
			<g
   id="g26">
				<path
   fill="#4D4D4F"
   d="M565.745,182.306h-0.142c-1.896,5.467-6.393,8.584-12.154,8.584c-8.221,0-14.965-6.437-14.965-18.897      c0-12.39,6.744-18.828,14.965-18.828c7.025,0,11.029,4.223,12.154,7.96h0.142v-20.071h-6.042v-1.178h7.656v49.007h6.043v1.246      h-7.588v-7.822H565.745z M565.745,169.432c0-12.252-7.378-14.674-12.296-14.674c-8.994,0-13.35,7.821-13.35,17.302      c0,9.555,4.427,17.307,13.35,17.307c4.918,0,12.296-2.563,12.296-15.781V169.432z"
   id="path22" />
				<path
   fill="#4D4D4F"
   d="M553.379,191.652c-7.799,0-15.668-6.025-15.668-19.593c0-13.496,7.869-19.518,15.668-19.518      c5.621,0,9.556,2.631,11.593,5.814v-16.543h-6.042v-2.63h9.063v49.004h6.043v2.633h-8.993v-5.54      C562.652,189.297,558.508,191.652,553.379,191.652z M553.379,153.927c-8.643,0-14.264,7.129-14.264,18.133      c0,11.008,5.621,18.207,14.264,18.207c3.372,0,6.253-1.107,8.43-3.187c-2.879,2.633-6.393,3.048-8.43,3.048      c-8.572,0-14.053-7.061-14.053-17.998c0-10.936,5.551-17.995,14.053-17.995c2.81,0,8.148,0.761,11.1,6.16      C562.935,156.973,559.14,153.927,553.379,153.927z M566.447,189.366h0.141v-48.799h-0.141v21.319h-1.195      c0.773,2.008,1.195,4.499,1.195,7.614v4.152c0,3.253-0.422,5.884-1.195,8.03h1.195V189.366z M553.379,155.449      c-9.346,0-12.646,8.582-12.646,16.61c0,8.032,3.301,16.614,12.646,16.614c3.513,0,11.593-1.455,11.593-15.089v-4.153      C565.042,156.834,556.892,155.449,553.379,155.449z"
   id="path24" />
			</g>
			<g
   id="g32">
				<path
   fill="#4D4D4F"
   d="M576.635,188.813h5.691v-33.501h-5.691v-1.246h7.235v34.747h5.69v1.247h-12.998v-1.247H576.635z       M581.623,141.953h3.021v3.804h-3.021V141.953z"
   id="path28" />
				<path
   fill="#4D4D4F"
   d="M590.334,190.751h-14.402v-2.632h5.691v-32.116h-5.691v-2.63h8.641v34.746h5.692v2.632H590.334z       M583.026,189.366h0.141v-34.608h-0.141V189.366z M585.275,146.45h-4.425v-5.19h4.425V146.45z M582.326,145.066h1.615v-2.422      h-1.615V145.066z"
   id="path30" />
			</g>
			<g
   id="g38">
				<path
   fill="#4D4D4F"
   d="M618.156,182.375h-0.141c-1.334,4.981-5.76,8.584-12.575,8.584c-5.972,0-11.521-2.563-11.521-10.383      c0-6.646,3.301-11.906,15.315-11.906c3.441,0,6.675,0.139,8.992,0.346v-2.977c0-7.269-2.669-11.213-10.187-11.213      c-6.464,0-10.47,3.045-11.102,9.274h-1.546c0.423-7.06,5.06-10.797,12.787-10.797c9.836,0,11.663,5.813,11.663,13.982v21.596      h5.48v1.246h-7.027v-7.753H618.156z M618.156,170.54c-2.809-0.207-5.339-0.347-8.149-0.347      c-11.312,0-14.544,4.221-14.544,10.383c0,5.743,4.215,8.859,10.048,8.859c9.272,0,12.646-7.061,12.646-15.021V170.54z"
   id="path34" />
				<path
   fill="#4D4D4F"
   d="M605.44,191.652c-7.8,0-12.225-4.019-12.225-11.076c0-8.517,5.268-12.599,16.019-12.599      c2.949,0,5.972,0.069,8.291,0.277v-2.216c0-7.406-2.811-10.521-9.485-10.521c-6.323,0-9.838,2.906-10.399,8.651l-0.07,0.624      h-2.949l0.069-0.763c0.423-7.404,5.2-11.489,13.419-11.489c10.89,0,12.366,7.061,12.366,14.674v20.903h5.479v2.632h-8.432      v-5.193C615.206,189.436,610.921,191.652,605.44,191.652z M609.164,169.293c-13.068,0-14.614,6.438-14.614,11.213      c0,8.446,6.815,9.691,10.818,9.691c5.483,0,9.627-2.425,11.384-6.576c-2.179,4.082-6.112,6.368-11.312,6.368      c-6.604,0-10.75-3.67-10.75-9.553c0-7.545,4.849-11.074,15.247-11.074c3.091,0,5.762,0.207,8.22,0.346l0.632,0.069v4.499      c0,2.77-0.421,5.191-1.124,7.268h1.124v7.684h0.141v-22.151c0-8.166-1.826-13.289-10.961-13.289      c-7.166,0-11.31,3.254-12.013,9.415h0.21c0.844-6.092,4.917-9.275,11.732-9.275c7.449,0,10.891,3.807,10.891,11.904v3.738      l-0.772-0.068C615.699,169.432,612.466,169.293,609.164,169.293z M610.007,170.886c-12.226,0-13.841,4.914-13.841,9.69      c0,5.119,3.512,8.167,9.345,8.167c10.819,0,11.944-10.036,11.944-14.329v-3.183      C615.206,171.023,612.746,170.886,610.007,170.886z"
   id="path36" />
			</g>
		</g>
		<line
   fill="#898A8B"
   x1="48.121"
   y1="233.032"
   x2="52.376"
   y2="233.032"
   id="line42" />
		<line
   fill="#898A8B"
   x1="748.359"
   y1="270"
   x2="743.862"
   y2="270"
   id="line44" />
	</g>
	<path
   fill="#4D4D4F"
   d="M47.492,246.7v-32.938h4.6l6.157,17.426h0.066l6.088-17.426h4.667V246.7h-4.797v-20.041l-4.792,14.168   h-2.464l-4.793-14.168V246.7H47.492L47.492,246.7z"
   id="path48" />
	<path
   fill="#4D4D4F"
   d="M73.603,246.7v-32.938h14.255v4.47h-9.46v9.703h8.293v4.468h-8.293v9.701h9.526v4.724H73.603V246.7z"
   id="path50" />
	<path
   fill="#4D4D4F"
   d="M91.031,246.7v-32.938h4.603l6.155,17.426h0.063l6.091-17.426h4.666V246.7h-4.795v-20.041l-4.795,14.168   h-2.461l-4.795-14.168V246.7H91.031L91.031,246.7z"
   id="path52" />
	<path
   fill="#4D4D4F"
   d="M117.142,246.7v-32.938h6.999c2.914,0,5.117,0.833,6.542,2.553c1.296,1.47,1.943,3.386,1.943,5.81v1.214   c0,1.66-0.258,2.936-0.842,3.894c-0.453,0.766-1.295,1.53-2.461,2.233c2.2,1.021,3.303,3.19,3.303,6.511v1.85   c0,6.002-2.98,9.002-8.939,9.002h-6.544V246.7z M121.938,218.232v9.065h2.137c1.554,0,2.59-0.384,3.238-1.216   c0.521-0.702,0.777-1.852,0.777-3.446c0-2.935-1.425-4.467-4.211-4.467h-1.941V218.232z M121.938,231.445v10.529h2.071   c1.75,0,2.916-0.51,3.501-1.593c0.387-0.766,0.58-2.044,0.58-3.959c0-1.786-0.256-3.063-0.777-3.767   c-0.583-0.827-1.684-1.276-3.305-1.276h-2.071V231.445z"
   id="path54" />
	<path
   fill="#4D4D4F"
   d="M137.16,246.7v-32.938h14.256v4.47h-9.459v9.703h8.293v4.468h-8.293v9.701h9.459v4.724H137.16V246.7z"
   id="path56" />
	<path
   fill="#4D4D4F"
   d="M154.527,246.7v-32.938h7.706c5.637,0,8.49,3.191,8.49,9.701c0,3.959-1.363,6.705-4.147,8.234l5.183,15.068   h-5.051l-4.474-14.045h-2.849v14.045h-4.857V246.7z M159.319,218.232v10.276h2.723c1.555,0,2.656-0.446,3.172-1.34   c0.455-0.704,0.648-1.98,0.648-3.768c0-1.786-0.258-3.128-0.712-3.83c-0.583-0.828-1.75-1.275-3.368-1.275h-2.463V218.232z"
   id="path58" />
	<path
   fill="#4D4D4F"
   d="M182.967,238.914v-17.428c0-2.555,0.843-4.532,2.528-6.064c1.554-1.34,3.366-1.977,5.506-1.977   c2.137,0,3.951,0.637,5.505,1.977c1.687,1.532,2.529,3.51,2.529,6.064v17.428c0,2.551-0.843,4.531-2.529,5.998   c-1.554,1.341-3.368,2.042-5.505,2.042c-2.141,0-3.953-0.701-5.506-2.042C183.811,243.445,182.967,241.465,182.967,238.914z    M187.763,221.55v17.428c0,1.086,0.323,1.914,0.971,2.487c0.583,0.575,1.295,0.83,2.268,0.83c0.905,0,1.683-0.255,2.333-0.83   c0.583-0.573,0.906-1.401,0.906-2.487V221.55c0-1.082-0.323-1.915-0.906-2.488c-0.582-0.574-1.361-0.829-2.333-0.829   c-0.973,0-1.685,0.255-2.268,0.829C188.086,219.635,187.763,220.468,187.763,221.55z"
   id="path60" />
	<path
   fill="#4D4D4F"
   d="M203.248,246.7v-32.938H217.5v4.47h-9.459v10.02h8.292v4.47h-8.292v14.045h-4.793V246.7z"
   id="path62" />
	<g
   id="g139">
		<g
   id="layer1">
			
				<linearGradient
   id="path855_1_"
   gradientUnits="userSpaceOnUse"
   x1="165.7925"
   y1="239.5088"
   x2="165.8325"
   y2="244.5858"
   gradientTransform="matrix(9.8462 0 0 -9.8462 -1073.7803 2623.2578)">
				<stop
   offset="0"
   style="stop-color:#97999C"
   id="stop64" />
				<stop
   offset="1"
   style="stop-color:#97999C;stop-opacity:0.9608"
   id="stop66" />
			</linearGradient>
			<path
   id="path855"
   fill="url(#path855_1_)"
   d="M492.482,215.081c0,0-2.376,0.126-3.49,0.809     c-1.105,0.683-1.738,1.321-2.362,2.508l-21.746,43.095c0,0-0.488,1.387,0.474,2.474c0.965,1.088,2.943,1.088,2.943,1.088h156.704     c0,0,2.224,0.067,3.988-1.197c1.771-1.262,2.366-2.978,2.366-2.978l21.429-42.188c0,0,0.497-1.373-0.341-2.245     c-0.846-0.879-1.771-1.364-3.114-1.364H492.482z" />
			
				<linearGradient
   id="path857_1_"
   gradientUnits="userSpaceOnUse"
   x1="165.8057"
   y1="239.5791"
   x2="165.8094"
   y2="244.5124"
   gradientTransform="matrix(9.8462 0 0 -9.8462 -1073.7803 2623.2578)">
				<stop
   offset="0"
   style="stop-color:#E6E6E7"
   id="stop70" />
				<stop
   offset="1"
   style="stop-color:#7D7E81"
   id="stop72" />
			</linearGradient>
			
				<path
   id="path857"
   fill="url(#path857_1_)"
   d="     M630.475,261.248c0,0-0.825,1.728-2.436,2.439c-1.613,0.705-2.706,0.613-2.706,0.613H467.896c0,0-2.289-0.068-2.485-1.605     c0,0-0.184-0.636,0.37-1.73c0.562-1.092,21.214-41.971,21.214-41.971s0.972-1.871,2.229-2.404c0,0,1.624-0.9,3.199-0.86h157.583     c0,0,1.821,0.273,2.105,1.297c0.28,1.034-0.077,1.902-0.077,1.902L630.475,261.248z" />
			<g
   id="g1095"
   transform="matrix(9.8461872,0,0,9.8461872,-790.69256,-2354.9124)">
				<g
   id="g1093">
					<g
   id="g1102">
						
							<linearGradient
   id="path865_1_"
   gradientUnits="userSpaceOnUse"
   x1="97.1421"
   y1="263.4952"
   x2="97.1977"
   y2="268.5723"
   gradientTransform="matrix(9.8462 0 0 -9.8462 -819.4435 2860.5059)">
							<stop
   offset="0"
   style="stop-color:#FFFFFF"
   id="stop76" />
							<stop
   offset="0.1025"
   style="stop-color:#A6A8AB"
   id="stop78" />
							<stop
   offset="0.203"
   style="stop-color:#7C7D7F"
   id="stop80" />
							<stop
   offset="0.2558"
   style="stop-color:#6F7072"
   id="stop82" />
							<stop
   offset="0.3096"
   style="stop-color:#6D6E71"
   id="stop84" />
							<stop
   offset="0.3749"
   style="stop-color:#6F7072"
   id="stop86" />
							<stop
   offset="0.4503"
   style="stop-color:#737477"
   id="stop88" />
							<stop
   offset="0.5234"
   style="stop-color:#737477"
   id="stop90" />
							<stop
   offset="0.6048"
   style="stop-color:#818285"
   id="stop92" />
							<stop
   offset="0.6958"
   style="stop-color:#919396"
   id="stop94" />
							<stop
   offset="0.767"
   style="stop-color:#A4A6A9"
   id="stop96" />
							<stop
   offset="1"
   style="stop-color:#FFFFFF"
   id="stop98" />
						</linearGradient>
						<path
   id="path865"
   opacity="0.99"
   fill="url(#path865_1_)"
   enable-background="new    "
   d="M145.971,261.125        c0,0,0.269,0.016,0.325,0.197c0,0,0.035,0.079-0.033,0.209l-2.132,4.165c0,0-0.133,0.215-0.343,0.213h-15.843        c0,0-0.128-0.034-0.123-0.156c0.005-0.123,0.039-0.192,0.039-0.192l2.075-4.075c0,0,0.15-0.362,0.574-0.362        C130.933,261.125,145.971,261.125,145.971,261.125L145.971,261.125z" />
					</g>
				</g>
			</g>
			<g
   id="path2286">
				<path
   d="M576.631,222.219c0,0,2.303,0.317,2.795,1.738c0.5,1.422-0.484,2.823-0.484,2.823l-16.824,29.699      c0,0-1.484,2.422-4.307,2.412c-2.912-0.015-4.484-2.703-4.484-2.703l-9.51-16.546v16.86c0,0,0,0.752-0.774,1.505      c-0.429,0.416-0.977,0.894-1.829,0.894h-12.752c0,0-1.065-0.25-1.742-1.056c-0.639-0.767-0.667-1.407-0.667-1.976v-18.289      l-11.194,19.19c0,0-1.599,2.13-4.039,2.13c-2.43,0-3.819-1.642-4.008-1.951c-0.19-0.318-17.818-31.105-17.818-31.105      s-0.741-1.736,0.824-2.942c0,0,0.763-0.684,2.057-0.684c1.306,0,11.135,0,11.135,0s1.689,0.011,2.666,1.693      c0.979,1.684,5.233,9.531,5.233,9.531l5.193-9.564c0,0,0.997-1.66,2.685-1.66s30.134,0,30.134,0s2.159,0.065,3.177,1.746      c1.029,1.683,5.79,8.791,5.79,8.791l5.237-9.05c0,0,0.747-1.487,2.429-1.487C567.239,222.219,576.631,222.219,576.631,222.219      L576.631,222.219z"
   id="path105" />
			</g>
			<path
   id="path875"
   fill="#FFFFFF"
   d="M576.631,222.219c0,0,2.303,0.317,2.795,1.738     c0.5,1.422-0.484,2.823-0.484,2.823l-16.824,29.699c0,0-1.484,2.422-4.307,2.412c-2.912-0.015-4.484-2.703-4.484-2.703     l-9.51-16.546v16.86c0,0,0,0.752-0.774,1.505c-0.429,0.416-0.977,0.894-1.829,0.894h-12.752c0,0-1.065-0.25-1.742-1.056     c-0.639-0.767-0.667-1.407-0.667-1.976v-18.289l-11.194,19.19c0,0-1.599,2.13-4.039,2.13c-2.43,0-3.819-1.642-4.008-1.951     c-0.19-0.318-17.818-31.105-17.818-31.105s-0.741-1.736,0.824-2.942c0,0,0.763-0.684,2.057-0.684c1.306,0,11.135,0,11.135,0     s1.689,0.011,2.666,1.693c0.979,1.684,5.233,9.531,5.233,9.531l5.193-9.564c0,0,0.997-1.66,2.685-1.66s30.134,0,30.134,0     s2.159,0.065,3.177,1.746c1.029,1.683,5.79,8.791,5.79,8.791l5.237-9.05c0,0,0.747-1.487,2.429-1.487     C567.239,222.219,576.631,222.219,576.631,222.219z" />
			<path
   id="path871"
   fill="#293088"
   d="M576.789,223.449c0,0,1.268,0.151,1.455,1.229c0,0,0.156,0.337-0.357,1.18     c-0.513,0.852-16.797,29.774-16.797,29.774s-1.336,1.92-3.146,1.875c-1.809-0.045-2.869-1.222-3.322-1.875     c-0.451-0.658-10.902-18.768-10.902-18.768s-0.498-1.193,0.783-1.305h11.694c0,0,1.402,0.215,2.585-1.872     c1.188-2.087,5.277-9.17,5.277-9.17s0.549-1.068,1.609-1.068C566.725,223.449,576.789,223.449,576.789,223.449z" />
			<path
   id="path885"
   fill="#129848"
   d="M543.352,234.562c0,0-0.535,0.063-0.813,0.386     c-0.286,0.319-0.313,0.884-0.313,0.884v20.776c0,0-0.109,0.839-0.977,0.839c-0.871,0-12.693,0-12.693,0s-1.021-0.158-1.021-1.188     c0-1.031,0-19.998,0-19.998s-0.062-1.438,0.716-2.658c0.785-1.222,5.407-9.043,5.407-9.043s0.573-1.11,1.872-1.11     c1.285,0,13.513,0,13.513,0s1.02-0.098,1.634,0.835c0.621,0.922,5.828,9.055,5.828,9.055s0.307,0.343-0.056,0.783     c-0.349,0.439-0.935,0.439-0.935,0.439H543.352z" />
			<path
   id="path893"
   fill="#DC1F26"
   d="M531.255,223.449c0,0,0.676,0,0.684,0.852     c0,0.445-0.245,0.927-0.245,0.927l-17.674,30.379c0,0-1.181,1.896-3.128,1.896c-1.941,0-2.913-1.257-2.913-1.257l-17.697-30.77     c0,0-0.396-0.808,0.068-1.418c0.467-0.608,1.229-0.608,1.229-0.608h11.368c0,0,0.951-0.051,1.484,0.815     c0.533,0.867,5.746,10.297,5.746,10.297s0.379,0.593,0.729,0.564c0.344-0.021,0.695-0.564,0.695-0.564l5.649-10.204     c0,0,0.555-0.908,1.555-0.908H531.255z" />
			<path
   id="path2032"
   d="M604.002,238.502c-1.623-0.035-2.075,1.309-2.075,1.824v12.098c0,0,0,2.343,2.134,4.438     c1.109,1.086,2.839,2.04,5.085,2.04c0,0,1.924,0.079,3.506-0.719c0.828-0.421,1.672-0.928,2.264-1.751     c0,0,1.724-2.108,1.837-3.905c0.102-1.785-0.221-3.258-0.672-4.058c-0.454-0.796-1.589-3.031-4.936-4.008     c0,0-2.596-0.462-3.62,0.069c0,0-1.382,0.479-1.382,1.881c0,0-0.205,1.694,1.855,1.835c2.054,0.143,2.546-0.096,3.691,0.96     c1.145,1.055,1.031,2.576,1.031,2.576s0.078,1.767-2.049,2.88c-2.128,1.104-3.842-0.832-3.842-0.832s-0.883-0.872-0.883-2.091     v-11.677C605.947,240.063,605.623,238.536,604.002,238.502z M582.209,238.56c-0.648-0.007-1.533,0.057-2.682,0.292     c-3.078,0.629-5.334,3.452-5.334,3.452s-1.982,2.175-2.2,5.161c-0.224,2.991,0.669,5.211,0.669,5.211s0.594,1.899,3.387,4.246     c2.795,2.35,6.956,1.979,6.956,1.979c1.379,0,2.087-0.954,2.087-0.954s0.708-0.708,0.128-1.859     c-0.563-1.131-2.149-1.058-2.149-1.058c-1.737,0.015-2.538-0.227-2.538-0.227c-3.068-0.869-4.049-3.516-4.049-3.516     s-0.479-1.009-0.493-2.976c-0.006-1.968,1.314-3.475,1.314-3.475c2.393-2.61,4.378-2.395,6.233-2.384s1.691-1.868,1.691-1.868     c-0.017-1.31-1.497-1.791-1.497-1.791S583.289,238.571,582.209,238.56L582.209,238.56z M592.765,244.344     c-0.37,0.011-0.754,0.045-1.165,0.109c-3.842,0.606-5.503,4.282-5.503,4.282s-0.815,1.564-0.318,4.655     c0.503,3.089,3.403,4.526,3.403,4.526c2.064,1.214,5.132,0.984,5.132,0.984c1.277,0,1.892-1.122,1.892-2.019     c0-0.747-0.526-1.232-0.526-1.232c-0.61-0.662-2.519-0.62-2.519-0.62s-3.643-0.09-3.553-3.374     c0.081-3.288,3.302-3.413,3.302-3.413c3.132,0.125,3.434,3.093,3.434,3.093v5.935c0,0-0.013,1.631,2.115,1.631     c1.882,0,1.882-1.302,1.882-1.302v-5.415c0,0,0.047-2.009-0.61-3.688c-0.672-1.677-2.81-3.112-2.81-3.112     S595.353,244.274,592.765,244.344L592.765,244.344z" />
			<path
   id="path895"
   fill="#FFFFFF"
   d="M604.002,238.502c-1.623-0.035-2.075,1.309-2.075,1.824v12.098c0,0,0,2.343,2.134,4.438     c1.109,1.086,2.839,2.04,5.085,2.04c0,0,1.924,0.079,3.506-0.719c0.828-0.421,1.672-0.934,2.264-1.751     c0,0,1.724-2.108,1.837-3.905c0.102-1.785-0.221-3.258-0.672-4.058c-0.454-0.796-1.589-3.031-4.936-4.008     c0,0-2.596-0.462-3.62,0.069c0,0-1.382,0.479-1.382,1.881c0,0-0.205,1.694,1.855,1.835c2.054,0.143,2.546-0.096,3.691,0.96     c1.145,1.055,1.031,2.576,1.031,2.576s0.078,1.767-2.049,2.88c-2.128,1.104-3.842-0.832-3.842-0.832s-0.883-0.872-0.883-2.091     v-11.677C605.947,240.063,605.623,238.536,604.002,238.502L604.002,238.502z M582.209,238.56     c-0.648-0.007-1.533,0.057-2.682,0.292c-3.078,0.629-5.334,3.452-5.334,3.452s-1.982,2.175-2.2,5.161     c-0.224,2.991,0.669,5.211,0.669,5.211s0.594,1.899,3.387,4.246c2.795,2.35,6.956,1.979,6.956,1.979     c1.379,0,2.087-0.954,2.087-0.954s0.708-0.708,0.128-1.859c-0.563-1.131-2.149-1.058-2.149-1.058     c-1.737,0.012-2.538-0.227-2.538-0.227c-3.068-0.869-4.049-3.516-4.049-3.516s-0.479-1.009-0.493-2.976     c-0.006-1.968,1.314-3.475,1.314-3.475c2.393-2.61,4.378-2.395,6.233-2.384s1.691-1.868,1.691-1.868     c-0.017-1.31-1.497-1.791-1.497-1.791S583.289,238.571,582.209,238.56L582.209,238.56z M592.765,244.344     c-0.37,0.011-0.754,0.045-1.165,0.109c-3.842,0.606-5.503,4.282-5.503,4.282s-0.815,1.564-0.318,4.655     c0.503,3.089,3.403,4.526,3.403,4.526c2.064,1.214,5.132,0.984,5.132,0.984c1.277,0,1.892-1.122,1.892-2.019     c0-0.747-0.526-1.232-0.526-1.232c-0.61-0.662-2.519-0.62-2.519-0.62s-3.643-0.09-3.553-3.374     c0.081-3.288,3.302-3.413,3.302-3.413c3.132,0.125,3.434,3.093,3.434,3.093v5.935c0,0-0.013,1.631,2.115,1.631     c1.882,0,1.882-1.302,1.882-1.302v-5.415c0,0,0.047-2.009-0.61-3.688c-0.672-1.677-2.814-3.112-2.814-3.112     S595.353,244.274,592.765,244.344L592.765,244.344z" />
			<g
   id="ellipse1606">
				<path
   d="M623.378,249.943c2.468,0,4.477,2.005,4.477,4.47c0,2.461-2.009,4.461-4.477,4.461c-2.479,0-4.491-2-4.491-4.461      C618.887,251.948,620.899,249.943,623.378,249.943z"
   id="path114" />
			</g>
			<path
   id="path911"
   fill="#FFFFFF"
   d="M623.378,249.943c2.468,0,4.477,2.005,4.477,4.47c0,2.461-2.009,4.461-4.477,4.461     c-2.479,0-4.491-2-4.491-4.461C618.887,251.948,620.899,249.943,623.378,249.943z" />
			<path
   id="path913"
   fill="#E62A2D"
   d="M623.383,250.818c1.984,0,3.595,1.601,3.595,3.577c0,1.976-1.61,3.574-3.595,3.574     c-1.988,0-3.602-1.599-3.602-3.574C619.781,252.419,621.394,250.818,623.383,250.818z" />
			<path
   id="path915"
   fill="#FFFFFF"
   d="M623.271,251.729c-0.107,0.011-0.225,0.038-0.351,0.095v2.28c0,0,0.405,0.184,0.88-0.015     v-2.259C623.801,251.83,623.592,251.7,623.271,251.729z M622.602,252.323c-1.009,0.314-1.686,1.24-1.686,2.276     c0,1.329,1.094,2.404,2.441,2.404c1.349,0,2.447-1.075,2.447-2.404c0-0.993-0.627-1.882-1.577-2.239v1.147     c0.366,0.256,0.581,0.661,0.581,1.092c0,0.752-0.631,1.358-1.415,1.358c-0.782,0-1.419-0.606-1.419-1.358     c0-0.451,0.232-0.874,0.627-1.128V252.323z" />
		</g>
		<path
   fill-rule="evenodd"
   clip-rule="evenodd"
   fill="#0066B2"
   d="M248.842,243.256c-0.198-5.601-0.487-11.145,2.273-16.39    c5.743-10.922,18.686-15.825,29.992-10.979c1.652,0.703,2.809,0.703,4.228-0.312c1.926-1.368,4.077-2.318,6.359-2.859    c2.979-0.705,5.233,0.932,5.479,4.071c0.11,1.381,0.11,2.862-0.257,4.168c-5.614,19.805-17.388,34.49-34.907,44.326    c-1.921,1.076-4.053,1.644-6.027,0.112c-2.165-1.672-2.18-4.132-1.782-6.566c0.681-4.196,2.51-7.959,4.334-11.725    c1.556-3.219,3.001-6.495,4.442-9.77c0.982-2.231,1.215-4.612,1.158-7.034c-0.063-2.37-0.802-4.373-3.037-5.365    c-2.315-1.021-4.445-0.316-6.2,1.323c-3.478,3.254-5.064,7.478-5.46,12.227c-0.068,0.796-0.025,1.603-0.035,2.401    C249.49,241.743,250.213,242.765,248.842,243.256z"
   id="path121" />
		<path
   fill-rule="evenodd"
   clip-rule="evenodd"
   fill="#0166B3"
   d="M360.703,242.536c0-4.652,0.181-8.439-0.058-12.189    c-0.162-2.6,1.37-2.105,2.753-2.095c1.455,0.013,3.112-0.59,3.023,2.173c-0.187,5.804-0.119,11.615-0.018,17.417    c0.029,1.786-0.645,2.077-2.203,2.196c-2.617,0.19-4.566-0.528-6.365-2.614c-3.522-4.077-7.307-7.928-10.983-11.876    c-0.28,0.169-0.563,0.338-0.85,0.504c0,3.841-0.14,7.688,0.051,11.516c0.132,2.456-1.097,2.521-2.831,2.431    c-1.536-0.082-3.024,0.36-2.936-2.297c0.198-5.799,0.109-11.614,0.031-17.418c-0.018-1.531,0.367-2,1.917-2.099    c3.071-0.207,5.497,0.429,7.664,3.017C353.061,234.97,356.67,238.345,360.703,242.536z"
   id="path123" />
		<path
   fill-rule="evenodd"
   clip-rule="evenodd"
   fill="#0166B3"
   d="M379.968,238.984c0-3.002,0.045-6.002-0.021-8.996    c-0.033-1.281,0.364-1.773,1.645-1.759c5.139,0.05,10.277-0.11,15.413,0.07c4.291,0.162,7.164,2.978,7.279,6.679    c0.12,3.797-2.766,6.776-7.189,7.092c-2.986,0.214-6.006,0.167-9.01,0.049c-1.771-0.07-2.533,0.511-2.283,2.371    c0.076,0.591,0.012,1.198,0.012,1.797c0,3.676-1.127,4.497-4.725,3.707c-1.303-0.282-1.105-1.158-1.114-2.016    C379.955,244.979,379.968,241.981,379.968,238.984z"
   id="path125" />
		<path
   fill-rule="evenodd"
   clip-rule="evenodd"
   fill="#0166B2"
   d="M304.06,228.61c4.409-1.439,6.809,0.24,8.459,4.153    c1.464,3.46,3.507,6.66,5.573,10.495c1.967-3.879,3.747-7.362,5.51-10.857c2.381-4.727,2.375-4.727,8.128-3.814    c-3.525,6.877-6.956,13.686-10.521,20.412c-0.897,1.691-5.631,1.431-6.559-0.303C311.097,242.057,307.622,235.377,304.06,228.61z"
   id="path127" />
		<path
   fill-rule="evenodd"
   clip-rule="evenodd"
   fill="#0166B3"
   d="M422.353,228.244c3.305,0,6.617,0.114,9.909-0.047    c1.899-0.093,1.964,0.857,1.958,2.344c-0.01,1.465-0.068,2.646-1.958,2.333c-0.095-0.015-0.195-0.009-0.29,0    c-2.217,0.13-5.094-0.972-6.488,0.442c-1.533,1.553-0.39,4.569-0.506,6.941c-0.1,1.998-0.021,4.004-0.021,6.011    c-0.002,3.603-1.477,4.651-4.984,3.716c-1.351-0.363-0.92-1.35-0.926-2.13c-0.047-4.209-0.104-8.416,0.015-12.621    c0.048-1.784-0.362-2.589-2.229-2.395c-1.441,0.155-2.924-0.079-4.367,0.062c-1.918,0.192-2.457-0.561-2.512-2.529    c-0.051-2.142,0.985-2.174,2.493-2.148C415.75,228.28,419.053,228.244,422.353,228.244z"
   id="path129" />
		<path
   fill-rule="evenodd"
   clip-rule="evenodd"
   fill="#0066B2"
   d="M295.26,234.55c2.965,13.459-8.522,27.771-22.185,27.733    c5.314-3.39,9.566-7.406,13.197-12.107C289.833,245.563,292.99,240.687,295.26,234.55z"
   id="path131" />
		<path
   fill-rule="evenodd"
   clip-rule="evenodd"
   fill="#0066B2"
   d="M248.842,243.256c0.184-0.791,0.375-1.582,0.561-2.371    c0.385,2.19,0.773,4.382,1.159,6.569C249.385,246.269,248.878,244.851,248.842,243.256z"
   id="path133" />
		<path
   fill-rule="evenodd"
   clip-rule="evenodd"
   fill="#FFFFFF"
   d="M284.824,217.707c3.037-1.231,5.602-4.057,7.947-1.657    c2.41,2.455,0.11,5.507-0.881,8.688C289.791,221.971,287.738,219.805,284.824,217.707z"
   id="path135" />
		<path
   fill-rule="evenodd"
   clip-rule="evenodd"
   fill="#F8FBFC"
   d="M390.789,238.354c-0.385,0-0.776,0-1.16,0    c-3.791,0-4.719-1.316-3.838-5.257c0.201-0.896,0.62-1.13,1.384-1.124c2.617,0.017,5.235-0.09,7.843,0.063    c1.86,0.114,3.519,0.927,3.492,3.205c-0.023,2.134-1.611,2.828-3.373,2.979c-1.439,0.123-2.898,0.026-4.348,0.026    C390.789,238.283,390.789,238.317,390.789,238.354z"
   id="path137" />
	</g>
</g>
</svg>
