<svg width="64" height="64" viewBox="0 0 64 64" fill="none" xmlns="http://www.w3.org/2000/svg">
<path d="M38.4486 53.6611C38.0804 55.0916 37.2471 56.359 36.0797 57.264C34.9124 58.169 33.4772 58.6601 32.0002 58.6601C30.5231 58.6601 29.0879 58.169 27.9206 57.264C26.7532 56.359 25.9199 55.0916 25.5518 53.6611H38.4486Z" fill="url(#paint0_linear_185_9726)"/>
<path d="M40.3317 50.3281H23.6692C23.2273 50.3281 22.8034 50.1526 22.491 49.8401C22.1785 49.5276 22.0029 49.1038 22.0029 48.6619C22.0029 48.2199 22.1785 47.7961 22.491 47.4836C22.8034 47.1712 23.2273 46.9956 23.6692 46.9956H40.3317C40.7737 46.9956 41.1975 47.1712 41.51 47.4836C41.8224 47.7961 41.998 48.2199 41.998 48.6619C41.998 49.1038 41.8224 49.5276 41.51 49.8401C41.1975 50.1526 40.7737 50.3281 40.3317 50.3281Z" fill="url(#paint1_linear_185_9726)"/>
<path d="M31.9997 30.3335C34.7605 30.3335 36.9985 28.0954 36.9985 25.3347C36.9985 22.574 34.7605 20.3359 31.9997 20.3359C29.239 20.3359 27.001 22.574 27.001 25.3347C27.001 28.0954 29.239 30.3335 31.9997 30.3335Z" fill="url(#paint2_linear_185_9726)"/>
<path d="M51.8784 23.1351C51.3755 18.6322 49.3595 14.4331 46.1602 11.2247C42.9609 8.01632 38.7676 5.98847 34.2661 5.4728C31.4601 5.13815 28.6149 5.40813 25.9219 6.2646C23.2289 7.12107 20.7505 8.54418 18.6533 10.4382C16.2613 12.5839 14.4212 15.274 13.2887 18.2812C12.1562 21.2884 11.7647 24.524 12.1471 27.7145C12.5296 30.905 13.6748 33.9565 15.486 36.6107C17.2972 39.265 19.7209 41.4441 22.5523 42.9635C22.9216 43.1578 23.2681 43.3925 23.5854 43.6634H40.3813C40.6705 43.4093 40.9894 43.1911 41.331 43.0135C44.8861 41.1472 47.7949 38.2512 49.6768 34.7044C51.5588 31.1576 52.3261 27.1252 51.8784 23.1351ZM41.9975 27.0008H40.1628C39.9479 28.0438 39.5338 29.0355 38.9433 29.9216L40.2475 31.2258C40.4022 31.3805 40.525 31.5642 40.6087 31.7663C40.6925 31.9685 40.7356 32.1851 40.7356 32.404C40.7357 32.6228 40.6926 32.8395 40.6089 33.0416C40.5251 33.2438 40.4024 33.4275 40.2477 33.5823C40.093 33.737 39.9093 33.8598 39.7072 33.9435C39.505 34.0273 39.2883 34.0704 39.0695 34.0704C38.8507 34.0705 38.634 34.0274 38.4318 33.9437C38.2297 33.86 38.046 33.7372 37.8912 33.5825L36.587 32.2783C35.7009 32.8687 34.7092 33.2826 33.6662 33.4974V35.3321C33.6662 35.774 33.4907 36.1978 33.1782 36.5103C32.8657 36.8228 32.4419 36.9983 32 36.9983C31.5581 36.9983 31.1343 36.8228 30.8218 36.5103C30.5093 36.1978 30.3337 35.774 30.3337 35.3321V33.4974C29.2908 33.2825 28.2991 32.8684 27.413 32.2778L26.1088 33.582C25.9541 33.7368 25.7704 33.8595 25.5682 33.9433C25.3661 34.027 25.1494 34.0702 24.9306 34.0702C24.7118 34.0702 24.4951 34.0271 24.2929 33.9434C24.0907 33.8597 23.907 33.737 23.7523 33.5823C23.4398 33.2698 23.2642 32.846 23.2641 32.4041C23.2641 32.1852 23.3072 31.9686 23.3909 31.7664C23.4746 31.5642 23.5973 31.3805 23.752 31.2258L25.0562 29.9216C24.4658 29.0355 24.0519 28.0437 23.8372 27.0008H22.0025C21.5605 27.0008 21.1367 26.8253 20.8242 26.5128C20.5118 26.2003 20.3362 25.7765 20.3362 25.3346C20.3362 24.8926 20.5118 24.4688 20.8242 24.1563C21.1367 23.8439 21.5605 23.6683 22.0025 23.6683H23.8372C24.0521 22.6253 24.4661 21.6336 25.0567 20.7475L23.752 19.4433C23.5973 19.2886 23.4745 19.1049 23.3908 18.9027C23.307 18.7005 23.2639 18.4838 23.2639 18.265C23.2639 18.0461 23.307 17.8294 23.3908 17.6272C23.4745 17.4251 23.5973 17.2413 23.752 17.0866C23.9068 16.9319 24.0905 16.8091 24.2927 16.7254C24.4949 16.6416 24.7116 16.5985 24.9304 16.5985C25.1493 16.5985 25.366 16.6416 25.5681 16.7254C25.7703 16.8091 25.954 16.9319 26.1088 17.0866L27.413 18.3908C28.2991 17.8004 29.2908 17.3865 30.3337 17.1717V15.337C30.3337 14.8951 30.5093 14.4713 30.8218 14.1588C31.1343 13.8463 31.5581 13.6708 32 13.6708C32.4419 13.6708 32.8657 13.8463 33.1782 14.1588C33.4907 14.4713 33.6662 14.8951 33.6662 15.337V17.1717C34.7092 17.3866 35.7009 17.8007 36.587 18.3913L37.8912 17.0871C38.0459 16.9324 38.2296 16.8096 38.4318 16.7258C38.6339 16.6421 38.8506 16.5989 39.0694 16.5989C39.2882 16.5989 39.5049 16.642 39.7071 16.7257C39.9093 16.8094 40.093 16.9321 40.2477 17.0868C40.4025 17.2416 40.5252 17.4252 40.609 17.6274C40.6927 17.8296 40.7359 18.0462 40.7359 18.265C40.7359 18.4839 40.6928 18.7006 40.6091 18.9027C40.5254 19.1049 40.4027 19.2886 40.248 19.4433L38.9438 20.7475C39.5342 21.6337 39.9481 22.6254 40.1628 23.6683H41.9975C42.4394 23.6683 42.8633 23.8439 43.1757 24.1563C43.4882 24.4688 43.6638 24.8926 43.6638 25.3346C43.6638 25.7765 43.4882 26.2003 43.1757 26.5128C42.8633 26.8253 42.4394 27.0008 41.9975 27.0008Z" fill="url(#paint3_linear_185_9726)"/>
<path d="M8.67235 27.001H7.0061C6.56418 27.001 6.14036 26.8254 5.82788 26.5129C5.5154 26.2004 5.33984 25.7766 5.33984 25.3347C5.33984 24.8928 5.5154 24.469 5.82788 24.1565C6.14036 23.844 6.56418 23.6685 7.0061 23.6685H8.67235C9.11427 23.6685 9.53809 23.844 9.85057 24.1565C10.1631 24.469 10.3386 24.8928 10.3386 25.3347C10.3386 25.7766 10.1631 26.2004 9.85057 26.5129C9.53809 26.8254 9.11427 27.001 8.67235 27.001Z" fill="url(#paint4_linear_185_9726)"/>
<path d="M13.3486 12.9874C12.9878 12.9878 12.6368 12.8703 12.3488 12.653L11.0158 11.6515C10.6709 11.3831 10.4453 10.9898 10.3876 10.5565C10.3299 10.1232 10.4448 9.68464 10.7075 9.33528C10.9702 8.98592 11.3597 8.75377 11.7919 8.68888C12.2242 8.62399 12.6646 8.73155 13.0183 8.98837L14.3513 9.98996C14.6306 10.2002 14.8366 10.4929 14.9403 10.8266C15.0441 11.1604 15.0402 11.5183 14.9293 11.8498C14.8184 12.1812 14.6061 12.4694 14.3225 12.6736C14.0388 12.8777 13.6981 12.9875 13.3486 12.9874Z" fill="url(#paint5_linear_185_9726)"/>
<path d="M12.0189 42.0147C11.6693 42.015 11.3284 41.9052 11.0446 41.701C10.7608 41.4968 10.5484 41.2085 10.4376 40.8769C10.3267 40.5452 10.3229 40.1872 10.4268 39.8533C10.5307 39.5195 10.737 39.2268 11.0165 39.0166L12.3495 38.0152C12.7034 37.7617 13.1425 37.6568 13.5728 37.723C14.0031 37.7891 14.3904 38.021 14.6519 38.369C14.9134 38.7171 15.0283 39.1537 14.972 39.5854C14.9157 40.017 14.6927 40.4096 14.3507 40.6789L13.0177 41.6805C12.73 41.8976 12.3793 42.0149 12.0189 42.0147Z" fill="url(#paint6_linear_185_9726)"/>
<path d="M56.9936 27.001H55.3274C54.8855 27.001 54.4616 26.8254 54.1492 26.5129C53.8367 26.2004 53.6611 25.7766 53.6611 25.3347C53.6611 24.8928 53.8367 24.469 54.1492 24.1565C54.4616 23.844 54.8855 23.6685 55.3274 23.6685H56.9936C57.4356 23.6685 57.8594 23.844 58.1719 24.1565C58.4843 24.469 58.6599 24.8928 58.6599 25.3347C58.6599 25.7766 58.4843 26.2004 58.1719 26.5129C57.8594 26.8254 57.4356 27.001 56.9936 27.001Z" fill="url(#paint7_linear_185_9726)"/>
<path d="M50.6508 12.9875C50.3011 12.9878 49.9603 12.878 49.6764 12.6738C49.3926 12.4696 49.1803 12.1812 49.0694 11.8496C48.9585 11.518 48.9548 11.16 49.0587 10.8261C49.1626 10.4922 49.3689 10.1995 49.6483 9.98943L50.9814 8.98784C51.3352 8.73176 51.7754 8.62484 52.2072 8.69009C52.6391 8.75535 53.0281 8.98755 53.2904 9.33674C53.5528 9.68592 53.6676 10.1242 53.61 10.5571C53.5525 10.9901 53.3273 11.3831 52.9829 11.6517L51.6499 12.6531C51.3621 12.8703 51.0113 12.9877 50.6508 12.9875Z" fill="url(#paint8_linear_185_9726)"/>
<path d="M51.9804 42.0152C51.6197 42.0155 51.2687 41.8982 50.9807 41.6809L49.6477 40.6793C49.2944 40.4138 49.061 40.0188 48.9989 39.5812C48.9369 39.1436 49.0512 38.6992 49.3167 38.3459C49.5823 37.9926 49.9773 37.7592 50.4149 37.6972C50.8525 37.6351 51.2969 37.7494 51.6502 38.015L52.9832 39.0164C53.2626 39.2265 53.4689 39.5192 53.5728 39.8531C53.6768 40.1869 53.673 40.545 53.5621 40.8766C53.4513 41.2082 53.2389 41.4965 52.9551 41.7008C52.6713 41.905 52.3301 42.0154 51.9804 42.0152Z" fill="url(#paint9_linear_185_9726)"/>
<defs>
<linearGradient id="paint0_linear_185_9726" x1="25.5518" y1="54.1583" x2="38.7876" y2="55.6483" gradientUnits="userSpaceOnUse">
<stop offset="0.5" stop-color="#067FED"/>
<stop offset="1" stop-color="#4BF06F"/>
</linearGradient>
<linearGradient id="paint1_linear_185_9726" x1="22.0029" y1="47.3271" x2="41.4507" y2="52.4185" gradientUnits="userSpaceOnUse">
<stop offset="0.5" stop-color="#067FED"/>
<stop offset="1" stop-color="#4BF06F"/>
</linearGradient>
<linearGradient id="paint2_linear_185_9726" x1="27.001" y1="21.3303" x2="37.3716" y2="21.7828" gradientUnits="userSpaceOnUse">
<stop offset="0.5" stop-color="#067FED"/>
<stop offset="1" stop-color="#4BF06F"/>
</linearGradient>
<linearGradient id="paint3_linear_185_9726" x1="12.0049" y1="9.14587" x2="53.4884" y2="11.0347" gradientUnits="userSpaceOnUse">
<stop offset="0.5" stop-color="#067FED"/>
<stop offset="1" stop-color="#4BF06F"/>
</linearGradient>
<linearGradient id="paint4_linear_185_9726" x1="5.33984" y1="23.9999" x2="10.5129" y2="24.3385" gradientUnits="userSpaceOnUse">
<stop offset="0.5" stop-color="#067FED"/>
<stop offset="1" stop-color="#4BF06F"/>
</linearGradient>
<linearGradient id="paint5_linear_185_9726" x1="10.373" y1="9.09979" x2="15.1872" y2="9.32568" gradientUnits="userSpaceOnUse">
<stop offset="0.5" stop-color="#067FED"/>
<stop offset="1" stop-color="#4BF06F"/>
</linearGradient>
<linearGradient id="paint6_linear_185_9726" x1="10.3516" y1="38.1324" x2="15.1575" y2="38.3578" gradientUnits="userSpaceOnUse">
<stop offset="0.5" stop-color="#067FED"/>
<stop offset="1" stop-color="#4BF06F"/>
</linearGradient>
<linearGradient id="paint7_linear_185_9726" x1="53.6611" y1="23.9999" x2="58.8342" y2="24.3385" gradientUnits="userSpaceOnUse">
<stop offset="0.5" stop-color="#067FED"/>
<stop offset="1" stop-color="#4BF06F"/>
</linearGradient>
<linearGradient id="paint8_linear_185_9726" x1="48.9834" y1="9.10068" x2="53.7963" y2="9.3265" gradientUnits="userSpaceOnUse">
<stop offset="0.5" stop-color="#067FED"/>
<stop offset="1" stop-color="#4BF06F"/>
</linearGradient>
<linearGradient id="paint9_linear_185_9726" x1="48.9824" y1="38.1118" x2="53.8208" y2="38.339" gradientUnits="userSpaceOnUse">
<stop offset="0.5" stop-color="#067FED"/>
<stop offset="1" stop-color="#4BF06F"/>
</linearGradient>
</defs>
</svg>
