<svg width="64" height="64" viewBox="0 0 64 64" fill="none" xmlns="http://www.w3.org/2000/svg">
<path d="M6.90678 53.3331H38.2223C37.6452 52.4142 37.2903 51.3603 37.2903 50.222V47.1108H5.23122C4.30587 47.1108 3.55566 47.8071 3.55566 48.6664V50.222C3.55566 51.94 5.05596 53.3331 6.90678 53.3331Z" fill="url(#paint0_linear_185_9710)"/>
<path d="M7.11133 15.5998V43.5554H37.0661V23.8221C37.0661 20.1943 40.0295 17.2443 43.6738 17.2443H56.8891V15.5998C56.8891 12.8795 54.6661 10.6665 51.9334 10.6665H12.0671C9.33437 10.6665 7.11133 12.8795 7.11133 15.5998Z" fill="url(#paint1_linear_185_9710)"/>
<path d="M57.037 20.4443H43.4074C41.529 20.4443 40 21.9202 40 23.7332V50.0443C40 51.8574 41.529 53.3332 43.4074 53.3332H57.037C58.9154 53.3332 60.4444 51.8574 60.4444 50.0443V23.7332C60.4444 21.9202 58.9154 20.4443 57.037 20.4443ZM50.2222 25.3777C51.1631 25.3777 51.9259 26.1137 51.9259 27.0221C51.9259 27.9303 51.1631 28.6666 50.2222 28.6666C49.2813 28.6666 48.5185 27.9303 48.5185 27.0221C48.5185 26.1137 49.2813 25.3777 50.2222 25.3777ZM51.9259 48.3999H48.5185C47.5768 48.3999 46.8148 47.6644 46.8148 46.7554C46.8148 45.8465 47.5768 45.111 48.5185 45.111H51.9259C52.8676 45.111 53.6296 45.8465 53.6296 46.7554C53.6296 47.6644 52.8676 48.3999 51.9259 48.3999Z" fill="url(#paint2_linear_185_9710)"/>
<defs>
<linearGradient id="paint0_linear_185_9710" x1="3.55566" y1="47.7297" x2="37.5741" y2="55.9995" gradientUnits="userSpaceOnUse">
<stop offset="0.5" stop-color="#067FED"/>
<stop offset="1" stop-color="#4BF06F"/>
</linearGradient>
<linearGradient id="paint1_linear_185_9710" x1="7.11133" y1="13.9377" x2="58.6204" y2="17.3393" gradientUnits="userSpaceOnUse">
<stop offset="0.5" stop-color="#067FED"/>
<stop offset="1" stop-color="#4BF06F"/>
</linearGradient>
<linearGradient id="paint2_linear_185_9710" x1="40" y1="23.7155" x2="61.2322" y2="24.2914" gradientUnits="userSpaceOnUse">
<stop offset="0.5" stop-color="#067FED"/>
<stop offset="1" stop-color="#4BF06F"/>
</linearGradient>
</defs>
</svg>
