<svg width="64" height="64" viewBox="0 0 64 64" fill="none" xmlns="http://www.w3.org/2000/svg">
<path d="M55.931 26.4138C55.323 23.7949 54.2964 21.318 52.8711 19.0309L53.8505 16.1386L47.8615 10.1496L44.9691 11.1289C42.682 9.70361 40.2051 8.67693 37.5862 8.06901L36.2346 5.3335H27.7648L26.4132 8.0689C23.7943 8.67683 21.3174 9.7034 19.0304 11.1288L16.138 10.1495L10.1489 16.1385L11.1284 19.0308C9.70302 21.3179 8.67645 23.7948 8.06842 26.4137L5.33301 27.7653V36.2351L8.06842 37.5866C8.67634 40.2055 9.70291 42.6824 11.1284 44.9695L10.1489 47.8618L16.138 53.8508L19.0304 52.8715C21.3174 54.2968 23.7943 55.3235 26.4132 55.9314L27.7648 58.6668H36.2346L37.5861 55.9314C40.205 55.3235 42.6819 54.2969 44.969 52.8715L47.8614 53.8508L53.8504 47.8618L52.871 44.9695C54.2963 42.6824 55.323 40.2055 55.9309 37.5866L58.6663 36.2351V27.7653L55.931 26.4138ZM31.9997 50.3011C21.9086 50.3011 13.6988 42.0913 13.6988 32.0002C13.6988 21.9091 21.9085 13.6993 31.9997 13.6993C42.091 13.6993 50.3006 21.9091 50.3006 32.0002C50.3006 42.0913 42.0908 50.3011 31.9997 50.3011Z" fill="url(#paint0_linear_185_9742)"/>
<path d="M44.047 33.5634V30.4372H47.1109C46.3787 23.3064 40.6937 17.6213 33.5629 16.8892V19.9531H30.4367V16.8892C23.3059 17.6213 17.6208 23.3064 16.8887 30.4372H19.9526V33.5634H16.8887C17.6208 40.6942 23.3059 46.3792 30.4367 47.1114V44.0475H33.5629V47.1114C40.6937 46.3792 46.3787 40.6942 47.1109 33.5634H44.047ZM33.5629 33.5634H26.0589V30.4372H30.4367V23.0795H33.5629V33.5634Z" fill="url(#paint1_linear_185_9742)"/>
<defs>
<linearGradient id="paint0_linear_185_9742" x1="5.33301" y1="10.6382" x2="60.6566" y2="13.0521" gradientUnits="userSpaceOnUse">
<stop offset="0.5" stop-color="#067FED"/>
<stop offset="1" stop-color="#4BF06F"/>
</linearGradient>
<linearGradient id="paint1_linear_185_9742" x1="16.8887" y1="19.8951" x2="48.2387" y2="21.263" gradientUnits="userSpaceOnUse">
<stop offset="0.5" stop-color="#067FED"/>
<stop offset="1" stop-color="#4BF06F"/>
</linearGradient>
</defs>
</svg>
