<svg width="64" height="64" viewBox="0 0 64 64" fill="none" xmlns="http://www.w3.org/2000/svg">
<path d="M49.6795 46C50.0102 47.0041 50.0956 48.0728 49.9286 49.1167C49.7616 50.1605 49.347 51.1492 48.7195 52C48.166 52.7911 47.4296 53.4369 46.5731 53.8826C45.7165 54.3283 44.7651 54.5607 43.7995 54.56H20.1995C19.234 54.5607 18.2825 54.3283 17.426 53.8826C16.5694 53.4369 15.8331 52.7911 15.2795 52C14.6565 51.147 14.2447 50.1585 14.0778 49.1155C13.911 48.0725 13.9938 47.0048 14.3195 46C15.4522 42.1646 17.7759 38.7891 20.9544 36.3621C24.1329 33.9351 28.0012 32.5825 31.9995 32.5C35.9986 32.5794 39.8685 33.9309 43.0476 36.3583C46.2266 38.7858 48.5496 42.163 49.6795 46ZM12.9995 39.4C10.9985 40.0957 9.17762 41.2286 7.66925 42.7162C6.16088 44.2038 5.00292 46.0088 4.27954 48C4.01721 48.7285 3.93657 49.5101 4.04461 50.2768C4.15265 51.0435 4.44611 51.7723 4.89954 52.4C5.38549 53.0755 6.02535 53.6256 6.76615 54.0047C7.50694 54.3838 8.32738 54.581 9.15954 54.58H12.2195L11.9995 54.3C11.0146 52.9449 10.3636 51.3763 10.0995 49.722C9.83533 48.0677 9.96555 46.3745 10.4795 44.78C11.0935 42.8892 11.94 41.0821 12.9995 39.4ZM59.7195 48C58.9987 46.0074 57.8416 44.2011 56.3329 42.7131C54.8241 41.2252 53.002 40.0932 50.9995 39.4C52.0522 41.083 52.8919 42.8902 53.4995 44.78C54.01 46.3738 54.1401 48.0649 53.8797 49.7181C53.6192 51.3712 52.9753 52.9404 51.9995 54.3L51.8195 54.5H54.8795C55.7117 54.501 56.5321 54.3038 57.2729 53.9247C58.0137 53.5456 58.6536 52.9955 59.1395 52.32C59.5703 51.6968 59.8474 50.9805 59.9482 50.2296C60.049 49.4788 59.9706 48.7148 59.7195 48ZM47.9995 35.5C49.1862 35.5 50.3463 35.1481 51.333 34.4888C52.3197 33.8295 53.0887 32.8925 53.5428 31.7961C53.9969 30.6997 54.1158 29.4933 53.8843 28.3295C53.6527 27.1656 53.0813 26.0965 52.2422 25.2574C51.4031 24.4182 50.334 23.8468 49.1701 23.6153C48.0062 23.3838 46.7998 23.5026 45.7034 23.9567C44.6071 24.4109 43.67 25.1799 43.0107 26.1666C42.3514 27.1533 41.9995 28.3133 41.9995 29.5C41.9995 31.0913 42.6317 32.6174 43.7569 33.7426C44.8821 34.8679 46.4082 35.5 47.9995 35.5ZM15.9995 35.5C17.1862 35.5 18.3463 35.1481 19.333 34.4888C20.3197 33.8295 21.0887 32.8925 21.5428 31.7961C21.9969 30.6997 22.1158 29.4933 21.8842 28.3295C21.6527 27.1656 21.0813 26.0965 20.2422 25.2574C19.4031 24.4182 18.334 23.8468 17.1701 23.6153C16.0062 23.3838 14.7998 23.5026 13.7034 23.9567C12.6071 24.4109 11.67 25.1799 11.0107 26.1666C10.3514 27.1533 9.99954 28.3133 9.99954 29.5C9.99954 31.0913 10.6317 32.6174 11.7569 33.7426C12.8821 34.8679 14.4082 35.5 15.9995 35.5ZM31.9995 29.5C33.9774 29.5 35.9107 28.9135 37.5552 27.8147C39.1997 26.7159 40.4815 25.1541 41.2383 23.3268C41.9952 21.4996 42.1932 19.4889 41.8074 17.5491C41.4215 15.6093 40.4691 13.8275 39.0706 12.4289C37.6721 11.0304 35.8903 10.078 33.9504 9.69215C32.0106 9.3063 30 9.50433 28.1727 10.2612C26.3454 11.0181 24.7837 12.2998 23.6848 13.9443C22.586 15.5888 21.9995 17.5222 21.9995 19.5C21.9995 22.1522 23.0531 24.6957 24.9285 26.5711C26.8038 28.4464 29.3474 29.5 31.9995 29.5Z" fill="url(#paint0_linear_185_9702)"/>
<defs>
<linearGradient id="paint0_linear_185_9702" x1="3.99805" y1="13.9838" x2="62.0206" y2="17.1283" gradientUnits="userSpaceOnUse">
<stop offset="0.5" stop-color="#067FED"/>
<stop offset="1" stop-color="#4BF06F"/>
</linearGradient>
</defs>
</svg>
