<svg width="64" height="64" viewBox="0 0 64 64" fill="none" xmlns="http://www.w3.org/2000/svg">
<path d="M50.2261 41.1859L48.4148 43.5555L50.8311 45.3337H45.5942V42.3707H18.4067V45.3337H15.2852C11.9532 45.3337 9.24349 42.6762 9.24349 39.4077C9.24349 36.1395 11.9532 33.4816 15.2852 33.4816H18.4067V36.4446H45.5942V33.4816H48.7157C53.7131 33.4816 57.7782 29.4943 57.7782 24.5926C57.7782 19.6908 53.7131 15.7035 48.7157 15.7035H45.5942V12.7405H18.4067V15.7035H17.3997L11.7601 11.5557L9.94914 13.9253L12.3654 15.7035H6.22266V18.6665H12.3654L9.94914 20.4447L11.7601 22.8144L17.3997 18.6665H18.4067V21.6295H45.5942V18.6665H48.7157C52.0477 18.6665 54.7574 21.3244 54.7574 24.5926C54.7574 27.8611 52.0477 30.5186 48.7157 30.5186H45.5942V27.5556H18.4067V30.5186H15.2852C10.2878 30.5186 6.22266 34.5059 6.22266 39.4077C6.22266 44.3094 10.2878 48.2967 15.2852 48.2967H18.4067V51.2597H45.5942V48.2967H50.8311L48.4148 50.0749L50.2261 52.4446L57.7782 46.8152L50.2261 41.1859Z" fill="url(#paint0_linear_185_9719)"/>
<defs>
<linearGradient id="paint0_linear_185_9719" x1="6.22266" y1="15.6226" x2="59.6423" y2="18.5615" gradientUnits="userSpaceOnUse">
<stop offset="0.5" stop-color="#067FED"/>
<stop offset="1" stop-color="#4BF06F"/>
</linearGradient>
</defs>
</svg>
