<svg width="16" height="16" viewBox="0 0 16 16" fill="none" xmlns="http://www.w3.org/2000/svg">
<path fill-rule="evenodd" clip-rule="evenodd" d="M3.34409 4.14361C3.29941 4.18901 3.26396 4.24295 3.23977 4.30234C3.21558 4.36172 3.20312 4.42538 3.20312 4.48968C3.20312 4.55397 3.21558 4.61764 3.23977 4.67702C3.26396 4.73641 3.29941 4.79035 3.34409 4.83575L6.84396 8.40013L3.34409 11.9645C3.25399 12.0563 3.20338 12.1808 3.20338 12.3106C3.20338 12.4404 3.25399 12.5649 3.34409 12.6567C3.43419 12.7484 3.55639 12.8 3.68381 12.8C3.81123 12.8 3.93343 12.7484 4.02353 12.6567L7.86216 8.7462C7.90684 8.7008 7.94229 8.64686 7.96648 8.58747C7.99067 8.52809 8.00313 8.46442 8.00313 8.40013C8.00313 8.33583 7.99067 8.27217 7.96648 8.21278C7.94229 8.1534 7.90684 8.09946 7.86216 8.05405L4.02353 4.14361C3.97896 4.09808 3.92601 4.06197 3.86771 4.03733C3.80942 4.01268 3.74693 4 3.68381 4C3.6207 4 3.5582 4.01268 3.49991 4.03733C3.44161 4.06197 3.38866 4.09808 3.34409 4.14361Z" fill="#353C46"/>
<path fill-rule="evenodd" clip-rule="evenodd" d="M8.03941 4.14361C7.99472 4.18901 7.95927 4.24295 7.93508 4.30234C7.91089 4.36172 7.89844 4.42538 7.89844 4.48968C7.89844 4.55397 7.91089 4.61764 7.93508 4.67702C7.95927 4.73641 7.99472 4.79035 8.03941 4.83575L11.5393 8.40013L8.03941 11.9645C7.94931 12.0563 7.89869 12.1808 7.89869 12.3106C7.89869 12.4404 7.94931 12.5649 8.03941 12.6567C8.1295 12.7484 8.2517 12.8 8.37912 12.8C8.50654 12.8 8.62874 12.7484 8.71884 12.6567L12.5575 8.7462C12.6022 8.7008 12.6376 8.64686 12.6618 8.58747C12.686 8.52809 12.6984 8.46442 12.6984 8.40013C12.6984 8.33583 12.686 8.27217 12.6618 8.21278C12.6376 8.1534 12.6022 8.09946 12.5575 8.05405L8.71884 4.14361C8.67427 4.09808 8.62132 4.06197 8.56303 4.03733C8.50473 4.01268 8.44224 4 8.37912 4C8.31601 4 8.25352 4.01268 8.19522 4.03733C8.13693 4.06197 8.08398 4.09808 8.03941 4.14361Z" fill="#353C46"/>
</svg>
