<svg width="145" height="32" viewBox="0 0 145 32" fill="none" xmlns="http://www.w3.org/2000/svg">
<g clip-path="url(#clip0_200_1827)">
<path d="M80.6826 9.03296H86.757L87.6861 9.173L88.4722 9.45309L89.2583 9.94324L89.7585 10.5034L90.1158 11.2036L90.2588 11.7638L90.3302 12.5341L90.1873 13.4443L89.7585 14.2846L89.1153 14.8448L88.4007 15.1949L87.9005 15.3349L88.6866 15.545L89.4012 15.9651L89.9014 16.4553L90.3302 17.2255L90.4732 17.8557V19.0461L90.2588 19.8163L89.9014 20.5165L89.5441 20.9367L88.9724 21.3568L88.1149 21.7069L87.1144 21.917H80.6826V9.03296ZM83.2553 11.4137V14.1446H86.4712L87.1144 13.9345L87.6146 13.3743L87.6861 13.1643V12.254L87.4002 11.8338L87.0429 11.5537L86.6141 11.4137H83.2553ZM83.3268 16.4553L83.2553 16.5253V19.5362H86.757L87.4717 19.1861L87.7575 18.836L87.9005 18.4159V17.6457L87.6146 17.0855L87.1144 16.6653L86.6856 16.5253L83.3268 16.4553Z" fill="#067FED"/>
<path d="M129.135 9.03296H132.208L132.565 9.59313L133.994 12.464L136.924 18.2058L136.996 9.03296H139.354L139.426 9.10298V21.847L139.354 21.917H136.281L135.567 20.5866L131.636 12.8842L131.565 21.917H129.135L129.063 9.10298L129.135 9.03296Z" fill="#E14C67"/>
<path d="M104.194 9.03296H110.626L111.555 9.24302L112.341 9.66316L112.841 10.0833L113.342 10.7835L113.699 11.6938L113.842 12.7441L113.77 13.6544L113.485 14.7047L113.056 15.405L112.556 15.9651L111.769 16.4553L111.412 16.5953H111.198L111.841 17.7157L112.484 18.766L113.628 20.6566L114.342 21.7769V21.917H111.269L110.84 21.2868L110.126 20.0264L109.125 18.3459L108.268 16.8054H107.124L106.767 16.8754V21.847L106.696 21.917H104.194V9.03296ZM106.696 11.4137V14.3546L106.767 14.4246H107.839L110.34 14.3546L110.84 14.0045L111.126 13.4443L111.198 12.7441L111.055 12.1139L110.698 11.6238L110.34 11.4137H106.696Z" fill="#067FED"/>
<path d="M92.832 9.03296H101.836V11.4137H95.4047V14.3546H100.836V16.6653H95.4047V19.5362H100.622L101.836 19.6063V21.917H92.832V9.03296Z" fill="#067FED"/>
<path d="M116.7 9.03296H119.201L119.273 9.10298L119.344 17.9958L119.63 18.696L120.059 19.1861L120.631 19.4662L121.345 19.6063L122.346 19.5362L123.06 19.2562L123.418 18.906L123.775 18.3459L123.918 17.5756L123.99 9.03296H126.491L126.562 9.10298V15.7551L126.491 18.2758L126.205 19.3962L125.776 20.2365L125.133 20.9367L124.49 21.4268L123.489 21.847L122.417 22.057H120.702L119.702 21.847L118.844 21.4969L118.129 21.0067L117.486 20.3065L116.986 19.3262L116.772 18.5559L116.7 18.1358V9.03296Z" fill="#E14C67"/>
<path d="M63.1742 8.89282H64.4605L65.5325 9.10289L66.533 9.59304L67.3191 10.2232L67.9623 11.0635L68.4625 12.1839L68.7484 13.3042L68.6769 13.3742H66.1042L65.7469 12.534L65.3181 11.9738L64.7464 11.5537L64.2462 11.4136H63.5315L62.9598 11.5537L62.3881 11.9038L61.9593 12.4639L61.7449 13.2342V17.7856L61.9593 18.4858L62.3881 19.116L63.0313 19.4661L63.3171 19.5361H64.3891L65.0323 19.2561L65.461 18.906L65.8184 18.2758L66.1042 17.6456H68.7484L68.4625 18.7659L67.9623 19.8863L67.3191 20.7265L66.6759 21.2867L65.5325 21.8469L64.6035 22.0569H62.9598L61.8164 21.7768L60.8159 21.2867L60.1013 20.6565L59.601 19.9563L59.1722 18.8359L59.0293 18.0657V12.8841L59.3152 11.6937L59.8869 10.5733L60.7444 9.73308L61.5305 9.31295L62.3166 9.03287L63.1742 8.89282Z" fill="#067FED"/>
<path d="M69.1055 9.03296H71.7496L72.2499 10.0133L73.3933 12.5341L74.1794 14.2146L74.2509 14.4246L74.3938 14.4947L74.4653 14.1446L75.7516 11.4137L76.6092 9.52311L76.895 9.03296H79.5392L79.3963 9.38307L78.6102 10.9936L77.967 12.324L76.0375 16.1052L75.6801 16.8754L75.6087 21.847L75.5372 21.917H73.036L72.9645 16.9454L72.1784 15.3349L71.1779 13.3743L70.3918 11.7638L69.1055 9.173V9.03296Z" fill="#067FED"/>
<path d="M142.428 9.03296H145.001V21.917H142.428L142.356 21.847V9.10298L142.428 9.03296Z" fill="#E14C67"/>
<path d="M25.155 0H27.0846L28.0851 0.140044L29.8002 0.630197L34.8027 2.17068L44.8076 5.25164L49.3098 6.65208L50.9535 7.14223L50.6676 7.42232L49.0954 8.3326L47.5947 9.24289L43.5927 11.6236L42.1634 12.4639L40.6627 13.3742L39.2334 14.2144L37.5897 15.1947L31.5868 18.7659L29.7287 19.8862L28.2994 20.7265L26.2985 21.9168L26.227 21.9869H25.8697L20.224 18.6258L18.0801 17.3654L14.0782 14.9847L12.2916 13.9344L8.28959 11.5536L6.86031 10.7133L2.85834 8.3326L1.78638 7.70241L1.28613 7.42232V7.28228L2.28663 6.93217L7.14616 5.39169L21.0816 1.05033L23.8687 0.210066L24.5119 0.0700219L25.155 0Z" fill="#067FED"/>
<path d="M10.0053 13.8645L10.3626 13.9345L24.3695 22.2671L25.6558 23.0374L26.0132 23.1074L27.2995 22.4072L29.3005 21.2168L31.373 20.0264L34.5888 18.1358L36.6613 16.9455L38.6623 15.7551L41.9496 13.8645H42.0925L42.3069 14.7748L43.3789 20.8667L43.6647 22.3372V23.1774L43.2359 24.0177L42.5928 24.7879L41.7352 25.6282L40.7347 26.3984L39.6628 27.1687L38.162 28.0789L36.8757 28.7792L35.7322 29.3393L34.2315 30.0396L32.1591 30.8098L30.301 31.37L28.8003 31.7201L27.371 31.9301L26.6563 32.0002H24.8697L23.2975 31.7901L21.5109 31.37L19.5814 30.7398L17.7234 29.9695L15.6509 28.9892L13.9358 28.0089L12.9353 27.3787L11.7204 26.5385L10.7914 25.7682L10.2197 25.2781L9.57649 24.6479L8.93332 23.8076L8.64746 23.1774V22.1971L10.0053 13.8645Z" fill="#E14C67"/>
<path d="M1.07196 9.94312H1.14342L1.71513 16.2451L2.07245 20.0263V20.6565L1.28635 22.1969L1.14342 22.5471L0.929029 22.477L0.0714638 20.7965L0 20.5864L0.0714638 19.3961L0.857566 11.5536L1.00049 10.1532L1.07196 9.94312Z" fill="#E14C67"/>
</g>
<defs>
<clipPath id="clip0_200_1827">
<rect width="145" height="32" fill="white"/>
</clipPath>
</defs>
</svg>
