<svg width="180" height="40" viewBox="0 0 180 40" fill="none" xmlns="http://www.w3.org/2000/svg">
<g clip-path="url(#clip0_200_1785)">
<path d="M100.158 11.291H107.698L108.852 11.4661L109.828 11.8162L110.803 12.4289L111.424 13.1291L111.868 14.0044L112.045 14.7046L112.134 15.6674L111.957 16.8052L111.424 17.8556L110.626 18.5558L109.739 18.9934L109.118 19.1685L110.094 19.4311L110.981 19.9562L111.602 20.5689L112.134 21.5317L112.311 22.3195V23.8074L112.045 24.7702L111.602 25.6455L111.158 26.1707L110.448 26.6958L109.384 27.1335L108.142 27.396H100.158V11.291ZM103.351 14.2669V17.6805H107.344L108.142 17.4179L108.763 16.7177L108.852 16.4551V15.3173L108.497 14.7921L108.053 14.442L107.521 14.2669H103.351ZM103.44 20.5689L103.351 20.6564V24.4201H107.698L108.586 23.9825L108.94 23.5448L109.118 23.0197V22.0569L108.763 21.3567L108.142 20.8315L107.61 20.6564L103.44 20.5689Z" fill="white"/>
<path d="M160.306 11.291H164.12L164.564 11.9912L166.338 15.5799L169.975 22.7571L170.064 11.291H172.992L173.08 11.3785V27.3085L172.992 27.396H169.177L168.29 25.733L163.41 16.105L163.322 27.396H160.306L160.217 11.3785L160.306 11.291Z" fill="white"/>
<path d="M129.344 11.291H137.328L138.482 11.5536L139.458 12.0788L140.079 12.6039L140.7 13.4792L141.143 14.6171L141.321 15.93L141.232 17.0678L140.877 18.3807L140.345 19.256L139.724 19.9562L138.748 20.5689L138.304 20.744H138.038L138.837 22.1444L139.635 23.4573L141.054 25.8206L141.942 27.221V27.396H138.127L137.595 26.6083L136.707 25.0328L135.465 22.9322L134.401 21.0066H132.981L132.538 21.0941V27.3085L132.449 27.396H129.344V11.291ZM132.449 14.2669V17.9431L132.538 18.0306H133.869L136.974 17.9431L137.595 17.5055L137.949 16.8052L138.038 15.93L137.861 15.1422L137.417 14.5295L136.974 14.2669H132.449Z" fill="white"/>
<path d="M115.239 11.291H126.417V14.2669H118.432V17.9431H125.175V20.8315H118.432V24.4201H124.909L126.417 24.5076V27.396H115.239V11.291Z" fill="white"/>
<path d="M144.869 11.291H147.974L148.063 11.3785L148.152 22.4945L148.506 23.3698L149.039 23.9825L149.748 24.3326L150.636 24.5076L151.878 24.4201L152.765 24.07L153.208 23.6324L153.652 22.9322L153.829 21.9694L153.918 11.291H157.023L157.112 11.3785V19.6936L157.023 22.8446L156.668 24.2451L156.136 25.2954L155.337 26.1707L154.539 26.7834L153.297 27.3085L151.966 27.5711H149.837L148.595 27.3085L147.531 26.8709L146.643 26.2582L145.845 25.3829L145.224 24.1575L144.958 23.1947L144.869 22.6696V11.291Z" fill="white"/>
<path d="M78.4227 11.116H80.0196L81.3503 11.3785L82.5923 11.9912L83.5681 12.779L84.3666 13.8293L84.9875 15.2298L85.3424 16.6302L85.2537 16.7177H82.06L81.6164 15.6674L81.0841 14.9672L80.3744 14.442L79.7534 14.267H78.8663L78.1566 14.442L77.4469 14.8796L76.9146 15.5799L76.6485 16.5427V22.2319L76.9146 23.1072L77.4469 23.895L78.2453 24.3326L78.6002 24.4201H79.9309L80.7293 24.07L81.2616 23.6324L81.7051 22.8446L82.06 22.0569H85.3424L84.9875 23.4573L84.3666 24.8578L83.5681 25.9081L82.7697 26.6083L81.3503 27.3085L80.197 27.5711H78.1566L76.7372 27.221L75.4952 26.6083L74.608 25.8206L73.9871 24.9453L73.4548 23.5449L73.2773 22.5821V16.105L73.6322 14.6171L74.3419 13.2166L75.4065 12.1663L76.3823 11.6411L77.3582 11.291L78.4227 11.116Z" fill="white"/>
<path d="M85.7861 11.291H89.0685L89.6895 12.5164L91.109 15.6674L92.0848 17.768L92.1735 18.0306L92.3509 18.1181L92.4397 17.6805L94.0365 14.2669L95.1011 11.9037L95.4559 11.291H98.7383L98.5609 11.7287L97.585 13.7418L96.7866 15.4048L94.3914 20.1313L93.9478 21.0941L93.8591 27.3085L93.7704 27.396H90.6654L90.5767 21.1816L89.6008 19.1685L88.3588 16.7177L87.383 14.7046L85.7861 11.4661V11.291Z" fill="white"/>
<path d="M176.806 11.291H180V27.396H176.806L176.717 27.3085V11.3785L176.806 11.291Z" fill="white"/>
<path d="M31.227 0H33.6223L34.8643 0.175055L36.9934 0.787746L43.2034 2.71335L55.6233 6.56455L61.2123 8.3151L63.2527 8.92779L62.8978 9.2779L60.9461 10.4158L59.0831 11.5536L54.1152 14.5295L52.3409 15.5799L50.4779 16.7177L48.7036 17.7681L46.6632 18.9934L39.2113 23.4573L36.9047 24.8578L35.1304 25.9081L32.6465 27.3961L32.5577 27.4836H32.1142L25.1058 23.2823L22.4444 21.7068L17.4764 18.7309L15.2586 17.4179L10.2906 14.442L8.51634 13.3917L3.54838 10.4158L2.21768 9.62801L1.59668 9.2779V9.10285L2.83867 8.66521L8.8712 6.73961L26.1704 1.31291L29.6302 0.262582L30.4286 0.0875274L31.227 0Z" fill="white"/>
<path d="M12.4199 17.3306L12.8635 17.4181L30.2514 27.8338L31.8482 28.7966L32.2918 28.8842L33.8886 28.0089L36.3726 26.5209L38.9453 25.033L42.9374 22.6697L45.5101 21.1818L47.9941 19.6938L52.0749 17.3306H52.2524L52.5185 18.4684L53.8492 26.0833L54.2041 27.9214V28.9717L53.6718 30.022L52.8734 30.9848L51.8088 32.0352L50.5668 32.998L49.2361 33.9608L47.3731 35.0986L45.7763 35.9739L44.3569 36.6741L42.4939 37.5494L39.9212 38.5122L37.6146 39.2124L35.7516 39.65L33.9774 39.9126L33.0902 40.0002H30.8724L28.9207 39.7376L26.7028 39.2124L24.3076 38.4247L22.001 37.4619L19.4283 36.2365L17.2992 35.0111L16.0572 34.2233L14.5491 33.173L13.3958 32.2102L12.6861 31.5975L11.8877 30.8098L11.0892 29.7595L10.7344 28.9717V27.7463L12.4199 17.3306Z" fill="white"/>
<path d="M1.3307 12.4287H1.41942L2.12913 20.3062L2.5727 25.0326V25.8204L1.59685 27.746L1.41942 28.1836L1.15328 28.0961L0.0887137 25.9955L0 25.7329L0.0887137 24.2449L1.06456 14.4418L1.24199 12.6913L1.3307 12.4287Z" fill="white"/>
</g>
<defs>
<clipPath id="clip0_200_1785">
<rect width="180" height="40" fill="white"/>
</clipPath>
</defs>
</svg>
