<svg width="24" height="24" viewBox="0 0 24 24" fill="none" xmlns="http://www.w3.org/2000/svg">
<path d="M18 2.25H6C5.60218 2.25 5.22064 2.40804 4.93934 2.68934C4.65804 2.97064 4.5 3.35218 4.5 3.75V20.25C4.5 20.6478 4.65804 21.0294 4.93934 21.3107C5.22064 21.592 5.60218 21.75 6 21.75H18C18.3978 21.75 18.7794 21.592 19.0607 21.3107C19.342 21.0294 19.5 20.6478 19.5 20.25V3.75C19.5 3.35218 19.342 2.97064 19.0607 2.68934C18.7794 2.40804 18.3978 2.25 18 2.25ZM12 18C11.7775 18 11.56 17.934 11.375 17.8104C11.19 17.6868 11.0458 17.5111 10.9606 17.3055C10.8755 17.1 10.8532 16.8738 10.8966 16.6555C10.94 16.4373 11.0472 16.2368 11.2045 16.0795C11.3618 15.9222 11.5623 15.815 11.7805 15.7716C11.9988 15.7282 12.225 15.7505 12.4305 15.8356C12.6361 15.9208 12.8118 16.065 12.9354 16.25C13.059 16.435 13.125 16.6525 13.125 16.875C13.125 17.1734 13.0065 17.4595 12.7955 17.6705C12.5845 17.8815 12.2984 18 12 18ZM15 10.5H9C8.80109 10.5 8.61032 10.421 8.46967 10.2803C8.32902 10.1397 8.25 9.94891 8.25 9.75C8.25 9.55109 8.32902 9.36032 8.46967 9.21967C8.61032 9.07902 8.80109 9 9 9H15C15.1989 9 15.3897 9.07902 15.5303 9.21967C15.671 9.36032 15.75 9.55109 15.75 9.75C15.75 9.94891 15.671 10.1397 15.5303 10.2803C15.3897 10.421 15.1989 10.5 15 10.5ZM15 7.5H9C8.80109 7.5 8.61032 7.42098 8.46967 7.28033C8.32902 7.13968 8.25 6.94891 8.25 6.75C8.25 6.55109 8.32902 6.36032 8.46967 6.21967C8.61032 6.07902 8.80109 6 9 6H15C15.1989 6 15.3897 6.07902 15.5303 6.21967C15.671 6.36032 15.75 6.55109 15.75 6.75C15.75 6.94891 15.671 7.13968 15.5303 7.28033C15.3897 7.42098 15.1989 7.5 15 7.5Z" fill="#9CA2AD"/>
</svg>
