<svg width="21" height="20" viewBox="0 0 21 20" fill="none" xmlns="http://www.w3.org/2000/svg">
<path d="M11.5672 10.4422L8.44219 13.5672C8.38412 13.6253 8.31518 13.6713 8.23931 13.7027C8.16344 13.7342 8.08212 13.7503 8 13.7503C7.91788 13.7503 7.83656 13.7342 7.76069 13.7027C7.68482 13.6713 7.61588 13.6253 7.55781 13.5672C7.49974 13.5091 7.45368 13.4402 7.42225 13.3643C7.39083 13.2884 7.37465 13.2071 7.37465 13.125C7.37465 13.0429 7.39083 12.9616 7.42225 12.8857C7.45368 12.8098 7.49974 12.7409 7.55781 12.6828L9.61641 10.625H2.375C2.20924 10.625 2.05027 10.5592 1.93306 10.4419C1.81585 10.3247 1.75 10.1658 1.75 10C1.75 9.83424 1.81585 9.67527 1.93306 9.55806C2.05027 9.44085 2.20924 9.375 2.375 9.375H9.61641L7.55781 7.31719C7.44054 7.19991 7.37465 7.04085 7.37465 6.875C7.37465 6.70915 7.44054 6.55009 7.55781 6.43281C7.67509 6.31554 7.83415 6.24965 8 6.24965C8.16585 6.24965 8.32491 6.31554 8.44219 6.43281L11.5672 9.55781C11.6253 9.61586 11.6714 9.68479 11.7029 9.76066C11.7343 9.83654 11.7505 9.91787 11.7505 10C11.7505 10.0821 11.7343 10.1635 11.7029 10.2393C11.6714 10.3152 11.6253 10.3841 11.5672 10.4422ZM15.5 2.5H11.125C10.9592 2.5 10.8003 2.56585 10.6831 2.68306C10.5658 2.80027 10.5 2.95924 10.5 3.125C10.5 3.29076 10.5658 3.44973 10.6831 3.56694C10.8003 3.68415 10.9592 3.75 11.125 3.75H15.5V16.25H11.125C10.9592 16.25 10.8003 16.3158 10.6831 16.4331C10.5658 16.5503 10.5 16.7092 10.5 16.875C10.5 17.0408 10.5658 17.1997 10.6831 17.3169C10.8003 17.4342 10.9592 17.5 11.125 17.5H15.5C15.8315 17.5 16.1495 17.3683 16.3839 17.1339C16.6183 16.8995 16.75 16.5815 16.75 16.25V3.75C16.75 3.41848 16.6183 3.10054 16.3839 2.86612C16.1495 2.6317 15.8315 2.5 15.5 2.5Z" fill="#067FED"/>
</svg>
