<svg width="32" height="32" viewBox="0 0 32 32" fill="none" xmlns="http://www.w3.org/2000/svg">
<path opacity="0.32" d="M16.0003 2.66675C13.3632 2.66675 10.7854 3.44873 8.59273 4.91382C6.40007 6.37891 4.69111 8.46129 3.68194 10.8976C2.67277 13.334 2.40872 16.0149 2.92319 18.6013C3.43766 21.1877 4.70754 23.5635 6.57224 25.4282C8.43694 27.2929 10.8127 28.5627 13.3991 29.0772C15.9855 29.5917 18.6664 29.3276 21.1028 28.3185C23.5391 27.3093 25.6215 25.6003 27.0866 23.4077C28.5517 21.215 29.3337 18.6372 29.3337 16.0001C29.3301 12.4649 27.9242 9.07561 25.4245 6.57589C22.9248 4.07617 19.5355 2.67028 16.0003 2.66675ZM23.919 12.9507V13.8121C23.919 13.878 23.9058 13.9433 23.8802 14.004C23.8546 14.0647 23.8171 14.1197 23.7698 14.1657C23.7226 14.2117 23.6666 14.2478 23.6052 14.2718C23.5438 14.2958 23.4782 14.3072 23.4123 14.3054C22.0046 14.2056 20.6579 13.6916 19.5417 12.8281V19.1321C19.5415 19.8298 19.4023 20.5205 19.1321 21.1638C18.862 21.8071 18.4664 22.3901 17.9683 22.8787C17.4658 23.3796 16.8687 23.7755 16.2118 24.0433C15.5548 24.3111 14.8511 24.4455 14.1417 24.4387C12.7149 24.4363 11.3456 23.8765 10.3257 22.8787C9.67685 22.2246 9.20952 21.4128 8.96966 20.5233C8.72979 19.6337 8.72566 18.6971 8.95766 17.8054C9.16966 16.9494 9.59766 16.1627 10.2017 15.5214C10.6521 14.9709 11.2199 14.5279 11.8635 14.225C12.5071 13.9222 13.2103 13.7669 13.9217 13.7707H15.015V16.0414C15.0155 16.1074 15.0019 16.1727 14.9752 16.2329C14.9484 16.2932 14.9091 16.3471 14.8599 16.391C14.8107 16.4349 14.7527 16.4678 14.6898 16.4876C14.6269 16.5073 14.5605 16.5134 14.495 16.5054C13.8602 16.3147 13.1761 16.378 12.587 16.6818C11.998 16.9857 11.5499 17.5064 11.3372 18.1341C11.1245 18.7619 11.1639 19.4478 11.4471 20.0471C11.7302 20.6464 12.235 21.1124 12.855 21.3467C13.215 21.5534 13.6177 21.6747 14.031 21.7027C14.351 21.7161 14.671 21.6761 14.975 21.5801C15.4827 21.4092 15.9244 21.084 16.2382 20.6499C16.5521 20.2158 16.7225 19.6944 16.7257 19.1587V7.67208C16.7255 7.60911 16.7377 7.54672 16.7617 7.48849C16.7857 7.43027 16.8209 7.37734 16.8654 7.33275C16.9099 7.28816 16.9627 7.25278 17.0208 7.22864C17.079 7.20451 17.1414 7.19208 17.2043 7.19208H19.091C19.2137 7.19191 19.3317 7.23885 19.4208 7.32321C19.5099 7.40757 19.5632 7.52291 19.5697 7.64542C19.6387 8.23366 19.8256 8.80194 20.1193 9.31626C20.413 9.83059 20.8074 10.2804 21.279 10.6387C21.9165 11.1173 22.6736 11.4107 23.467 11.4867C23.5858 11.4969 23.697 11.5498 23.7798 11.6356C23.8627 11.7214 23.9117 11.8343 23.9177 11.9534L23.919 12.9507Z" fill="white"/>
</svg>
