<svg width="25" height="24" viewBox="0 0 25 24" fill="none" xmlns="http://www.w3.org/2000/svg">
<path d="M13.8807 12.5306L10.1307 16.2806C10.0258 16.3856 9.89214 16.4572 9.74658 16.4861C9.60101 16.5151 9.45012 16.5003 9.313 16.4435C9.17589 16.3867 9.05871 16.2904 8.97631 16.167C8.8939 16.0435 8.84998 15.8984 8.8501 15.75V12.75H2.8501C2.65119 12.75 2.46042 12.671 2.31977 12.5303C2.17912 12.3897 2.1001 12.1989 2.1001 12C2.1001 11.8011 2.17912 11.6103 2.31977 11.4697C2.46042 11.329 2.65119 11.25 2.8501 11.25H8.8501V8.25C8.84998 8.10158 8.8939 7.95646 8.97631 7.83301C9.05871 7.70957 9.17589 7.61335 9.313 7.55653C9.45012 7.49972 9.60101 7.48487 9.74658 7.51385C9.89214 7.54284 10.0258 7.61437 10.1307 7.71937L13.8807 11.4694C13.9505 11.539 14.0058 11.6217 14.0435 11.7128C14.0813 11.8038 14.1007 11.9014 14.1007 12C14.1007 12.0986 14.0813 12.1962 14.0435 12.2872C14.0058 12.3783 13.9505 12.461 13.8807 12.5306ZM19.3501 3H13.3501C13.1512 3 12.9604 3.07902 12.8198 3.21967C12.6791 3.36032 12.6001 3.55109 12.6001 3.75C12.6001 3.94891 12.6791 4.13968 12.8198 4.28033C12.9604 4.42098 13.1512 4.5 13.3501 4.5H18.6001V19.5H13.3501C13.1512 19.5 12.9604 19.579 12.8198 19.7197C12.6791 19.8603 12.6001 20.0511 12.6001 20.25C12.6001 20.4489 12.6791 20.6397 12.8198 20.7803C12.9604 20.921 13.1512 21 13.3501 21H19.3501C19.549 21 19.7398 20.921 19.8804 20.7803C20.0211 20.6397 20.1001 20.4489 20.1001 20.25V3.75C20.1001 3.55109 20.0211 3.36032 19.8804 3.21967C19.7398 3.07902 19.549 3 19.3501 3Z" fill="#9CA2AD"/>
</svg>
