<svg width="25" height="24" viewBox="0 0 25 24" fill="none" xmlns="http://www.w3.org/2000/svg">
<path d="M19.7 3H4.69995C4.30213 3 3.9206 3.15804 3.63929 3.43934C3.35799 3.72064 3.19995 4.10218 3.19995 4.5V19.5C3.19995 19.8978 3.35799 20.2794 3.63929 20.5607C3.9206 20.842 4.30213 21 4.69995 21H19.7C20.0978 21 20.4793 20.842 20.7606 20.5607C21.0419 20.2794 21.2 19.8978 21.2 19.5V4.5C21.2 4.10218 21.0419 3.72064 20.7606 3.43934C20.4793 3.15804 20.0978 3 19.7 3ZM6.94995 17.25H6.19995C6.00104 17.25 5.81027 17.171 5.66962 17.0303C5.52897 16.8897 5.44995 16.6989 5.44995 16.5C5.44995 16.3011 5.52897 16.1103 5.66962 15.9697C5.81027 15.829 6.00104 15.75 6.19995 15.75H6.94995C7.14886 15.75 7.33963 15.829 7.48028 15.9697C7.62093 16.1103 7.69995 16.3011 7.69995 16.5C7.69995 16.6989 7.62093 16.8897 7.48028 17.0303C7.33963 17.171 7.14886 17.25 6.94995 17.25ZM6.94995 12.75H6.19995C6.00104 12.75 5.81027 12.671 5.66962 12.5303C5.52897 12.3897 5.44995 12.1989 5.44995 12C5.44995 11.8011 5.52897 11.6103 5.66962 11.4697C5.81027 11.329 6.00104 11.25 6.19995 11.25H6.94995C7.14886 11.25 7.33963 11.329 7.48028 11.4697C7.62093 11.6103 7.69995 11.8011 7.69995 12C7.69995 12.1989 7.62093 12.3897 7.48028 12.5303C7.33963 12.671 7.14886 12.75 6.94995 12.75ZM6.94995 8.25H6.19995C6.00104 8.25 5.81027 8.17098 5.66962 8.03033C5.52897 7.88968 5.44995 7.69891 5.44995 7.5C5.44995 7.30109 5.52897 7.11032 5.66962 6.96967C5.81027 6.82902 6.00104 6.75 6.19995 6.75H6.94995C7.14886 6.75 7.33963 6.82902 7.48028 6.96967C7.62093 7.11032 7.69995 7.30109 7.69995 7.5C7.69995 7.69891 7.62093 7.88968 7.48028 8.03033C7.33963 8.17098 7.14886 8.25 6.94995 8.25ZM18.2 17.25H9.94995C9.75104 17.25 9.56027 17.171 9.41962 17.0303C9.27897 16.8897 9.19995 16.6989 9.19995 16.5C9.19995 16.3011 9.27897 16.1103 9.41962 15.9697C9.56027 15.829 9.75104 15.75 9.94995 15.75H18.2C18.3989 15.75 18.5896 15.829 18.7303 15.9697C18.8709 16.1103 18.95 16.3011 18.95 16.5C18.95 16.6989 18.8709 16.8897 18.7303 17.0303C18.5896 17.171 18.3989 17.25 18.2 17.25ZM18.2 12.75H9.94995C9.75104 12.75 9.56027 12.671 9.41962 12.5303C9.27897 12.3897 9.19995 12.1989 9.19995 12C9.19995 11.8011 9.27897 11.6103 9.41962 11.4697C9.56027 11.329 9.75104 11.25 9.94995 11.25H18.2C18.3989 11.25 18.5896 11.329 18.7303 11.4697C18.8709 11.6103 18.95 11.8011 18.95 12C18.95 12.1989 18.8709 12.3897 18.7303 12.5303C18.5896 12.671 18.3989 12.75 18.2 12.75ZM18.2 8.25H9.94995C9.75104 8.25 9.56027 8.17098 9.41962 8.03033C9.27897 7.88968 9.19995 7.69891 9.19995 7.5C9.19995 7.30109 9.27897 7.11032 9.41962 6.96967C9.56027 6.82902 9.75104 6.75 9.94995 6.75H18.2C18.3989 6.75 18.5896 6.82902 18.7303 6.96967C18.8709 7.11032 18.95 7.30109 18.95 7.5C18.95 7.69891 18.8709 7.88968 18.7303 8.03033C18.5896 8.17098 18.3989 8.25 18.2 8.25Z" fill="#9CA2AD"/>
</svg>
