<svg width="44" height="44" viewBox="0 0 44 44" fill="none" xmlns="http://www.w3.org/2000/svg">
<path d="M37.125 6.875H6.875C6.14565 6.875 5.44618 7.16473 4.93046 7.68046C4.41473 8.19618 4.125 8.89565 4.125 9.625V34.375C4.125 35.1043 4.41473 35.8038 4.93046 36.3195C5.44618 36.8353 6.14565 37.125 6.875 37.125H9.17641C9.43664 37.1251 9.69155 37.0513 9.91152 36.9123C10.1315 36.7732 10.3075 36.5746 10.4191 36.3395C11.0877 34.9279 12.1433 33.7351 13.4632 32.8998C14.7831 32.0645 16.313 31.621 17.875 31.621C19.437 31.621 20.9669 32.0645 22.2868 32.8998C23.6067 33.7351 24.6623 34.9279 25.3309 36.3395C25.4425 36.5746 25.6185 36.7732 25.8385 36.9123C26.0585 37.0513 26.3134 37.1251 26.5736 37.125H37.125C37.8543 37.125 38.5538 36.8353 39.0695 36.3195C39.5853 35.8038 39.875 35.1043 39.875 34.375V9.625C39.875 8.89565 39.5853 8.19618 39.0695 7.68046C38.5538 7.16473 37.8543 6.875 37.125 6.875ZM13.75 24.75C13.75 23.9342 13.9919 23.1366 14.4452 22.4583C14.8984 21.7799 15.5427 21.2512 16.2964 20.939C17.0502 20.6268 17.8796 20.5451 18.6797 20.7043C19.4799 20.8634 20.2149 21.2563 20.7918 21.8332C21.3687 22.4101 21.7616 23.1451 21.9207 23.9453C22.0799 24.7454 21.9982 25.5748 21.686 26.3286C21.3738 27.0823 20.8451 27.7266 20.1667 28.1798C19.4884 28.6331 18.6908 28.875 17.875 28.875C16.781 28.875 15.7318 28.4404 14.9582 27.6668C14.1846 26.8932 13.75 25.844 13.75 24.75ZM37.125 34.375H27.402C26.2538 32.4009 24.5229 30.8303 22.4469 29.8787C23.4877 28.952 24.2223 27.7307 24.5533 26.3769C24.8843 25.0231 24.796 23.6007 24.3002 22.2982C23.8043 20.9957 22.9244 19.8747 21.7769 19.0837C20.6294 18.2928 19.2687 17.8692 17.875 17.8692C16.4813 17.8692 15.1206 18.2928 13.9731 19.0837C12.8256 19.8747 11.9457 20.9957 11.4498 22.2982C10.954 23.6007 10.8657 25.0231 11.1967 26.3769C11.5277 27.7307 12.2623 28.952 13.3031 29.8787C11.2271 30.8303 9.49621 32.4009 8.34797 34.375H6.875V9.625H37.125V34.375ZM9.625 16.5V13.75C9.625 13.3853 9.76987 13.0356 10.0277 12.7777C10.2856 12.5199 10.6353 12.375 11 12.375H33C33.3647 12.375 33.7144 12.5199 33.9723 12.7777C34.2301 13.0356 34.375 13.3853 34.375 13.75V30.25C34.375 30.6147 34.2301 30.9644 33.9723 31.2223C33.7144 31.4801 33.3647 31.625 33 31.625H30.25C29.8853 31.625 29.5356 31.4801 29.2777 31.2223C29.0199 30.9644 28.875 30.6147 28.875 30.25C28.875 29.8853 29.0199 29.5356 29.2777 29.2777C29.5356 29.0199 29.8853 28.875 30.25 28.875H31.625V15.125H12.375V16.5C12.375 16.8647 12.2301 17.2144 11.9723 17.4723C11.7144 17.7301 11.3647 17.875 11 17.875C10.6353 17.875 10.2856 17.7301 10.0277 17.4723C9.76987 17.2144 9.625 16.8647 9.625 16.5Z" fill="white"/>
</svg>
