<svg width="25" height="24" viewBox="0 0 25 24" fill="none" xmlns="http://www.w3.org/2000/svg">
<g clip-path="url(#clip0_166_5315)">
<path d="M6.81106 13.8563C6.81361 13.9071 6.80579 13.9579 6.78809 14.0055C6.77038 14.0532 6.74316 14.0968 6.70809 14.1336C6.67301 14.1705 6.6308 14.1998 6.58404 14.2198C6.53727 14.2398 6.48693 14.2501 6.43606 14.25H2.29981C2.13054 14.2503 1.96615 14.1933 1.83338 14.0882C1.70062 13.9832 1.60729 13.8364 1.56857 13.6716C1.54445 13.5588 1.54556 13.4421 1.57182 13.3297C1.59808 13.2174 1.64883 13.1123 1.72044 13.0219C2.38214 12.1444 3.26009 11.4535 4.26856 11.0166C3.82581 10.6129 3.48623 10.109 3.27826 9.54709C3.0703 8.98517 3 8.38161 3.07326 7.78694C3.14653 7.19228 3.36122 6.62382 3.69935 6.12919C4.03748 5.63456 4.48922 5.22815 5.01672 4.944C5.54422 4.65986 6.13212 4.50624 6.7312 4.49603C7.33027 4.48581 7.92307 4.6193 8.45995 4.8853C8.99683 5.1513 9.46216 5.54207 9.81695 6.02489C10.1718 6.50771 10.4057 7.06851 10.4992 7.66033C10.5113 7.73992 10.497 7.82127 10.4586 7.89201C10.4202 7.96275 10.3597 8.019 10.2864 8.05221C9.24612 8.53312 8.36513 9.30156 7.74735 10.2668C7.12958 11.2321 6.8008 12.354 6.79981 13.5C6.79981 13.62 6.79981 13.7381 6.81106 13.8563ZM23.8736 13.021C23.2134 12.1445 22.3375 11.4539 21.3311 11.0166C21.7738 10.6129 22.1134 10.109 22.3214 9.54709C22.5293 8.98517 22.5996 8.38161 22.5264 7.78694C22.4531 7.19228 22.2384 6.62382 21.9003 6.12919C21.5621 5.63456 21.1104 5.22815 20.5829 4.944C20.0554 4.65986 19.4675 4.50624 18.8684 4.49603C18.2694 4.48581 17.6766 4.6193 17.1397 4.8853C16.6028 5.1513 16.1375 5.54207 15.7827 6.02489C15.4279 6.50771 15.1939 7.06851 15.1004 7.66033C15.0884 7.73992 15.1026 7.82127 15.141 7.89201C15.1795 7.96275 15.2399 8.019 15.3133 8.05221C16.3535 8.53312 17.2345 9.30156 17.8523 10.2668C18.4701 11.2321 18.7988 12.354 18.7998 13.5C18.7998 13.62 18.7998 13.7381 18.7886 13.8563C18.786 13.9071 18.7938 13.9579 18.8115 14.0055C18.8292 14.0532 18.8565 14.0968 18.8915 14.1336C18.9266 14.1705 18.9688 14.1998 19.0156 14.2198C19.0624 14.2398 19.1127 14.2501 19.1636 14.25H23.2998C23.4691 14.2503 23.6335 14.1933 23.7662 14.0882C23.899 13.9832 23.9923 13.8364 24.0311 13.6716C24.0553 13.5586 24.0542 13.4416 24.0278 13.3291C24.0013 13.2166 23.9503 13.1113 23.8783 13.021H23.8736ZM15.5298 17.0691C16.2766 16.4972 16.8254 15.7056 17.099 14.8057C17.3727 13.9058 17.3575 12.9428 17.0556 12.0519C16.7536 11.1611 16.1802 10.3873 15.4157 9.83924C14.6513 9.29118 13.7343 8.99644 12.7937 8.99644C11.8531 8.99644 10.9362 9.29118 10.1717 9.83924C9.40728 10.3873 8.83379 11.1611 8.53186 12.0519C8.22993 12.9428 8.21473 13.9058 8.4884 14.8057C8.76208 15.7056 9.31086 16.4972 10.0576 17.0691C8.73251 17.6432 7.626 18.6265 6.90013 19.875C6.83429 19.989 6.79964 20.1184 6.79965 20.2501C6.79965 20.3817 6.83432 20.5111 6.90017 20.6251C6.96602 20.7391 7.06072 20.8338 7.17476 20.8996C7.28879 20.9654 7.41815 21.0001 7.54981 21H18.0498C18.1815 21.0001 18.3108 20.9654 18.4249 20.8996C18.5389 20.8338 18.6336 20.7391 18.6995 20.6251C18.7653 20.5111 18.8 20.3817 18.8 20.2501C18.8 20.1184 18.7653 19.989 18.6995 19.875C17.9721 18.6257 16.8635 17.6423 15.5364 17.0691H15.5298Z" fill="#9CA2AD"/>
</g>
<defs>
<clipPath id="clip0_166_5315">
<rect width="24" height="24" fill="white" transform="translate(0.799805)"/>
</clipPath>
</defs>
</svg>
