<svg width="73" height="73" viewBox="0 0 73 73" fill="none" xmlns="http://www.w3.org/2000/svg">
<path d="M5.25 16.25C5.84674 16.25 6.41903 16.0129 6.84099 15.591C7.26295 15.169 7.5 14.5967 7.5 14V7.25H14.25C14.8467 7.25 15.419 7.01295 15.841 6.59099C16.2629 6.16903 16.5 5.59674 16.5 5C16.5 4.40326 16.2629 3.83097 15.841 3.40901C15.419 2.98705 14.8467 2.75 14.25 2.75H5.25C4.65326 2.75 4.08097 2.98705 3.65901 3.40901C3.23705 3.83097 3 4.40326 3 5V14C3 14.5967 3.23705 15.169 3.65901 15.591C4.08097 16.0129 4.65326 16.25 5.25 16.25Z" fill="#91C8FA"/>
<path d="M59.25 7.25H66V14C66 14.5967 66.2371 15.169 66.659 15.591C67.081 16.0129 67.6533 16.25 68.25 16.25C68.8467 16.25 69.419 16.0129 69.841 15.591C70.2629 15.169 70.5 14.5967 70.5 14V5C70.5 4.40326 70.2629 3.83097 69.841 3.40901C69.419 2.98705 68.8467 2.75 68.25 2.75H59.25C58.6533 2.75 58.081 2.98705 57.659 3.40901C57.2371 3.83097 57 4.40326 57 5C57 5.59674 57.2371 6.16903 57.659 6.59099C58.081 7.01295 58.6533 7.25 59.25 7.25Z" fill="#91C8FA"/>
<path d="M14.25 65.75H7.5V59C7.5 58.4033 7.26295 57.831 6.84099 57.409C6.41903 56.9871 5.84674 56.75 5.25 56.75C4.65326 56.75 4.08097 56.9871 3.65901 57.409C3.23705 57.831 3 58.4033 3 59V68C3 68.5967 3.23705 69.169 3.65901 69.591C4.08097 70.0129 4.65326 70.25 5.25 70.25H14.25C14.8467 70.25 15.419 70.0129 15.841 69.591C16.2629 69.169 16.5 68.5967 16.5 68C16.5 67.4033 16.2629 66.831 15.841 66.409C15.419 65.9871 14.8467 65.75 14.25 65.75Z" fill="#91C8FA"/>
<path d="M68.25 56.75C67.6533 56.75 67.081 56.9871 66.659 57.409C66.2371 57.831 66 58.4033 66 59V65.75H59.25C58.6533 65.75 58.081 65.9871 57.659 66.409C57.2371 66.831 57 67.4033 57 68C57 68.5967 57.2371 69.169 57.659 69.591C58.081 70.0129 58.6533 70.25 59.25 70.25H68.25C68.8467 70.25 69.419 70.0129 69.841 69.591C70.2629 69.169 70.5 68.5967 70.5 68V59C70.5 58.4033 70.2629 57.831 69.841 57.409C69.419 56.9871 68.8467 56.75 68.25 56.75Z" fill="#91C8FA"/>
<path d="M36.75 45.5C41.7206 45.5 45.75 41.4706 45.75 36.5C45.75 31.5294 41.7206 27.5 36.75 27.5C31.7794 27.5 27.75 31.5294 27.75 36.5C27.75 41.4706 31.7794 45.5 36.75 45.5Z" fill="url(#paint0_linear_79_275)"/>
<path d="M70.2494 37.535C70.4151 37.2152 70.5015 36.8602 70.5015 36.5C70.5015 36.1398 70.4151 35.7848 70.2494 35.465C67.1716 29.158 62.4179 23.8193 56.5088 20.0334C50.5997 16.2474 43.7629 14.1601 36.7469 14C29.7308 14.1601 22.894 16.2474 16.9849 20.0334C11.0758 23.8193 6.32216 29.158 3.24437 35.465C3.07867 35.7848 2.99219 36.1398 2.99219 36.5C2.99219 36.8602 3.07867 37.2152 3.24437 37.535C6.32216 43.842 11.0758 49.1807 16.9849 52.9666C22.894 56.7526 29.7308 58.8399 36.7469 59C43.7629 58.8399 50.5997 56.7526 56.5088 52.9666C62.4179 49.1807 67.1716 43.842 70.2494 37.535ZM36.7469 50C34.0768 50 31.4667 49.2082 29.2467 47.7248C27.0266 46.2414 25.2963 44.133 24.2745 41.6662C23.2527 39.1994 22.9854 36.485 23.5063 33.8663C24.0272 31.2475 25.3129 28.8421 27.2009 26.9541C29.0889 25.066 31.4944 23.7803 34.1132 23.2594C36.7319 22.7385 39.4463 23.0058 41.9131 24.0276C44.3799 25.0494 46.4883 26.7797 47.9717 28.9998C49.4551 31.2199 50.2469 33.83 50.2469 36.5C50.2469 40.0804 48.8246 43.5142 46.2928 46.0459C43.7611 48.5777 40.3273 50 36.7469 50Z" fill="url(#paint1_linear_79_275)"/>
<defs>
<linearGradient id="paint0_linear_79_275" x1="27.75" y1="29.2903" x2="46.4217" y2="30.105" gradientUnits="userSpaceOnUse">
<stop offset="0.5" stop-color="#067FED"/>
<stop offset="1" stop-color="#4BF06F"/>
</linearGradient>
<linearGradient id="paint1_linear_79_275" x1="2.99219" y1="18.4758" x2="72.8549" y2="23.0489" gradientUnits="userSpaceOnUse">
<stop offset="0.5" stop-color="#067FED"/>
<stop offset="1" stop-color="#4BF06F"/>
</linearGradient>
</defs>
</svg>
