<svg width="110" height="110" viewBox="0 0 110 110" fill="none" xmlns="http://www.w3.org/2000/svg">
<path d="M48.76 81.6231L44.6434 94.6572C44.5206 95.0472 44.1597 95.3125 43.75 95.3125H26.875C26.5769 95.3125 26.2956 95.17 26.1184 94.9291C25.9413 94.6881 25.8906 94.3778 25.9816 94.0928L32.6322 73.0328C32.8581 73.5597 33.0644 74.1503 33.2678 74.7344C33.9569 76.7163 34.7378 78.9616 36.7141 80.1053C38.6631 81.2331 40.9816 80.7934 43.0244 80.4081C44.3153 80.1634 45.6494 79.9122 46.5053 80.1409C47.1587 80.3144 47.9566 80.9397 48.76 81.6231ZM77.3678 73.0319C77.1419 73.5588 76.9347 74.1503 76.7313 74.7353C76.0422 76.7163 75.2612 78.9625 73.2859 80.1053C71.3369 81.2331 69.0184 80.7953 66.9756 80.4081C65.6828 80.1634 64.3488 79.9141 63.4947 80.14C62.8413 80.3153 62.0434 80.9397 61.24 81.6231L65.3556 94.6572C65.4794 95.0472 65.8403 95.3125 66.25 95.3125H83.125C83.4231 95.3125 83.7044 95.17 83.8816 94.9291C84.0588 94.6881 84.1094 94.3778 84.0184 94.0928L77.3678 73.0319ZM74.6875 48.4375C74.6875 59.2928 65.8553 68.125 55 68.125C44.1447 68.125 35.3125 59.2928 35.3125 48.4375C35.3125 37.5822 44.1447 28.75 55 28.75C65.8553 28.75 74.6875 37.5822 74.6875 48.4375ZM67.1388 44.5469C67.0272 44.2141 66.7384 43.9713 66.3916 43.9178L59.1119 42.805L55.8484 35.8516C55.6937 35.5234 55.3638 35.3125 55 35.3125C54.6362 35.3125 54.3063 35.5234 54.1516 35.8516L50.8881 42.805L43.6084 43.9178C43.2616 43.9713 42.9728 44.2131 42.8612 44.5469C42.7497 44.8806 42.8341 45.2472 43.0788 45.4994L48.3466 50.8984L46.5859 58.54C46.5044 58.8953 46.6366 59.2656 46.9234 59.4906C47.2103 59.7147 47.6031 59.7522 47.9266 59.5853L55 55.96L62.0725 59.5834C62.2066 59.6538 62.3547 59.6875 62.5 59.6875C62.7053 59.6875 62.9087 59.6209 63.0756 59.4897C63.3634 59.2656 63.4947 58.8944 63.4131 58.5391L61.6525 50.8975L66.9203 45.4984C67.1669 45.2472 67.2503 44.8797 67.1388 44.5469ZM83.0791 55.9666C82.63 57.6447 82.9628 59.4062 83.2853 61.1106C83.5506 62.5122 83.8516 64.1022 83.4213 64.8456C82.9759 65.6144 81.43 66.1534 80.065 66.6269C78.4431 67.1913 76.7641 67.7744 75.5528 68.9856C74.3378 70.2016 73.7547 71.8797 73.1903 73.5025C72.715 74.8675 72.1778 76.4125 71.41 76.8578C71.3162 76.9113 71.0359 77.0734 70.3075 77.0734C69.5341 77.0734 68.5891 76.8953 67.675 76.7219C66.6269 76.5231 65.4409 76.2991 64.3009 76.2991C63.6559 76.2991 63.0775 76.3694 62.5356 76.5128C60.9072 76.9497 59.5816 78.0953 58.2991 79.2044C57.1356 80.2113 55.9347 81.25 55 81.25C54.0634 81.25 52.8625 80.2113 51.7 79.2044C50.4175 78.0953 49.0909 76.9487 47.47 76.5166C46.9262 76.3712 46.3441 76.3009 45.6934 76.3009C44.5572 76.3009 43.3712 76.525 42.325 76.7237C41.4062 76.8972 40.4612 77.0753 39.6887 77.0753C38.9631 77.0753 38.6819 76.9122 38.59 76.8597C37.8203 76.4134 37.2812 74.8675 36.8078 73.5025C36.2434 71.8806 35.6603 70.2016 34.4491 68.9903C33.2331 67.7753 31.555 67.1922 29.9322 66.6278C28.5672 66.1525 27.0222 65.6153 26.5769 64.8475C26.1475 64.1041 26.4475 62.5159 26.7128 61.1134C27.0363 59.3997 27.3672 57.6428 26.92 55.9675C26.4859 54.3466 25.3394 53.02 24.2313 51.7384C23.2263 50.5731 22.1875 49.3722 22.1875 48.4375C22.1875 47.5009 23.2263 46.3 24.2331 45.1375C25.3422 43.855 26.4887 42.5284 26.9209 40.9075C27.37 39.2294 27.0372 37.4678 26.7147 35.7634C26.4494 34.3619 26.1484 32.7719 26.5788 32.0284C27.0241 31.2597 28.57 30.7206 29.935 30.2472C31.5569 29.6828 33.2359 29.0997 34.4472 27.8884C35.6622 26.6725 36.2453 24.9944 36.8097 23.3716C37.285 22.0066 37.8222 20.4616 38.59 20.0163C38.6838 19.9628 38.965 19.7997 39.6934 19.7997C40.4688 19.7997 41.4119 19.9788 42.3241 20.1522C43.3703 20.35 44.5534 20.5741 45.6991 20.5741C46.3422 20.5741 46.9159 20.5056 47.4559 20.3631C49.0928 19.9244 50.4184 18.7787 51.7 17.6697C52.8644 16.6637 54.0653 15.625 55 15.625C55.9366 15.625 57.1375 16.6638 58.3 17.6706C59.5825 18.7797 60.9091 19.9262 62.53 20.3584C63.0728 20.5028 63.6531 20.5741 64.3037 20.5741C65.4353 20.5741 66.6241 20.35 67.6722 20.1522C68.59 19.9778 69.5369 19.7997 70.3094 19.7997C71.035 19.7997 71.3172 19.9628 71.4091 20.0153C72.1787 20.4616 72.7178 22.0075 73.1912 23.3725C73.7556 24.9944 74.3387 26.6734 75.55 27.8847C76.7659 29.0997 78.4441 29.6828 80.0669 30.2472C81.4319 30.7225 82.9769 31.2597 83.4222 32.0275C83.8516 32.7709 83.5516 34.3591 83.2862 35.7616C82.9628 37.4753 82.6319 39.2322 83.0791 40.9075C83.5131 42.5284 84.6597 43.855 85.7678 45.1366C86.7738 46.3019 87.8125 47.5028 87.8125 48.4375C87.8125 49.3741 86.7738 50.575 85.7669 51.7375C84.6588 53.02 83.5112 54.3466 83.0791 55.9666ZM78.4375 48.4375C78.4375 35.5141 67.9234 25 55 25C42.0766 25 31.5625 35.5141 31.5625 48.4375C31.5625 61.3609 42.0766 71.875 55 71.875C67.9234 71.875 78.4375 61.3609 78.4375 48.4375Z" fill="url(#paint0_linear_133_1871)"/>
<defs>
<linearGradient id="paint0_linear_133_1871" x1="22.1875" y1="23.5509" x2="90.3032" y2="25.9985" gradientUnits="userSpaceOnUse">
<stop offset="0.5" stop-color="#067FED"/>
<stop offset="1" stop-color="#4BF06F"/>
</linearGradient>
</defs>
</svg>
