<svg width="110" height="110" viewBox="0 0 110 110" fill="none" xmlns="http://www.w3.org/2000/svg">
<path d="M72.3363 65.3387C72.3363 63.7131 71.7034 62.1845 70.5545 61.0342L69.9372 60.4169H66.9883C63.0958 60.4169 59.3917 59.4198 56.1138 57.5073L55.3122 58.1079C50.3442 61.8355 43.2515 61.4175 38.7691 56.9323L37.0267 55.19C34.3661 52.5236 34.613 48.1688 37.495 45.8145L46.2756 38.63C45.775 38.5301 45.2603 38.4795 44.7386 38.4795H33.7614C31.6591 38.4795 29.6819 39.2979 28.1955 40.7843C27.5064 41.4748 26.5895 41.8545 25.6136 41.8545H21.1094C19.945 41.8545 19 42.7995 19 43.9639V69.8389C19 71.0032 19.945 71.9482 21.1094 71.9482H29.4133L45.1197 86.7307C47.5294 88.9969 51.2535 88.9459 53.5952 86.6014C54.7391 85.4764 55.3419 84.1133 55.4458 82.6568C58.4647 82.4365 60.8563 80.0371 61.0708 77.0318C64.0897 76.8115 66.4813 74.4121 66.6958 71.4068C69.8583 71.1759 72.3363 68.5527 72.3363 65.3387Z" fill="url(#paint0_linear_133_1908)"/>
<path d="M50.5 32.5731C51.6649 32.5731 52.6094 31.6287 52.6094 30.4637V23.7137C52.6094 22.5488 51.6649 21.6044 50.5 21.6044C49.3351 21.6044 48.3906 22.5488 48.3906 23.7137V30.4637C48.3906 31.6287 49.3351 32.5731 50.5 32.5731Z" fill="url(#paint1_linear_133_1908)"/>
<path d="M40.0086 33.0804C40.4205 33.4923 40.9604 33.6983 41.5001 33.6983C42.0398 33.6983 42.5798 33.4923 42.9915 33.0804C43.8153 32.2567 43.8153 30.9211 42.9915 30.0973L39.6165 26.7223C38.7929 25.8986 37.4572 25.8986 36.6335 26.7223C35.8097 27.5459 35.8097 28.8816 36.6335 29.7054L40.0086 33.0804Z" fill="url(#paint2_linear_133_1908)"/>
<path d="M59.5001 33.6981C60.0399 33.6981 60.5798 33.4921 60.9915 33.0802L64.3665 29.7052C65.1903 28.8816 65.1903 27.5459 64.3665 26.7222C63.5429 25.8985 62.2072 25.8985 61.3835 26.7222L58.0085 30.0972C57.1847 30.9208 57.1847 32.2565 58.0085 33.0802C58.4204 33.4921 58.9602 33.6981 59.5001 33.6981Z" fill="url(#paint3_linear_133_1908)"/>
<path d="M88.8902 41.8544H78.062C76.7022 41.8544 75.3536 41.4044 74.2652 40.5887C72.4511 39.2289 70.2039 38.4794 67.937 38.4794H56.8867C54.515 38.4794 52.1321 39.2892 50.2085 40.863L40.1636 49.0811C39.2009 49.8679 39.1244 51.3198 40.0075 52.2059L41.7527 53.9495C44.7016 56.8998 49.4435 57.2359 52.7805 54.7328L56.0036 52.3155C59.1044 54.8314 62.9406 56.1981 66.9878 56.1981H71.6833L73.5367 58.0516C78.7566 63.2792 76.9362 72.0889 70.1617 74.8717C69.7947 75.7689 69.2997 76.6141 68.688 77.3791C71.1714 76.967 73.5227 75.8983 75.4745 74.2711C77.2731 72.7736 79.5527 71.948 81.8927 71.948H88.8902C90.0545 71.948 90.9995 71.003 90.9995 69.8386C90.9995 66.6172 90.9995 46.7563 90.9995 43.9636C90.9995 42.7994 90.0545 41.8544 88.8902 41.8544Z" fill="url(#paint4_linear_133_1908)"/>
<defs>
<linearGradient id="paint0_linear_133_1908" x1="19" y1="43.4443" x2="74.3118" y2="46.023" gradientUnits="userSpaceOnUse">
<stop offset="0.5" stop-color="#067FED"/>
<stop offset="1" stop-color="#4BF06F"/>
</linearGradient>
<linearGradient id="paint1_linear_133_1908" x1="48.3906" y1="22.6953" x2="52.7739" y2="22.7689" gradientUnits="userSpaceOnUse">
<stop offset="0.5" stop-color="#067FED"/>
<stop offset="1" stop-color="#4BF06F"/>
</linearGradient>
<linearGradient id="paint2_linear_133_1908" x1="36.0156" y1="26.8598" x2="43.8928" y2="27.2035" gradientUnits="userSpaceOnUse">
<stop offset="0.5" stop-color="#067FED"/>
<stop offset="1" stop-color="#4BF06F"/>
</linearGradient>
<linearGradient id="paint3_linear_133_1908" x1="57.3906" y1="26.8597" x2="65.2678" y2="27.2034" gradientUnits="userSpaceOnUse">
<stop offset="0.5" stop-color="#067FED"/>
<stop offset="1" stop-color="#4BF06F"/>
</linearGradient>
<linearGradient id="paint4_linear_133_1908" x1="39.3906" y1="42.3484" x2="92.8483" y2="45.443" gradientUnits="userSpaceOnUse">
<stop offset="0.5" stop-color="#067FED"/>
<stop offset="1" stop-color="#4BF06F"/>
</linearGradient>
</defs>
</svg>
