<svg width="73" height="73" viewBox="0 0 73 73" fill="none" xmlns="http://www.w3.org/2000/svg">
<path d="M37.4874 2.97839C33.3443 2.97839 29.3687 3.70834 25.6809 5.04419L26.167 5.53026C27.6359 6.99917 28.2918 9.09636 27.9215 11.1405L26.8125 17.258C30.0071 15.5861 33.6386 14.6386 37.4874 14.6386C50.2252 14.6386 60.5882 25.0016 60.5882 37.7394C60.5882 50.4771 50.2252 60.8402 37.4874 60.8402C24.7496 60.8402 14.3867 50.4771 14.3867 37.7394C14.3867 33.8905 15.3342 30.2592 17.0062 27.0644L10.8891 28.1733C10.5155 28.2409 10.1357 28.275 9.75879 28.275C8.066 28.275 6.47459 27.6156 5.27786 26.4186L4.79222 25.9329C3.45651 29.6207 2.72656 33.5962 2.72656 37.7394C2.72656 56.9067 18.3202 72.5005 37.4875 72.5005C56.6549 72.5005 72.2487 56.9067 72.2487 37.7394C72.2487 18.572 56.6547 2.97839 37.4874 2.97839Z" fill="url(#paint0_linear_79_264)"/>
<path d="M37.4896 39.8516C36.949 39.8516 36.4084 39.6453 35.9962 39.233L31.1186 34.3554C30.58 35.3656 30.2734 36.5172 30.2734 37.7394C30.2734 41.7184 33.5106 44.9556 37.4896 44.9556C41.4687 44.9556 44.7058 41.7184 44.7058 37.7394C44.7058 33.7605 41.4687 30.5233 37.4896 30.5233C36.2672 30.5233 35.1155 30.8299 34.1055 31.3684L38.9831 36.246C39.808 37.0708 39.808 38.4081 38.9831 39.233C38.5707 39.6453 38.0301 39.8516 37.4896 39.8516Z" fill="#91C8FA"/>
<path d="M22.7426 25.9747C20.1624 29.2035 18.6172 33.2937 18.6172 37.7388C18.6172 48.1473 27.0851 56.6153 37.4936 56.6153C47.9021 56.6153 56.3702 48.1473 56.3702 37.7388C56.3702 27.3302 47.9021 18.8622 37.4936 18.8622C33.0487 18.8622 28.9584 20.4075 25.7295 22.9877L31.0404 28.2986C32.8786 27.0379 35.101 26.2984 37.4936 26.2984C43.802 26.2984 48.9341 31.4304 48.9341 37.7388C48.9341 44.0471 43.802 49.1791 37.4936 49.1791C31.1853 49.1791 26.0533 44.0471 26.0533 37.7388C26.0533 35.3461 26.7928 33.1238 28.0534 31.2855L22.7426 25.9747Z" fill="url(#paint1_linear_79_264)"/>
<path d="M23.7646 10.3869C23.8881 9.70541 23.6696 9.00644 23.1798 8.51671L15.7819 1.11866C15.2738 0.610206 14.5416 0.395333 13.8392 0.548251C13.1369 0.701168 12.5604 1.2009 12.3093 1.87452L10.2188 7.4836L22.1314 19.3962L23.7646 10.3869Z" fill="#91C8FA"/>
<path d="M9.76018 24.05C9.88536 24.05 10.0114 24.0389 10.137 24.0162L19.1462 22.3828L7.23353 10.4702L1.62459 12.5608C0.950962 12.8119 0.451234 13.3883 0.298317 14.0907C0.145541 14.793 0.360273 15.5251 0.86873 16.0334L8.26663 23.4313C8.66625 23.8311 9.20498 24.05 9.76018 24.05Z" fill="#91C8FA"/>
<defs>
<linearGradient id="paint0_linear_79_264" x1="2.72656" y1="9.89323" x2="74.8431" y2="13.0399" gradientUnits="userSpaceOnUse">
<stop offset="0.5" stop-color="#067FED"/>
<stop offset="1" stop-color="#4BF06F"/>
</linearGradient>
<linearGradient id="paint1_linear_79_264" x1="18.6172" y1="22.6172" x2="57.7791" y2="24.3259" gradientUnits="userSpaceOnUse">
<stop offset="0.5" stop-color="#067FED"/>
<stop offset="1" stop-color="#4BF06F"/>
</linearGradient>
</defs>
</svg>
