<svg width="110" height="110" viewBox="0 0 110 110" fill="none" xmlns="http://www.w3.org/2000/svg">
<path d="M37.5491 62.5105C40.2229 64.2319 41.9986 67.236 41.9986 70.6452C41.9986 75.9763 37.6624 80.3125 32.3327 80.3125C27.0029 80.3125 22.6647 75.9763 22.6647 70.6452C22.6647 67.236 24.4404 64.2319 27.1155 62.5105V56.8313C24.0765 57.2385 21.0724 57.5378 18.126 57.728V97.2363H46.5394V52.8913C43.5532 53.7015 40.5498 54.4211 37.5491 55.0446V62.5105Z" fill="url(#paint0_linear_133_1878)"/>
<path d="M36.6181 70.6452C36.6181 68.2942 34.7072 66.3592 32.332 66.3592C29.9556 66.3592 28.0439 68.2948 28.0439 70.6452C28.0439 73.01 29.9686 74.9327 32.332 74.9327C34.6955 74.9327 36.6181 73.01 36.6181 70.6452Z" fill="url(#paint1_linear_133_1878)"/>
<path d="M76.8333 55.5342C79.5071 57.2543 81.2828 60.2584 81.2828 63.6689C81.2828 68.9987 76.9466 73.3349 71.6169 73.3349C66.2851 73.3349 61.9489 68.9987 61.9489 63.6689C61.9489 60.2584 63.7246 57.2543 66.3997 55.5342V45.9926C63.4945 47.2423 60.4946 48.4151 57.4102 49.5034V97.2363H85.8236V35.5782C82.9932 37.4631 79.9898 39.2621 76.8333 40.9622V55.5342Z" fill="url(#paint2_linear_133_1878)"/>
<path d="M75.9032 63.6689C75.9032 61.3158 73.9896 59.3815 71.6172 59.3815C69.2503 59.3815 67.3291 61.3096 67.3291 63.6689C67.3291 66.0323 69.2538 67.9549 71.6172 67.9549C73.9806 67.9549 75.9032 66.0323 75.9032 63.6689Z" fill="url(#paint3_linear_133_1878)"/>
<path d="M97.9262 13.0294C93.5502 13.9942 95.9871 13.4565 86.6624 15.5151C85.3818 15.798 84.8875 17.3622 85.7732 18.329C86.1083 18.697 85.7547 18.3097 87.8462 20.5956C68.7417 37.0202 37.3372 46.7225 12.6379 47.1921C11.1533 47.221 9.973 48.4473 10.0005 49.9318C10.0286 51.4006 11.2268 52.572 12.6887 52.572H12.7422C38.8286 52.0687 71.4601 41.839 91.4793 24.5678C93.5667 26.8509 93.2069 26.4575 93.5577 26.8413C94.4435 27.8102 96.0455 27.4545 96.4396 26.2048C99.3365 17.0484 98.5469 19.543 99.9188 15.2082C100.313 13.9564 99.2068 12.7479 97.9262 13.0294Z" fill="url(#paint4_linear_133_1878)"/>
<defs>
<linearGradient id="paint0_linear_133_1878" x1="18.126" y1="57.302" x2="47.6328" y2="58.1269" gradientUnits="userSpaceOnUse">
<stop offset="0.5" stop-color="#067FED"/>
<stop offset="1" stop-color="#4BF06F"/>
</linearGradient>
<linearGradient id="paint1_linear_133_1878" x1="28.0439" y1="67.2119" x2="36.9381" y2="67.6" gradientUnits="userSpaceOnUse">
<stop offset="0.5" stop-color="#067FED"/>
<stop offset="1" stop-color="#4BF06F"/>
</linearGradient>
<linearGradient id="paint2_linear_133_1878" x1="57.4102" y1="41.7109" x2="86.9281" y2="42.3044" gradientUnits="userSpaceOnUse">
<stop offset="0.5" stop-color="#067FED"/>
<stop offset="1" stop-color="#4BF06F"/>
</linearGradient>
<linearGradient id="paint3_linear_133_1878" x1="67.3291" y1="60.2342" x2="76.2232" y2="60.6223" gradientUnits="userSpaceOnUse">
<stop offset="0.5" stop-color="#067FED"/>
<stop offset="1" stop-color="#4BF06F"/>
</linearGradient>
<linearGradient id="paint4_linear_133_1878" x1="10" y1="16.9253" x2="102.625" y2="26.1142" gradientUnits="userSpaceOnUse">
<stop offset="0.5" stop-color="#067FED"/>
<stop offset="1" stop-color="#4BF06F"/>
</linearGradient>
</defs>
</svg>
