<svg width="110" height="110" viewBox="0 0 110 110" fill="none" xmlns="http://www.w3.org/2000/svg">
<g clip-path="url(#clip0_133_1890)">
<path d="M56.9961 21C52.6012 21 48.8945 24.7067 48.8945 29.1015C48.8945 33.4964 52.6012 37.2031 56.9961 37.2031C61.391 37.2031 64.9648 33.4964 64.9648 29.1015C64.9648 24.7067 61.391 21 56.9961 21Z" fill="url(#paint0_linear_133_1890)"/>
<path d="M65.8403 37.2031C63.6509 39.6308 60.5151 41.1875 56.9961 41.1875C53.4771 41.1875 50.2084 39.6308 48.019 37.2031C46.1076 39.3227 44.9102 42.0994 44.9102 45.1719V47.164C44.9102 48.2652 45.8012 49.1562 46.9023 49.1562H66.957C68.0581 49.1562 68.9492 48.2652 68.9492 47.164V45.1719C68.9492 42.0994 67.7517 39.3227 65.8403 37.2031Z" fill="url(#paint1_linear_133_1890)"/>
<path d="M40.2503 82.1473L30.098 61.7932C29.1177 59.8277 26.7319 59.0262 24.764 60.0011L22.1105 61.3156C21.1225 61.8055 20.7205 63.0063 21.2136 63.9926L33.1667 87.8988C33.6583 88.8846 34.854 89.2769 35.834 88.7936L38.4533 87.4959C40.4289 86.5174 41.2342 84.1202 40.2503 82.1473Z" fill="url(#paint2_linear_133_1890)"/>
<path d="M87.3701 53.8976C85.7364 52.7023 83.4653 52.9413 82.1108 54.4155L71.2201 67.803C70.4631 68.5999 69.0287 69.078 68.2717 69.078H58.988C57.8722 69.078 56.9958 68.2016 56.9958 67.0858C56.9958 65.9701 57.8722 65.0936 58.988 65.0936C61.6562 65.0936 64.6102 65.0936 66.9567 65.0936C69.1481 65.0936 70.9411 63.3007 70.9411 61.1093C70.9411 58.9179 69.1481 57.1249 66.9567 57.1249C57.6006 57.1249 66.5251 57.1249 56.5177 57.1249C55.5248 57.1249 55.0297 56.4953 54.2466 55.8099C51.1642 53.0362 46.5503 51.6998 41.8793 52.7825C39.2857 53.3836 37.5367 54.4313 35.7629 55.8362L35.7038 55.7883L32.8223 58.3242L44.1464 81.0311H47.4996H66.9567C70.702 81.0311 74.2881 79.2382 76.5194 76.2499L88.2067 59.5155C89.5215 57.7623 89.1629 55.2125 87.3701 53.8976Z" fill="url(#paint3_linear_133_1890)"/>
</g>
<defs>
<linearGradient id="paint0_linear_133_1890" x1="48.8945" y1="22.6116" x2="65.565" y2="23.333" gradientUnits="userSpaceOnUse">
<stop offset="0.5" stop-color="#067FED"/>
<stop offset="1" stop-color="#4BF06F"/>
</linearGradient>
<linearGradient id="paint1_linear_133_1890" x1="44.9102" y1="38.392" x2="69.7028" y2="40.5676" gradientUnits="userSpaceOnUse">
<stop offset="0.5" stop-color="#067FED"/>
<stop offset="1" stop-color="#4BF06F"/>
</linearGradient>
<linearGradient id="paint2_linear_133_1890" x1="21.0029" y1="62.5118" x2="41.4254" y2="63.1076" gradientUnits="userSpaceOnUse">
<stop offset="0.5" stop-color="#067FED"/>
<stop offset="1" stop-color="#4BF06F"/>
</linearGradient>
<linearGradient id="paint3_linear_133_1890" x1="32.8223" y1="55.2542" x2="90.779" y2="60.217" gradientUnits="userSpaceOnUse">
<stop offset="0.5" stop-color="#067FED"/>
<stop offset="1" stop-color="#4BF06F"/>
</linearGradient>
<clipPath id="clip0_133_1890">
<rect width="68" height="68" fill="white" transform="translate(21 21)"/>
</clipPath>
</defs>
</svg>
