<svg width="32" height="32" viewBox="0 0 32 32" fill="none" xmlns="http://www.w3.org/2000/svg">
<path opacity="0.32" d="M25.152 25.1559H21.3014V19.1239C21.3014 17.6848 21.2715 15.8336 19.2942 15.8336C17.287 15.8336 16.9802 17.3988 16.9802 19.0173V25.1559H13.1309V12.75H16.8281V14.44H16.8788C17.3949 13.465 18.652 12.438 20.5292 12.438C24.4305 12.438 25.152 15.0042 25.152 18.3465V25.1559ZM8.7811 11.0522C7.5409 11.0522 6.5451 10.0499 6.5451 8.8162C6.5451 7.5825 7.5422 6.5802 8.7811 6.5802C9.37412 6.5802 9.94286 6.81578 10.3622 7.23511C10.7815 7.65444 11.0171 8.22318 11.0171 8.8162C11.0171 9.40922 10.7815 9.97796 10.3622 10.3973C9.94286 10.8166 9.37412 11.0522 8.7811 11.0522ZM10.7103 25.1572H6.8493V12.75H10.7103V25.1572ZM27.0786 3H4.9188C3.858 3 3 3.8385 3 4.872V27.128C3 28.1615 3.858 29 4.9188 29H27.0734C28.1329 29 29 28.1628 29 27.128V4.872C29 3.8398 28.1329 3 27.0734 3H27.0786Z" fill="white"/>
</svg>
