<svg width="21" height="21" viewBox="0 0 21 21" fill="none" xmlns="http://www.w3.org/2000/svg">
<path d="M17.9832 10.9422L12.3582 16.5672C12.2409 16.6844 12.0819 16.7503 11.916 16.7503C11.7502 16.7503 11.5911 16.6844 11.4738 16.5672C11.3566 16.4499 11.2907 16.2908 11.2907 16.125C11.2907 15.9591 11.3566 15.8001 11.4738 15.6828L16.0324 11.125H3.79102C3.62526 11.125 3.46628 11.0591 3.34907 10.9419C3.23186 10.8247 3.16602 10.6657 3.16602 10.5C3.16602 10.3342 3.23186 10.1753 3.34907 10.058C3.46628 9.94083 3.62526 9.87498 3.79102 9.87498H16.0324L11.4738 5.31717C11.3566 5.19989 11.2907 5.04083 11.2907 4.87498C11.2907 4.70913 11.3566 4.55007 11.4738 4.43279C11.5911 4.31552 11.7502 4.24963 11.916 4.24963C12.0819 4.24963 12.2409 4.31552 12.3582 4.43279L17.9832 10.0578C18.0413 10.1158 18.0874 10.1848 18.1189 10.2606C18.1503 10.3365 18.1665 10.4178 18.1665 10.5C18.1665 10.5821 18.1503 10.6634 18.1189 10.7393C18.0874 10.8152 18.0413 10.8841 17.9832 10.9422Z" fill="url(#paint0_linear_408_585)"/>
<defs>
<linearGradient id="paint0_linear_408_585" x1="3.16602" y1="5.49298" x2="18.7133" y2="6.30701" gradientUnits="userSpaceOnUse">
<stop offset="0.5" stop-color="#067FED"/>
<stop offset="1" stop-color="#4BF06F"/>
</linearGradient>
</defs>
</svg>
