<svg width="21" height="20" viewBox="0 0 21 20" fill="none" xmlns="http://www.w3.org/2000/svg">
<path d="M17.8172 10.4422L12.1922 16.0672C12.0749 16.1844 11.9159 16.2503 11.75 16.2503C11.5841 16.2503 11.4251 16.1844 11.3078 16.0672C11.1905 15.9499 11.1247 15.7908 11.1247 15.625C11.1247 15.4591 11.1905 15.3001 11.3078 15.1828L15.8664 10.625H3.625C3.45924 10.625 3.30027 10.5591 3.18306 10.4419C3.06585 10.3247 3 10.1657 3 9.99998C3 9.83422 3.06585 9.67525 3.18306 9.55804C3.30027 9.44083 3.45924 9.37498 3.625 9.37498H15.8664L11.3078 4.81717C11.1905 4.69989 11.1247 4.54083 11.1247 4.37498C11.1247 4.20913 11.1905 4.05007 11.3078 3.93279C11.4251 3.81552 11.5841 3.74963 11.75 3.74963C11.9159 3.74963 12.0749 3.81552 12.1922 3.93279L17.8172 9.55779C17.8753 9.61584 17.9214 9.68477 17.9529 9.76064C17.9843 9.83652 18.0005 9.91785 18.0005 9.99998C18.0005 10.0821 17.9843 10.1634 17.9529 10.2393C17.9214 10.3152 17.8753 10.3841 17.8172 10.4422Z" fill="#6A7383"/>
</svg>
