<svg width="21" height="20" viewBox="0 0 21 20" fill="none" xmlns="http://www.w3.org/2000/svg">
<path d="M18.0005 9.99998C18.0005 10.1657 17.9346 10.3247 17.8174 10.4419C17.7002 10.5591 17.5413 10.625 17.3755 10.625H5.13409L9.69268 15.1828C9.75075 15.2409 9.79681 15.3098 9.82824 15.3857C9.85966 15.4615 9.87584 15.5429 9.87584 15.625C9.87584 15.7071 9.85966 15.7884 9.82824 15.8643C9.79681 15.9402 9.75075 16.0091 9.69268 16.0672C9.63461 16.1252 9.56567 16.1713 9.4898 16.2027C9.41393 16.2342 9.33261 16.2503 9.25049 16.2503C9.16837 16.2503 9.08705 16.2342 9.01118 16.2027C8.93531 16.1713 8.86637 16.1252 8.8083 16.0672L3.1833 10.4422C3.12519 10.3841 3.07909 10.3152 3.04764 10.2393C3.01619 10.1634 3 10.0821 3 9.99998C3 9.91785 3.01619 9.83652 3.04764 9.76064C3.07909 9.68477 3.12519 9.61584 3.1833 9.55779L8.8083 3.93279C8.92558 3.81552 9.08464 3.74963 9.25049 3.74963C9.41634 3.74963 9.5754 3.81552 9.69268 3.93279C9.80996 4.05007 9.87584 4.20913 9.87584 4.37498C9.87584 4.54083 9.80996 4.69989 9.69268 4.81717L5.13409 9.37498H17.3755C17.5413 9.37498 17.7002 9.44083 17.8174 9.55804C17.9346 9.67525 18.0005 9.83422 18.0005 9.99998Z" fill="#6A7383"/>
</svg>
