<svg width="1567" height="527" viewBox="0 0 1567 527" fill="none" xmlns="http://www.w3.org/2000/svg">
<g clip-path="url(#clip0_3_198)">
<path d="M1475 263.5C1475 398.26 1397.73 520.361 1272.59 608.812C1147.46 697.261 974.547 752 783.5 752C592.454 752 419.536 697.261 294.406 608.812C169.273 520.361 92 398.26 92 263.5C92 128.74 169.273 6.63889 294.406 -81.8122C419.536 -170.261 592.454 -225 783.5 -225C974.547 -225 1147.46 -170.261 1272.59 -81.8122C1397.73 6.63889 1475 128.74 1475 263.5Z" stroke="url(#paint0_linear_3_198)" stroke-width="2"/>
<path d="M1358.5 263.5C1358.5 366.967 1294.22 460.705 1190.17 528.6C1086.11 596.492 942.337 638.5 783.5 638.5C624.663 638.5 480.886 596.492 376.833 528.6C272.776 460.705 208.5 366.967 208.5 263.5C208.5 160.033 272.776 66.295 376.833 -1.59985C480.886 -69.4917 624.663 -111.5 783.5 -111.5C942.337 -111.5 1086.11 -69.4917 1190.17 -1.59985C1294.22 66.295 1358.5 160.033 1358.5 263.5Z" stroke="url(#paint1_linear_3_198)"/>
<circle cx="95.5" cy="315.5" r="6.5" fill="#067FED"/>
<circle cx="242.5" cy="137.5" r="9.5" fill="#AAF3A3"/>
<circle cx="1441.5" cy="113.5" r="6.5" fill="#4BF06F"/>
<circle cx="1349.5" cy="321.5" r="9.5" fill="#93C3EF"/>
</g>
<defs>
<linearGradient id="paint0_linear_3_198" x1="783.5" y1="-226" x2="783.5" y2="753" gradientUnits="userSpaceOnUse">
<stop offset="0.2" stop-color="white"/>
<stop offset="0.54744" stop-color="#DDE2EB"/>
<stop offset="0.8" stop-color="white"/>
</linearGradient>
<linearGradient id="paint1_linear_3_198" x1="783.5" y1="-112" x2="783.5" y2="639" gradientUnits="userSpaceOnUse">
<stop offset="0.2" stop-color="white"/>
<stop offset="0.5" stop-color="#DAE0EC"/>
<stop offset="0.8" stop-color="white"/>
</linearGradient>
<clipPath id="clip0_3_198">
<rect width="1567" height="527" fill="white"/>
</clipPath>
</defs>
</svg>
